<?xml version="1.0" encoding="UTF-8"?>
<svg xmlns="http://www.w3.org/2000/svg" width="350" height="150" viewBox="0 0 350 150">
  <g id="_3M" data-name="3M" transform="translate(-38 -41)">
    <rect id="Rectangle_1" data-name="Rectangle 1" width="350" height="150" transform="translate(38 41)" fill="none"></rect>
    <path id="Path_50" data-name="Path 50" d="M420.9-1000.5,407.67-946.673,394.4-1000.5H356.078v19.875c-4.657-17.392-21.74-21.754-37.005-22-18.612-.243-39.235,7.822-39.951,32.433h25.742c0-7.429,6.8-11.684,13.227-11.576,7.887-.066,11.515,3.3,11.7,8.542-.271,4.549-2.955,7.714-11.632,7.714H309.5v17.86h7.859c4.465,0,10.678,2.431,10.922,8.79.3,7.579-4.97,10.908-11.455,10.973-11.576-.43-14.564-9.323-14.564-16.971H275.54c.112,5.152-.056,38.735,41.821,38.487,20.062.182,34.663-8.252,38.782-19.88v17.822h25.77V-966.5l14.25,58.067H419.19l14.3-58v58.053h26.294V-1000.5H420.9Zm-64.739,53.7c-3.282-6.789-7.9-9.757-10.5-10.7,5.456-2.426,8.313-5.718,10.5-12.277Z" transform="translate(-154.54 1070.628)" fill="red"></path>
  </g>
</svg>
