<?xml version="1.0" encoding="UTF-8"?>
<svg xmlns="http://www.w3.org/2000/svg" width="350" height="150" viewBox="0 0 350 150">
  <g id="Group_1" data-name="Group 1" transform="translate(-38 -41)">
    <rect id="Rectangle_1" data-name="Rectangle 1" width="350" height="150" transform="translate(38 41)" fill="#fff"></rect>
    <g id="ACCU-CHEK" transform="translate(38 -184.9)">
      <path id="Path_1" data-name="Path 1" d="M36.794,305.475c1.5.1,2.79.155,3.824.155,1.189,0,2.635-.052,4.392-.155-.31-3.617-.775-7.493-1.4-11.575-2.222,3.514-4.444,7.234-6.821,11.575M20,322.838l.568-.93c8.371-13.177,16.691-27.181,24.7-41.6l.155-.31.362.052a23.927,23.927,0,0,0,2.739.258,17.463,17.463,0,0,0,2.48-.258l.517-.052,2.119,14.624c1.757,12.35,3.514,21.858,5.064,27.439l.207.775-.775-.1a40,40,0,0,0-5.839-.517,36.56,36.56,0,0,0-5.271.517l-.672.1.1-.672a12.593,12.593,0,0,0,.052-1.4c0-1.654-.207-3.359-.362-5.116L45.63,310.9c-2.584-.207-4.7-.31-6.3-.31-1.033,0-2.842.1-5.374.31l-2.274,4.237a73.5,73.5,0,0,0-3.617,7.286l-.155.362-.413-.052c-1.757-.207-2.739-.258-3.1-.258a27.607,27.607,0,0,0-3.307.258Z" transform="translate(0 -0.532)"></path>
      <path id="Path_2" data-name="Path 2" d="M116.249,329.647c-10.645,0-16.949-6.046-16.949-16.226a19.882,19.882,0,0,1,6.253-14.882,21.4,21.4,0,0,1,14.779-5.839c5.064,0,9.25,1.137,12.505,3.41l.31.207-.155.362a55.135,55.135,0,0,0-2.274,6.976l-.155.465-1.447-.362-.052-.31c-.775-4.186-3.721-6.563-8.113-6.563a9.778,9.778,0,0,0-8.888,4.909,24.9,24.9,0,0,0-3.307,12.764c0,4.857,1.5,10.593,8.785,10.593a13.365,13.365,0,0,0,9.095-3.876l.362-.362,1.24,1.344-.155.31a19.77,19.77,0,0,0-1.4,4.289l-.052.207-.207.1a20.078,20.078,0,0,1-10.18,2.48" transform="translate(-38.322 -6.669)"></path>
      <path id="Path_3" data-name="Path 3" d="M180.149,329.647c-10.645,0-16.949-6.046-16.949-16.226a19.882,19.882,0,0,1,6.253-14.882,21.4,21.4,0,0,1,14.779-5.839c5.064,0,9.25,1.137,12.505,3.41l.31.207-.155.362a55.135,55.135,0,0,0-2.274,6.976l-.155.465-1.447-.362-.052-.31c-.775-4.186-3.721-6.563-8.113-6.563a9.778,9.778,0,0,0-8.888,4.909,24.9,24.9,0,0,0-3.307,12.764c0,4.857,1.5,10.593,8.785,10.593a13.365,13.365,0,0,0,9.095-3.876l.362-.362,1.24,1.344-.155.31a23.048,23.048,0,0,0-1.4,4.289l-.052.207-.207.1a19.944,19.944,0,0,1-10.18,2.48" transform="translate(-69.203 -6.669)"></path>
      <path id="Path_4" data-name="Path 4" d="M242.063,330.024c-8.32,0-12.763-3.566-12.763-10.387a67.142,67.142,0,0,1,1.344-9.508c.775-4.186,1.705-9.353,2.532-15.709l.052-.517.517.052c1.86.207,3.359.362,4.289.362a31.691,31.691,0,0,0,4.134-.362l.775-.1-.207.723c-3.876,14.83-4.857,22.582-4.857,24.6,0,3.566,2.067,5.529,5.839,5.529q6.046,0,8.836-6.046c1.4-3.1,2.79-11.265,4.961-24.287l.1-.517.517.052a21.036,21.036,0,0,0,2.429.207,14.181,14.181,0,0,0,2.325-.207l.723-.1-.155.723c-1.24,5.271-2.222,9.766-3.049,13.694-1.5,6.976-2.48,11.523-3.669,13.849-2.894,5.374-7.648,7.958-14.675,7.958" transform="translate(-101.146 -7.201)"></path>
      <path id="Path_5" data-name="Path 5" d="M295.1,332.5l.207-.723a37.817,37.817,0,0,0,1.137-6.563l.052-.517,2.119.155c1.705.1,3.049.207,4.082.207,1.757,0,3.824-.1,6.2-.258l1.705-.1-.207.672a39.44,39.44,0,0,0-1.24,6.563l-.052.517-.517-.052c-2.842-.207-4.961-.362-6.718-.362-1.344,0-3.359.155-6.046.362Z" transform="translate(-132.945 -22.133)"></path>
      <path id="Path_6" data-name="Path 6" d="M353.308,323.133C340.6,323.133,333,315.9,333,303.7a23.744,23.744,0,0,1,7.493-17.828,25.68,25.68,0,0,1,17.724-6.976c6.046,0,11.11,1.4,15.037,4.082l.31.207-.155.362a66.976,66.976,0,0,0-2.739,8.423l-.155.465-1.55-.362-.052-.31c-.93-5.064-4.547-8.009-9.87-8.009a11.878,11.878,0,0,0-10.8,5.943,29.788,29.788,0,0,0-4.031,15.4c0,8.423,3.721,12.867,10.7,12.867a15.933,15.933,0,0,0,11.007-4.7l.362-.362,1.4,1.447-.155.31a25.208,25.208,0,0,0-1.705,5.167l-.052.207-.207.1a23.774,23.774,0,0,1-12.247,3" transform="translate(-151.26 0)"></path>
      <path id="Path_7" data-name="Path 7" d="M404.5,329.652l.207-.723c4.5-17.776,6.1-28.472,6.718-34.26l.052-.517.517.052a38.382,38.382,0,0,0,4.134.362,31.007,31.007,0,0,0,4.392-.362l.775-.1-.207.775c-.878,3.049-1.4,5.426-1.705,6.976l-1.292,6.1c2.377.1,4.392.155,6.1.155.879,0,2.842-.052,5.684-.155l.93-4.6c.517-2.635.982-5.581,1.292-8.681l.052-.517.517.052a38.663,38.663,0,0,0,4.289.362,29.183,29.183,0,0,0,4.289-.362l.775-.1-.207.723c-4.444,17.828-6.1,28.472-6.718,34.26l-.052.517-.517-.052a36.183,36.183,0,0,0-3.824-.362c-1.292,0-2.79.155-4.754.362l-.723.1.207-.723c.93-3.617,1.55-6.3,1.809-7.6l1.705-8.32c-2.222-.1-4.341-.155-6.3-.155-.568,0-2.17,0-5.426.155l-1.5,7.338a71.856,71.856,0,0,0-1.188,8.681l-.052.517-.517-.052a38.661,38.661,0,0,0-4.289-.362,29.182,29.182,0,0,0-4.289.362Z" transform="translate(-185.813 -7.346)"></path>
      <path id="Path_8" data-name="Path 8" d="M472.1,329.548l.207-.672a224.711,224.711,0,0,0,6.614-34.26l.052-.517.517.052c2.945.258,5.788.362,8.785.362,2.687,0,5.994-.155,10.438-.362l.878-.052-.362.775a10.655,10.655,0,0,0-.982,4.237l-.052.568-.568-.1a46.587,46.587,0,0,0-10.18-.62,32.948,32.948,0,0,0-.982,4.031l-.052.155-.93,5.167,1.085.052c1.085.052,1.964.1,2.532.1,1.654,0,3.566-.1,5.632-.258l1.5-.1-.258.723a9.882,9.882,0,0,0-.672,3.565v1.24l-.568-.052a76.45,76.45,0,0,0-8.371-.465h-1.705l-1.24,6.149c-.31,1.6-.672,3.462-.827,5.116,3.255-.052,6.821-.258,11.265-.672l.775-.052-.258.723a21.745,21.745,0,0,0-.982,4.6l-.052.465h-.465c-4.082-.207-7.648-.31-10.49-.31-2.015,0-5.167.1-9.4.31Z" transform="translate(-218.481 -7.346)"></path>
      <path id="Path_9" data-name="Path 9" d="M519.9,329.652l.207-.723c5.271-20.98,6.408-31.521,6.666-34.26l.052-.517.517.052a29.027,29.027,0,0,0,3.927.362,41.863,41.863,0,0,0,4.651-.31l.827-.1-.258.775a47.184,47.184,0,0,0-2.067,8.268l-1.085,5.788,5.374-5.012a99.684,99.684,0,0,0,8.578-9.611l.207-.207.258.052a25.65,25.65,0,0,0,2.842.31,23.285,23.285,0,0,0,3.152-.31l.62-.1-.1,1.447-.155.155c-5.684,5.064-10.593,9.766-14.985,14.417,2.842,6.253,5.788,12.35,8.991,18.706l.413.827-.93-.1a41.833,41.833,0,0,0-4.444-.31,47.811,47.811,0,0,0-4.806.31l-.413.052-.155-.362a117.9,117.9,0,0,0-5.736-13.642l-.827,3.721c-.568,2.739-1.034,6.046-1.447,9.818l-.052.517-.517-.052a41.287,41.287,0,0,0-4.392-.362,27.345,27.345,0,0,0-4.134.362Z" transform="translate(-241.581 -7.346)"></path>
      <path id="Path_10" data-name="Path 10" d="M602.116,297.614h.724c.982,0,1.447.31,1.447.982s-.465.93-1.344.93h-.775v-1.912Zm-1.6-.982v6.563h1.6v-2.687h.775l1.24,2.687h1.809l-1.5-2.945a1.77,1.77,0,0,0,1.447-1.757c0-1.24-.93-1.912-2.842-1.912h-2.532Zm2.429-1.55a4.88,4.88,0,0,1,3.565,1.5,4.828,4.828,0,0,1,1.4,3.565,4.686,4.686,0,0,1-1.447,3.411A5.1,5.1,0,0,1,602.943,305a5.029,5.029,0,0,1-4.961-4.961,5.063,5.063,0,0,1,1.5-3.514,4.685,4.685,0,0,1,3.462-1.447m0-.982a5.834,5.834,0,0,0-5.064,2.842,6.126,6.126,0,0,0-.878,3.1,5.741,5.741,0,0,0,1.705,4.134,5.991,5.991,0,0,0,4.237,1.809,6.082,6.082,0,0,0,4.185-1.705,5.736,5.736,0,0,0,1.757-4.186,5.575,5.575,0,0,0-1.705-4.134,5.489,5.489,0,0,0-4.237-1.86" transform="translate(-278.841 -7.346)"></path>
    </g>
  </g>
</svg>
