<?xml version="1.0" encoding="UTF-8"?>
<svg xmlns="http://www.w3.org/2000/svg" width="350" height="150" viewBox="0 0 350 150">
  <g id="compeed" transform="translate(-38 -41)">
    <rect id="Rectangle_1" data-name="Rectangle 1" width="350" height="150" transform="translate(38 41)" fill="none"></rect>
    <g id="Layer_1" data-name="Layer 1" transform="translate(61.704 73.372)">
      <g id="Group_12" data-name="Group 12" transform="translate(0 0)">
        <path id="Path_42" data-name="Path 42" d="M0,42.088v4.5c.081.2.371,3.7.479,4.371a41.332,41.332,0,0,0,.85,4.123,41.779,41.779,0,0,0,4.3,10.426A42.237,42.237,0,0,0,30.616,84.976a43.216,43.216,0,0,0,7.277,1.362c.2.016.409.022.608.043l.576.14h5.711l.775-.14a43.016,43.016,0,0,0,10.291-2.072c1.911-.657,7.858-3.095,8.983-4.263a11.837,11.837,0,0,0-1.1-1.647L61.512,75.19a16.6,16.6,0,0,1-1.077-1.626c-.312.054-2.971,1.561-3.811,1.954C33.716,86.165,8.488,69.533,8.467,44.5,8.451,24.761,24.512,9.55,42.678,10.078a34.239,34.239,0,0,1,13.914,3.256c.6.291,3.536,1.895,3.849,1.948l2.2-3.24a34.781,34.781,0,0,0,2.18-3.273,39.928,39.928,0,0,0-9.21-4.306,51.771,51.771,0,0,0-5.372-1.389c-1.211-.231-5.862-.716-6.007-.775H39.072a.811.811,0,0,1-.081.032l-.517.1A41.8,41.8,0,0,0,4.026,26.4,44.469,44.469,0,0,0,1.4,33.626a40.355,40.355,0,0,0-.867,4.107c-.118.716-.4,4.048-.538,4.36H0Z" transform="translate(0 -1.062)" fill="#008ab0" fill-rule="evenodd"></path>
        <path id="Path_43" data-name="Path 43" d="M124.336,83.052l7.283.011V63.443c0-3.256-.425-6.206,1.039-8.677a7.374,7.374,0,0,1,13.682,3.612c.054,1.615.022,3.348.011,4.973-.059,6.561-.021,13.117-.021,19.679l7.326.038c0-6.529.092-13.117,0-19.619-.021-1.615-.032-3.262-.016-4.877a7.38,7.38,0,0,1,13.6-3.951c1.539,2.347,1.141,5.539,1.141,8.736V83.02c.5.113,6.658.108,7.256.005V65.607c0-6.287.63-10.464-2.368-15.05a14.58,14.58,0,0,0-22.138-2.734c-.226.2-.382.323-.587.538-.221.242-.307.42-.576.549a25.544,25.544,0,0,0-2.255-2.056,14.622,14.622,0,0,0-20.976,3.682c-3.009,4.629-2.4,8.757-2.4,15.066V83.057h0Z" transform="translate(-57.388 -20.286)" fill="#008ab0" fill-rule="evenodd"></path>
        <path id="Path_44" data-name="Path 44" d="M249.055,51.656a12.754,12.754,0,0,1,9.586,2.594,12.479,12.479,0,0,1-5.856,22.015A12.107,12.107,0,0,1,238.8,65.925a12.376,12.376,0,0,1,10.259-14.264h0ZM231.626,98.688l6.75.038.021-19.888a14.007,14.007,0,0,1,1.582,1.1,18.963,18.963,0,0,0,5.28,2.578A19.4,19.4,0,0,0,269.449,57.8c-3.6-11.2-16.541-16.2-26.945-11.239a19.467,19.467,0,0,0-9.839,11.179c-1.093,3.294-1.044,5.619-1.044,9.409V93.408c0,1.658-.1,3.671,0,5.28h0Z" transform="translate(-106.929 -20.615)" fill="#008ab0" fill-rule="evenodd"></path>
        <path id="Path_45" data-name="Path 45" d="M475.872,51.845A12.317,12.317,0,0,1,487.132,38.5a12.176,12.176,0,0,1,13.236,11.373c.447,7.11-4.645,13.128-11.239,13.451a12.263,12.263,0,0,1-13.257-11.481Zm24.787-15.8c-.673-.226-3.014-2.788-7.81-3.962a19.415,19.415,0,0,0-22.822,11.443c-4.99,12.676,3.886,26.708,17.881,26.7a18.731,18.731,0,0,0,8.031-1.642,19.364,19.364,0,0,0,11.411-15.991c.237-2.761.081-6.141.081-9V16.18h-6.777V36.042h0Z" transform="translate(-216.386 -7.471)" fill="#008ab0" fill-rule="evenodd"></path>
        <path id="Path_46" data-name="Path 46" d="M318.7,60.248c.291-2.325,2.261-5.178,4-6.712a12.137,12.137,0,0,1,15.631-.178c1.518,1.308,3.665,4.085,3.838,6.863l-23.479.032h0Zm28.4,14.614c-.339-.3-5.243-3.047-5.937-3.423-1.69,1.948-2.643,3.138-5.291,4.263a12.337,12.337,0,0,1-16.11-5.835,11.392,11.392,0,0,1-1.163-3.709c.9-.011,30.174.118,30.933-.054.845-10.883-5.323-19.006-14.334-20.96a19.654,19.654,0,0,0-14.5,2.449c-13.187,8.418-11.422,27.289,1.4,33.705a19.753,19.753,0,0,0,20.723-1.835c1.012-.786,3.978-3.482,4.263-4.607h0Z" transform="translate(-143.887 -20.638)" fill="#008ab0" fill-rule="evenodd"></path>
        <path id="Path_47" data-name="Path 47" d="M397.236,60.2a12.293,12.293,0,0,1,11.745-9.645c5.786-.043,11.115,4.118,11.729,9.629l-23.473.016Zm28.371,14.63c-.549-.468-5.749-3.348-5.932-3.38a16.508,16.508,0,0,1-2.336,2.449,12.065,12.065,0,0,1-2.987,1.8,13.253,13.253,0,0,1-8.268.63,12.16,12.16,0,0,1-5.888-3.671,13.278,13.278,0,0,1-1.927-2.863,12.039,12.039,0,0,1-1.152-3.639c1.033-.118,24.146-.022,27.063-.022a30.933,30.933,0,0,0,3.9-.054c.834-10.3-4.817-18.855-14.49-20.981-15.448-3.391-28.371,12.342-21.665,27.1a19.4,19.4,0,0,0,8.747,9.075,19.692,19.692,0,0,0,20.663-1.787,18.849,18.849,0,0,0,3.369-3.3c.3-.4.834-.915.91-1.356h0Z" transform="translate(-180.131 -20.61)" fill="#008ab0" fill-rule="evenodd"></path>
        <path id="Path_48" data-name="Path 48" d="M75.027,65.443a12.294,12.294,0,1,1-24.4-2.966A12.123,12.123,0,0,1,64.256,51.663a12.591,12.591,0,0,1,4.607,1.5,12.437,12.437,0,0,1,6.163,12.288h0ZM62.087,44.666a19.148,19.148,0,0,0-7.767,1.916A19.381,19.381,0,0,0,63.8,83.329C81.895,82.322,88.079,60.97,76.249,49.806a19.7,19.7,0,0,0-14.161-5.14h0Z" transform="translate(-20.093 -20.601)" fill="#008ab0" fill-rule="evenodd"></path>
        <path id="Path_49" data-name="Path 49" d="M547.981,0a5.085,5.085,0,0,1,2.46.651A4.628,4.628,0,0,1,552.314,2.5a5.1,5.1,0,0,1,.667,2.514,5.019,5.019,0,0,1-.662,2.487,4.61,4.61,0,0,1-1.852,1.852,5.022,5.022,0,0,1-4.984,0A4.643,4.643,0,0,1,543.632,7.5a5.063,5.063,0,0,1-.662-2.487,5.149,5.149,0,0,1,.673-2.514A4.663,4.663,0,0,1,545.516.651,5.09,5.09,0,0,1,547.981,0h0Zm0,.829a4.274,4.274,0,0,0-2.056.544,3.884,3.884,0,0,0-1.561,1.545,4.2,4.2,0,0,0-.565,2.094,4.155,4.155,0,0,0,.554,2.072,3.892,3.892,0,0,0,1.55,1.545,4.189,4.189,0,0,0,2.078.554,4.262,4.262,0,0,0,2.078-.554A3.846,3.846,0,0,0,551.6,7.083a4.221,4.221,0,0,0,.549-2.072,4.286,4.286,0,0,0-.56-2.094,3.851,3.851,0,0,0-1.561-1.545,4.269,4.269,0,0,0-2.051-.544h0Zm-2.2,6.943V2.39h1.852a4.4,4.4,0,0,1,1.372.151,1.338,1.338,0,0,1,.678.522,1.39,1.39,0,0,1,.253.786,1.419,1.419,0,0,1-.425,1.028,1.661,1.661,0,0,1-1.12.49,1.446,1.446,0,0,1,.457.285,5.977,5.977,0,0,1,.8,1.066l.657,1.05h-1.055l-.479-.845a4.208,4.208,0,0,0-.915-1.254,1.1,1.1,0,0,0-.694-.183h-.511V7.767h-.872Zm.867-3.03h1.055a1.7,1.7,0,0,0,1.034-.226.733.733,0,0,0,.275-.592.691.691,0,0,0-.135-.425.771.771,0,0,0-.366-.28,2.841,2.841,0,0,0-.872-.092h-.99V4.742Z" transform="translate(-250.715 0)" fill="#008ab0"></path>
      </g>
    </g>
  </g>
</svg>
