<?xml version="1.0" encoding="UTF-8"?>
<svg xmlns="http://www.w3.org/2000/svg" xmlns:xlink="http://www.w3.org/1999/xlink" id="Layer_2" data-name="Layer 2" viewBox="0 0 350 150">
  <defs>
    <style>
      .cls-1, .cls-2, .cls-3 {
        fill-rule: evenodd;
      }

      .cls-1, .cls-2, .cls-3, .cls-4 {
        stroke-width: 0px;
      }

      .cls-1, .cls-4 {
        fill: #fff;
      }

      .cls-2 {
        fill: url(#linear-gradient);
      }

      .cls-3 {
        fill: #00adee;
      }
    </style>
    <linearGradient id="linear-gradient" x1="-389.5" y1="660.82" x2="-387.09" y2="660.82" gradientTransform="translate(28781.21 -16732.8) rotate(-90) scale(43.29 -43.29)" gradientUnits="userSpaceOnUse">
      <stop offset="0" stop-color="#1d3586"></stop>
      <stop offset=".21" stop-color="#1c3686"></stop>
      <stop offset=".41" stop-color="#1259a5"></stop>
      <stop offset=".67" stop-color="#0881c8"></stop>
      <stop offset=".87" stop-color="#0299de"></stop>
      <stop offset="1" stop-color="#00a3e6"></stop>
    </linearGradient>
  </defs>
  <g id="Layer_1-2" data-name="Layer 1">
    <rect class="cls-4" width="350" height="150"></rect>
    <g>
      <path class="cls-3" d="M296.01,34.4c1.91,0,3.69-.74,5.04-2.09,1.35-1.34,2.09-3.13,2.09-5.04s-.74-3.69-2.09-5.02c-1.35-1.36-3.13-2.11-5.04-2.11-3.93,0-7.12,3.21-7.12,7.12,0,1.91.73,3.7,2.1,5.04,1.33,1.35,3.14,2.09,5.03,2.09M289.85,27.27c0-1.63.66-3.18,1.82-4.35,1.18-1.16,2.71-1.8,4.35-1.8s3.18.64,4.35,1.8c1.16,1.17,1.8,2.71,1.8,4.35,0,3.39-2.77,6.14-6.15,6.14-1.63,0-3.17-.63-4.35-1.79-1.16-1.16-1.82-2.71-1.82-4.35"></path>
      <path class="cls-3" d="M299.62,30.89h-2.38l-1.82-2.84h-.03v2.84h-1.93v-7.38h2.88c1.47,0,2.57.69,2.57,2.26,0,1.03-.56,1.91-1.62,2.09l2.33,3.03M295.39,26.8h.18c.63,0,1.34-.09,1.34-.91s-.71-.93-1.34-.93h-.18v1.84"></path>
      <path class="cls-1" d="M46.85,59.06c0-7.54,1.94-16.66,9.44-24.15,7.5-7.5,16.64-9.43,24.16-9.43h183.48c7.53,0,16.67,1.93,24.16,9.43,7.49,7.49,9.44,16.61,9.44,24.15v37.2c0,7.55-1.95,16.67-9.44,24.16-7.5,7.5-16.63,9.44-24.16,9.44H80.45c-7.52,0-16.66-1.94-24.16-9.44-7.49-7.49-9.44-16.61-9.44-24.16"></path>
      <path class="cls-2" d="M282.53,96.25c0,4.84-1.24,9.57-5.13,13.46-.38.38-.76.73-1.17,1.06l-21.4-30.38,14.44-20.58h-8.64l-9.84,14.72-7.04-10.38c-3.32-4.91-6.37-5.31-12.35-5.31l15.3,21.67-14.63,20.85h8.63l10.03-15.01,22.02,32.44s-6.46,1.66-9.9-3.96H80.45c-4.84,0-9.56-1.24-13.45-5.13-3.89-3.89-5.13-8.62-5.13-13.46v-37.19c0-4.84,1.24-9.56,5.13-13.46,3.89-3.89,8.61-5.13,13.45-5.13h30.41v24.58c-3.83-3.83-9.1-6.2-15.03-6.2-12.08,0-21.63,9.25-21.63,21.87s9.55,21.87,21.63,21.87c5.93,0,11.2-2.36,15.03-6.19v4.98h7.23v-60.9s145.85,0,145.85,0c4.84,0,9.57,1.25,13.46,5.13,3.89,3.89,5.13,8.62,5.13,13.46M46.85,59.06c0-7.54,1.94-16.66,9.44-24.15,7.5-7.5,16.64-9.43,24.16-9.43h183.48c7.53,0,16.67,1.93,24.16,9.43,7.49,7.49,9.44,16.61,9.44,24.15v37.2c0,7.55-1.95,16.67-9.44,24.16-7.5,7.5-16.63,9.44-24.16,9.44H80.45c-7.52,0-16.66-1.94-24.16-9.44-7.49-7.49-9.44-16.61-9.44-24.16v-37.2ZM96.13,95.92c-8.13,0-14.72-6.81-14.72-15.2s6.59-15.19,14.72-15.19,14.73,6.55,14.73,15.19-5.11,15.2-14.73,15.2ZM189.52,80.77c0,12.66,9.34,21.81,21.68,21.81,9.23,0,17.04-5.59,20.15-13.67h-7.54c-2.54,4.26-6.59,7.15-12.37,7.15-7.27,0-13.12-5.17-14.41-12.28h35.54c.09-1.04.1-1.98.1-3.01,0-12.11-8.71-21.92-21.47-21.92-12.11,0-21.68,9.27-21.68,21.92ZM174.93,65.27c.02-6-3.17-6.42-7.22-6.42v42.52h7.22v-21.65c0-11.49,6.87-14.52,13.56-14.18l1.12-6.93c-7.18-.6-12.55,1.78-14.67,6.66ZM126.16,58.85v28.39c0,10.5,7.76,15.34,16.73,15.34s16.73-4.84,16.73-15.34v-22.14c0-6.08-3.66-6.25-7.24-6.25v27.36c0,6.71-3.49,9.81-9.5,9.81s-9.49-3.1-9.5-9.81v-21.11c0-6.08-3.64-6.25-7.23-6.25ZM61.69,115.01c-5.69-5.69-7.33-12.57-7.33-18.76v-37.19c0-6.19,1.64-13.07,7.33-18.76,5.7-5.69,12.58-7.33,18.76-7.33h183.49c6.19,0,13.07,1.64,18.76,7.33,5.69,5.69,7.33,12.57,7.33,18.76v37.19c0,6.19-1.65,13.07-7.33,18.76-5.69,5.7-12.57,7.34-18.76,7.34H80.45c-6.18,0-13.06-1.64-18.76-7.34ZM225.23,77.58h-28.15c1.37-6.89,7.1-12.09,14.33-12.09s12.67,4.94,13.83,12.09Z"></path>
    </g>
  </g>
</svg>
