<?xml version="1.0" encoding="UTF-8"?>
<svg version="1.1" xmlns="http://www.w3.org/2000/svg" width="2500" height="2500">
<path d="M0 0 C2.73238675 -0.00147134 5.4647598 -0.00746644 8.19714046 -0.0132131 C14.10294568 -0.02328229 20.00866744 -0.02247766 25.91447425 -0.01416247 C34.7556649 -0.00177111 43.59678919 -0.00695932 52.43798154 -0.01531039 C67.51385212 -0.02904676 82.58969222 -0.02869158 97.66556549 -0.02046776 C112.92797716 -0.01219308 128.1903688 -0.01048971 143.45278168 -0.01667976 C144.90264565 -0.01726104 144.90264565 -0.01726104 146.38179981 -0.01785406 C150.31897856 -0.019454 154.2561573 -0.02110014 158.19333601 -0.02280489 C194.80497075 -0.03864595 231.41659208 -0.03976092 268.02822876 -0.03136253 C269.11156395 -0.03111415 270.19489913 -0.03086576 271.31106266 -0.03060985 C272.39614521 -0.03036106 273.48122776 -0.03011227 274.59919161 -0.02985594 C307.68739604 -0.02227953 340.77559493 -0.0203354 373.86380005 -0.02392387 C376.08150761 -0.02415631 378.29921517 -0.02438778 380.51692273 -0.02461828 C389.42948351 -0.02554972 398.34204429 -0.02650573 407.25460506 -0.02749758 C432.16725456 -0.03024829 457.07990408 -0.03196032 481.99255371 -0.03285599 C483.69409748 -0.03291739 483.69409748 -0.03291739 485.43001587 -0.03298004 C521.56330976 -0.03420745 557.69660173 -0.03082937 593.82989502 -0.02430725 C595.58722787 -0.02399113 595.58722787 -0.02399113 597.38006239 -0.02366862 C616.40408155 -0.02023398 635.42810066 -0.0165755 654.45211977 -0.0128981 C729.89857632 0.00167035 805.3450169 0.00099415 880.79147339 -0.01358986 C899.80600991 -0.01725358 918.82054644 -0.02088679 937.83508301 -0.02430725 C939.00595582 -0.0245186 940.17682864 -0.02472994 941.38318245 -0.02494769 C977.47959666 -0.03141845 1013.57600954 -0.03415865 1049.67242432 -0.03285599 C1050.80594863 -0.03281523 1051.93947294 -0.03277448 1053.10734648 -0.03273249 C1077.99254757 -0.03179496 1102.87774852 -0.02989386 1127.76294947 -0.02712448 C1136.66743272 -0.0261371 1145.57191598 -0.02519785 1154.47639923 -0.02427235 C1156.69150231 -0.02404018 1158.90660539 -0.02380399 1161.12170846 -0.02356376 C1194.19911311 -0.01998631 1227.27651151 -0.02302583 1260.35391537 -0.03060985 C1261.97891815 -0.03098243 1261.97891815 -0.03098243 1263.63674927 -0.03136253 C1265.25874025 -0.0317346 1265.25874025 -0.0317346 1266.91349872 -0.03211419 C1303.42182141 -0.0403973 1339.93012803 -0.03732789 1376.43844843 -0.0215203 C1380.36303105 -0.01986332 1384.28761369 -0.0182532 1388.21219635 -0.01667976 C1389.65688676 -0.01609383 1389.65688676 -0.01609383 1391.13076283 -0.01549607 C1406.34854185 -0.00959112 1421.56630079 -0.01368555 1436.78407799 -0.02198678 C1451.76663828 -0.02994491 1466.7491649 -0.0270965 1481.73172095 -0.01294452 C1490.50196211 -0.00497526 1499.27211068 -0.00504109 1508.04234729 -0.01738931 C1513.88542425 -0.02478335 1519.72842993 -0.0210777 1525.57149838 -0.00878875 C1528.87183978 -0.00214449 1532.1718513 -0.00149621 1535.47220597 -0.0112383 C1558.25520795 -0.07366618 1580.90747026 1.51193689 1603.26998901 6.06502342 C1604.54309937 6.31921043 1605.81620972 6.57339745 1607.12789917 6.83528709 C1673.45690995 20.35693323 1735.35761173 51.57880626 1784.94577026 97.71346092 C1787.45295381 100.02726225 1790.00603295 102.26700543 1792.58248901 104.50252342 C1803.63880619 114.43356114 1813.68014503 125.68473101 1822.83248901 137.37752342 C1823.68560854 138.43956334 1824.53983558 139.50071427 1825.39498901 140.56111717 C1841.9408221 161.18173689 1856.65711798 183.44005206 1867.90231323 207.41121483 C1868.9096284 209.5405892 1869.94930724 211.65229815 1870.99264526 213.76424217 C1884.00890053 240.31920058 1892.93364602 268.14847059 1899.20748901 297.00252342 C1899.43396118 298.0417495 1899.66043335 299.08097557 1899.89376831 300.15169334 C1903.4134858 317.16299985 1905.30968954 333.96786494 1905.30123901 351.33455467 C1905.30838322 353.1784442 1905.31608793 355.02233163 1905.3243103 356.86621666 C1905.33761574 360.70232394 1905.33938992 364.538226 1905.33346558 368.37434959 C1905.32877226 372.23209028 1905.3425107 376.0890054 1905.3744812 379.94661522 C1905.64434955 412.8998627 1902.53410722 443.44832842 1893.83248901 475.37752342 C1893.57773804 476.31789452 1893.32298706 477.25826561 1893.06051636 478.2271328 C1879.09613781 528.83158924 1853.7312401 574.73397359 1820.83248901 615.37752342 C1820.39469116 615.92263573 1819.95689331 616.46774803 1819.50582886 617.02937889 C1811.68314629 626.67803034 1802.96077236 635.458463 1794.20748901 644.25252342 C1793.63071411 644.83456535 1793.05393921 645.41660728 1792.45968628 646.01628685 C1785.24088523 653.28596604 1777.89016339 660.03529067 1769.83248901 666.37752342 C1768.61243586 667.37826189 1767.39464691 668.38177359 1766.18014526 669.38924217 C1748.84728822 683.58082742 1730.34746065 695.41889363 1710.83248901 706.37752342 C1710.13349487 706.7766494 1709.43450073 707.17577538 1708.71432495 707.58699608 C1656.85694462 737.16723063 1595.48445512 751.11772245 1536.1312809 750.87809467 C1533.37743091 750.87975192 1530.62360438 750.88744616 1527.86976451 750.89480427 C1521.92621645 750.9075585 1515.98281773 750.9058609 1510.03926964 750.89409249 C1501.14168654 750.87655238 1492.24421813 750.88253622 1483.34662896 750.89270699 C1468.17362363 750.90938231 1453.00067418 750.90730654 1437.82766724 750.89472008 C1422.46976095 750.88205074 1407.1118892 750.87817376 1391.75397873 750.88483429 C1390.78091582 750.8852505 1389.80785291 750.88566671 1388.80530325 750.88609553 C1384.84163436 750.88782041 1380.87796552 750.88960829 1376.9142967 750.89147572 C1340.06815743 750.90882987 1303.22204363 750.90671132 1266.37590408 750.89213943 C1230.87657004 750.87811844 1195.37724751 750.87109858 1159.87791061 750.87384796 C1157.64596808 750.87401084 1155.41402555 750.87417288 1153.18208302 750.87433407 C1144.212293 750.87499241 1135.24250298 750.87569617 1126.27271297 750.87645941 C1101.20096543 750.87857073 1076.12921795 750.87932356 1051.05747032 750.87904263 C1049.91590232 750.87903025 1048.77433433 750.87901787 1047.59817336 750.87900511 C1011.23935987 750.87851594 974.88054994 750.87209528 938.52173805 750.86148548 C937.34298161 750.86114204 936.16422517 750.86079861 934.94974883 750.86044476 C915.80894246 750.85484651 896.66813618 750.8489121 877.52732991 750.8429557 C801.60316498 750.81935071 725.67902014 750.81316307 649.75485229 750.82356834 C644.95592358 750.82422155 640.15699487 750.82487287 635.35806616 750.82552385 C634.17153715 750.82568488 632.98500814 750.82584592 631.7625237 750.82601183 C618.62154202 750.82779138 605.48056033 750.82951352 592.33957863 750.83116627 C591.16108693 750.83131563 589.98259524 750.831465 588.76839168 750.83161889 C526.24854547 750.83947986 463.72870103 750.83386635 401.20885545 750.82305297 C392.24910272 750.82150382 383.28934998 750.81999045 374.32959724 750.81847815 C370.98814528 750.81790992 367.64669332 750.81732843 364.30524136 750.81674642 C339.87987652 750.81254717 315.45451368 750.81034598 291.02914858 750.8134315 C289.37943998 750.81363942 289.37943998 750.81363942 287.69640393 750.81385153 C282.15941954 750.8145619 276.62243515 750.8153081 271.08545076 750.81606889 C231.04555457 750.82156133 191.00567954 750.81741586 150.96578796 750.79608034 C147.0180563 750.79401813 143.07032463 750.79200138 139.12259293 750.79001999 C138.15377915 750.78952904 137.18496538 750.7890381 136.18679362 750.78853227 C120.87032733 750.78103469 105.55387987 750.78352421 90.23741389 750.79019383 C75.16312673 750.79654143 60.0888742 750.79209899 45.01459364 750.77631553 C36.18721582 750.76738658 27.35992885 750.76651139 18.53255328 750.77785673 C12.65548632 750.78457999 6.77849147 750.78025927 0.90143518 750.76730524 C-2.42068295 750.76028032 -5.74247359 750.75930417 -9.06460709 750.76863714 C-30.92068168 750.82546691 -52.22319989 748.91373255 -73.66751099 744.62752342 C-74.30806427 744.50091331 -74.94861755 744.37430321 -75.60858154 744.24385643 C-133.29777005 732.77923843 -189.9168638 707.2785432 -235.16751099 669.37752342 C-235.91677856 668.75345604 -235.91677856 668.75345604 -236.68118286 668.11678123 C-247.98352619 658.69363905 -258.81782743 648.90745111 -269.23001099 638.50252342 C-270.62316528 637.12773827 -270.62316528 637.12773827 -272.04446411 635.72517967 C-278.19440045 629.58819056 -283.75467797 623.16715415 -289.16751099 616.37752342 C-290.04252129 615.33816207 -290.92263079 614.30302584 -291.81204224 613.27596092 C-298.8745396 605.0554685 -305.10631076 596.35286803 -311.16751099 587.37752342 C-311.71423462 586.57089256 -312.26095825 585.7642617 -312.82424927 584.93318748 C-342.70127231 540.46706657 -361.8431758 489.86054857 -370.91751099 437.19002342 C-371.11659058 436.03969627 -371.31567017 434.88936913 -371.52078247 433.70418358 C-374.59107731 414.83419629 -375.54996819 395.97392423 -375.48001099 376.87752342 C-375.47818817 375.83536674 -375.47636536 374.79321007 -375.4744873 373.71947289 C-375.31964102 320.86140817 -364.46121624 268.43167932 -342.16751099 220.37752342 C-341.70586548 219.37350487 -341.24421997 218.36948631 -340.76858521 217.33504295 C-328.63734733 191.07537562 -313.87296206 167.24156717 -296.16751099 144.37752342 C-295.47141724 143.4777578 -294.77532349 142.57799217 -294.05813599 141.65096092 C-292.12566595 139.19943901 -290.15363361 136.78574421 -288.16751099 134.37752342 C-287.41598755 133.44037498 -286.66446411 132.50322655 -285.89016724 131.53767967 C-278.96239086 123.06570471 -271.3187693 115.31310229 -263.60501099 107.56502342 C-263.07457184 107.02940788 -262.54413269 106.49379234 -261.99761963 105.94194603 C-255.78228273 99.67888463 -249.45935644 93.78864373 -242.55056763 88.27913475 C-240.62659709 86.74386106 -238.75811647 85.18208085 -236.91751099 83.54939842 C-228.6252095 76.24651927 -219.73658382 70.04157983 -210.53128052 63.94441795 C-208.32811436 62.48398411 -206.13592201 61.00835856 -203.94485474 59.52986717 C-143.62093001 19.22032492 -72.16847056 -0.21302924 0 0 Z " fill="#1879BF" transform="translate(485.1675109863281,874.6224765777588)"/>
<path d="M0 0 C32.36578135 -0.0915009 64.73152549 -0.16216736 97.09740622 -0.20426132 C100.92952102 -0.20926338 104.76163557 -0.21444075 108.59375 -0.21972656 C109.35656717 -0.2207758 110.11938433 -0.22182505 110.90531717 -0.22290608 C123.21246104 -0.24025114 135.5195292 -0.27175579 147.82662834 -0.30861118 C160.48060871 -0.34618573 173.13454978 -0.3682705 185.78858364 -0.37635398 C193.57960446 -0.38180777 201.3704112 -0.39895146 209.16136603 -0.43166587 C215.16310614 -0.45556401 221.16466706 -0.45777871 227.16646004 -0.45243073 C229.60831954 -0.4535204 232.05018806 -0.4613309 234.49199867 -0.4768219 C268.13990236 -0.67959931 299.51053305 6.29283456 326 28 C326.86238281 28.69738281 327.72476563 29.39476562 328.61328125 30.11328125 C350.20655072 48.48267223 362.92241373 77.24743529 366 105 C366.2631032 110.17065255 366.28053916 115.3236122 366.25 120.5 C366.25773437 121.81097656 366.26546875 123.12195312 366.2734375 124.47265625 C366.2493232 136.61420863 364.62889917 147.93088105 361.1875 159.5625 C360.92179199 160.47016113 360.65608398 161.37782227 360.38232422 162.31298828 C358.35620046 169.09219712 356.08911801 175.62274517 353 182 C352.13955078 183.78083984 352.13955078 183.78083984 351.26171875 185.59765625 C340.89660817 206.32256878 325.94319165 220.41597591 306 232 C306.845625 232.76183594 307.69125 233.52367187 308.5625 234.30859375 C326.83161606 250.87813168 339.09698238 268.54712362 345.875 292.375 C346.07834961 293.0875293 346.28169922 293.80005859 346.49121094 294.53417969 C351.79276884 314.42650701 351.18370363 338.42776725 345 358 C344.75330566 358.80727539 344.50661133 359.61455078 344.25244141 360.44628906 C337.49333413 382.21318703 326.7913818 400.52559995 311 417 C310.25492188 417.80824219 309.50984375 418.61648438 308.7421875 419.44921875 C286.02176803 443.3319039 252.79587453 457.43197337 221 464 C220.31566895 464.14179687 219.63133789 464.28359375 218.92626953 464.4296875 C198.13186583 468.63518579 177.37826468 469.29863886 156.21424091 469.23213124 C152.69515049 469.22334903 149.17606549 469.22642713 145.65696716 469.22793579 C139.58570761 469.22897548 133.51449163 469.22279594 127.44324303 469.21146011 C118.66565873 469.19508203 109.88809513 469.18998465 101.11049721 469.18748413 C86.86328508 469.18312614 72.61609608 469.16986898 58.36889648 469.15087891 C44.54370233 469.13247069 30.71851451 469.11833849 16.89331055 469.10986328 C16.03857301 469.10933783 15.18383548 469.10881239 14.30319681 469.10827102 C10.01446765 469.10566061 5.72573845 469.10313327 1.43700922 469.10064721 C-34.04201033 469.07997385 -69.52100302 469.04480058 -105 469 C-104.68619189 467.4185648 -104.37168926 465.83726741 -104.05690002 464.25602722 C-103.88183709 463.37542727 -103.70677416 462.49482733 -103.52640629 461.58754253 C-102.79615368 457.99799636 -101.98391392 454.43047844 -101.15234375 450.86328125 C-100.97992661 450.11810242 -100.80750946 449.37292358 -100.62986755 448.60516357 C-100.25974 447.00632791 -99.88894043 445.40764769 -99.51751709 443.80911255 C-98.92312053 441.25060532 -98.33071489 438.69164376 -97.73876953 436.13256836 C-96.09979405 429.04920677 -94.4569561 421.96674332 -92.81201172 414.88476562 C-91.66459948 409.94441328 -90.51902577 405.00363761 -89.375 400.0625 C-89.18711914 399.2514682 -88.99923828 398.4404364 -88.80566406 397.60482788 C-86.11494831 385.97781557 -83.53010543 374.33168378 -81.01507568 362.66555786 C-78.68477757 351.87945725 -76.13222508 341.16084493 -73.49450684 330.44674683 C-70.57884508 318.59051202 -67.89815138 306.69340789 -65.34570312 294.75390625 C-60.81399609 273.62799217 -60.81399609 273.62799217 -59 270 C-93.98 270 -128.96 270 -165 270 C-165 264.26091613 -164.84257843 260.27453295 -163.6796875 254.87109375 C-163.4710331 253.88240044 -163.4710331 253.88240044 -163.25816345 252.87373352 C-162.959285 251.46103065 -162.65688292 250.04906934 -162.35122681 248.63781738 C-161.53126099 244.84931785 -160.7387166 241.0550381 -159.94140625 237.26171875 C-159.69625526 236.10103378 -159.69625526 236.10103378 -159.44615173 234.91690063 C-157.82203024 227.20973246 -156.3025584 219.48406651 -154.8125 211.75 C-154.56781982 210.48325439 -154.32313965 209.21650879 -154.07104492 207.91137695 C-152.37253964 199.06497124 -150.73932232 190.20739242 -149.2043457 181.33105469 C-148.10710531 175.10710531 -148.10710531 175.10710531 -147 174 C-145.57053529 173.90445601 -144.13637335 173.87811562 -142.70372009 173.87974548 C-141.77678848 173.87837082 -140.84985687 173.87699615 -139.89483643 173.87557983 C-138.35735748 173.88097275 -138.35735748 173.88097275 -136.78881836 173.88647461 C-135.71577957 173.88632858 -134.64274078 173.88618256 -133.53718567 173.8860321 C-129.97138484 173.88673176 -126.40563551 173.89452662 -122.83984375 173.90234375 C-120.37504607 173.90420774 -117.91024801 173.90563173 -115.44544983 173.90663147 C-108.94346095 173.91045813 -102.44149425 173.92028968 -95.93951416 173.93133545 C-89.31059183 173.94208252 -82.68166307 173.94612841 -76.05273438 173.95117188 C-63.03514676 173.96191181 -50.01757456 173.97879903 -37 174 C-36.8685408 173.05422592 -36.7370816 172.10845184 -36.60163879 171.13401794 C-36.42605942 169.88508255 -36.25048004 168.63614716 -36.06958008 167.34936523 C-35.89687088 166.11484116 -35.72416168 164.88031708 -35.54621887 163.60838318 C-34.80419548 158.70649334 -33.78545824 153.89491491 -32.6875 149.0625 C-32.24335171 147.06383272 -31.79934536 145.06513389 -31.35546875 143.06640625 C-31.01781494 141.55844482 -31.01781494 141.55844482 -30.67333984 140.02001953 C-29.59520237 135.18442834 -28.54872864 130.34203766 -27.5 125.5 C-27.08349563 123.58329806 -26.66682871 121.66663143 -26.25 119.75 C-26.04375 118.80125 -25.8375 117.8525 -25.625 116.875 C-23.33333333 106.33333333 -21.04166667 95.79166667 -18.75 85.25 C-18.4411084 83.82892944 -18.4411084 83.82892944 -18.12597656 82.37915039 C-17.70624361 80.448608 -17.28631957 78.51810715 -16.86621094 76.58764648 C-15.86994313 72.00858714 -14.87616973 67.42903632 -13.890625 62.84765625 C-10.69883989 48.04208808 -7.37292668 33.26737536 -4.03417969 18.49438477 C-3.84166626 17.64168503 -3.64915283 16.78898529 -3.45080566 15.91044617 C-3.08701737 14.29941062 -2.7227082 12.68849257 -2.35778809 11.07771301 C-1.52586702 7.39304275 -0.73235777 3.7056141 0 0 Z " fill="#FEFEFE" transform="translate(1804,1011)"/>
<path d="M0 0 C3.55852508 0.01066806 7.11653957 0.00008298 10.67504883 -0.01269531 C27.79552684 -0.02363948 44.72398504 0.78507479 61.58325195 3.94824219 C62.47713623 4.11485352 63.37102051 4.28146484 64.29199219 4.453125 C102.77262305 11.98129465 139.19536615 27.33183395 168.89575195 53.26074219 C169.40702637 53.70498535 169.91830078 54.14922852 170.44506836 54.60693359 C196.20290016 77.1479362 214.41100795 107.25519011 222.58325195 140.51074219 C222.77387207 141.28289062 222.96449219 142.05503906 223.16088867 142.85058594 C226.92712836 159.19179011 228.39489169 175.27391007 228.20825195 192.01074219 C228.20198792 192.92749725 228.19572388 193.84425232 228.18927002 194.78878784 C228.0182715 219.32760814 225.37023408 242.70444857 220.59350586 266.74853516 C220.18943521 268.78246111 219.79044816 270.81743779 219.4050293 272.85498047 C210.37968843 320.42627533 186.79361787 367.40242268 154.03637695 402.92871094 C151.12373981 406.10178462 148.32618556 409.37227628 145.5246582 412.64355469 C143.89575195 414.26074219 143.89575195 414.26074219 141.89575195 414.26074219 C141.89575195 414.92074219 141.89575195 415.58074219 141.89575195 416.26074219 C140.6027832 417.60058594 140.6027832 417.60058594 138.70825195 419.19824219 C136.1805187 421.33101712 133.66899225 423.46443041 131.20825195 425.67480469 C117.08956252 438.24445868 100.72598889 448.6921074 83.89575195 457.26074219 C83.20384766 457.61410645 82.51194336 457.9674707 81.79907227 458.33154297 C41.8526714 478.32266462 -2.32193459 485.86939937 -46.69360352 485.70678711 C-50.23601622 485.69822583 -53.77683413 485.72730558 -57.3190918 485.75878906 C-79.55040325 485.82647788 -100.81710757 482.62843448 -122.10424805 476.26074219 C-123.35850586 475.89335938 -124.61276367 475.52597656 -125.9050293 475.14746094 C-173.45216579 460.28578884 -215.31300036 427.45427412 -238.9519043 383.42871094 C-250.66756152 360.99256917 -257.95642218 337.37298041 -261.10424805 312.26074219 C-261.20592285 311.47425293 -261.30759766 310.68776367 -261.41235352 309.87744141 C-262.28137865 302.35673368 -262.34762972 294.82436236 -262.35424805 287.26074219 C-262.35492279 286.56099274 -262.35559753 285.86124329 -262.35629272 285.14028931 C-262.24731039 213.25982006 -235.7512324 140.18282708 -188.10424805 86.26074219 C-187.33467773 85.3803125 -186.56510742 84.49988281 -185.7722168 83.59277344 C-178.06075938 74.88193275 -170.03251666 66.77530359 -160.9206543 59.52636719 C-159.06410548 58.03288825 -157.23709217 56.50182162 -155.4440918 54.93261719 C-126.72277384 29.88730476 -89.9900358 13.67104333 -53.10424805 5.26074219 C-52.37206055 5.09348633 -51.63987305 4.92623047 -50.88549805 4.75390625 C-46.64261011 3.80537601 -42.38571594 3.0123783 -38.10424805 2.26074219 C-37.10546631 2.07898438 -36.10668457 1.89722656 -35.07763672 1.70996094 C-23.42170918 -0.12929406 -11.77740507 -0.04191534 0 0 Z " fill="#FEFEFE" transform="translate(559.104248046875,1002.7392578125)"/>
<path d="M0 0 C1.95462158 0.2952356 1.95462158 0.2952356 3.94873047 0.59643555 C25.11044 3.98257813 45.58421281 10.27239959 64.375 20.625 C65.83486328 21.40423828 65.83486328 21.40423828 67.32421875 22.19921875 C84.9192205 32.39661392 96.68973828 49.29951733 102.375 68.625 C104.41619879 76.87282098 104.71702864 85.0513366 104.69067383 93.51025391 C104.68754559 95.59462486 104.71094719 97.67752524 104.73632812 99.76171875 C104.82328996 117.23117158 100.99852883 134.16424022 97.46826172 151.19799805 C96.87066969 154.08340845 96.28057874 156.97028174 95.69140625 159.85742188 C93.95295478 168.33098752 92.15937758 176.76214878 89.9921875 185.13842773 C89.02373047 189.0402216 88.32690368 192.98072204 87.625 196.9375 C85.95153817 206.05685068 83.95038809 215.090404 81.875 224.125 C79.8912256 232.76571894 77.9599782 241.40060674 76.375 250.125 C74.91444463 258.16451715 73.16692437 266.12610529 71.34133911 274.08963013 C62.38934197 307.07874506 62.38934197 307.07874506 68.375 339.625 C69.035 341.275 69.695 342.925 70.375 344.625 C23.185 344.625 -24.005 344.625 -72.625 344.625 C-74.11 338.19 -74.11 338.19 -75.625 331.625 C-77.36910156 332.49511719 -77.36910156 332.49511719 -79.1484375 333.3828125 C-104.75996324 345.96187693 -131.29348863 353.04810502 -159.94116211 352.88574219 C-162.18956336 352.87499013 -164.43716903 352.88573066 -166.68554688 352.8984375 C-203.09469179 352.93677785 -239.01047392 340.53880929 -265.5 315.125 C-283.41520409 296.39249646 -289.18686251 273.51779064 -288.90625 248.32421875 C-288.09860254 220.16559006 -276.62962818 195.89843768 -256.609375 176.29296875 C-251.71636727 171.78821761 -246.22068052 168.18960526 -240.625 164.625 C-239.76261719 164.04363281 -238.90023438 163.46226562 -238.01171875 162.86328125 C-203.79929184 141.11938326 -159.2396923 135.92228256 -119.87304688 130.89892578 C-107.33060007 129.29218394 -94.83281118 127.50512385 -82.35549927 125.44970703 C-80.56459534 125.15474922 -78.77316412 124.86297156 -76.98117065 124.57470703 C-54.3296222 121.32018013 -54.3296222 121.32018013 -35.93359375 108.7109375 C-32.69347682 104.07692411 -31.25575575 99.29398523 -31.625 93.625 C-33.57563159 88.74842103 -36.90820386 85.82675859 -41.69140625 83.7109375 C-54.70872486 79.35145991 -71.18123977 79.93210564 -83.625 85.625 C-94.55745389 91.26986181 -100.78939402 98.37994619 -106.36328125 109.20703125 C-107.625 111.625 -107.625 111.625 -109.625 114.625 C-112.19743361 114.92086318 -114.53019372 115.01896245 -117.10505676 114.99008179 C-118.27604991 114.99476028 -118.27604991 114.99476028 -119.47069949 114.9995333 C-122.10150676 115.0065087 -124.73177614 114.99211235 -127.36254883 114.97802734 C-129.24320584 114.9788577 -131.12386267 114.98107252 -133.0045166 114.98457336 C-137.06370467 114.98953453 -141.12274857 114.98540156 -145.18192482 114.97455978 C-151.60846049 114.95822845 -158.03481441 114.96665261 -164.46134949 114.97940063 C-181.58857091 115.00955371 -198.71576084 115.00811389 -215.84299535 114.98914778 C-227.08201648 114.97679041 -238.32083226 114.97875103 -249.55982989 115.00753558 C-255.93897105 115.02272601 -262.31755369 115.01534828 -268.69665968 114.99082541 C-272.68310296 114.98070209 -276.66929445 114.99150538 -280.65570831 115.00794029 C-282.49340699 115.01137128 -284.33114545 115.00638382 -286.16879082 114.99197197 C-305.6082135 114.84906352 -319.83184936 120.7559704 -334.21484375 134.25 C-349.79064373 149.5986003 -356.15107697 165.43376655 -360.0625 186.5625 C-360.3663653 188.1658966 -360.67089935 189.76916659 -360.97607422 191.37231445 C-363.0185044 202.15191989 -364.95482736 212.95021879 -366.85571289 223.75561523 C-368.32665882 232.08055605 -369.93506214 240.3705729 -371.61425781 248.65576172 C-373.45534025 257.74098037 -375.23469269 266.83732503 -377 275.9375 C-377.29636962 277.46370775 -377.59275641 278.98991216 -377.88916016 280.51611328 C-379.27854638 287.6727898 -380.66495089 294.83003986 -382.04885864 301.98777771 C-382.67336617 305.21655511 -383.29892423 308.44512853 -383.92462158 311.67367554 C-384.36014686 313.92327957 -384.79411527 316.17318006 -385.22802734 318.4230957 C-385.50089368 319.83155903 -385.77383904 321.24000705 -386.046875 322.6484375 C-386.27987305 323.85419434 -386.51287109 325.05995117 -386.75292969 326.30224609 C-387.98741276 332.42143906 -389.31702029 338.52109468 -390.625 344.625 C-437.485 344.625 -484.345 344.625 -532.625 344.625 C-530.37556689 333.37783447 -530.37556689 333.37783447 -529.14453125 327.95703125 C-528.87125 326.75046875 -528.59796875 325.54390625 -528.31640625 324.30078125 C-528.02636719 323.02589844 -527.73632812 321.75101563 -527.4375 320.4375 C-527.12747061 319.07034278 -526.81757766 317.70315461 -526.5078125 316.3359375 C-525.86592217 313.50329857 -525.22345269 310.67079195 -524.58056641 307.83837891 C-522.7962883 299.97450562 -521.02352869 292.10802643 -519.24902344 284.24194336 C-517.80780287 277.85544454 -516.36313748 271.46977175 -514.91015625 265.0859375 C-511.70716619 250.99132573 -508.59283233 236.88255611 -505.5625 222.75 C-503.10754946 211.30164748 -500.55048436 199.89146649 -497.77099609 188.51660156 C-495.43617991 178.93989788 -493.30896973 169.32114703 -491.1875 159.6953125 C-489.5462811 152.24942724 -487.86953471 144.81175656 -486.1875 137.375 C-485.89125078 136.06380779 -485.59502691 134.75260985 -485.29882812 133.44140625 C-483.83945108 126.98327332 -482.37555465 120.5261956 -480.90625 114.0703125 C-477.52463402 99.18696794 -474.24989431 84.28583239 -471.05065918 69.36242676 C-468.77362998 58.75650888 -466.41222378 48.18020443 -463.79077148 37.65283203 C-461.16178032 27.01967019 -458.95615295 16.34830359 -456.625 5.625 C-419.335 5.625 -382.045 5.625 -343.625 5.625 C-338.625 27.625 -338.625 27.625 -336.625 36.625 C-333.37972407 36.625 -331.66040067 33.96383341 -329.4375 31.8125 C-317.75198749 20.86657689 -305.02953569 12.56852686 -290.625 5.625 C-289.74585938 5.19445313 -288.86671875 4.76390625 -287.9609375 4.3203125 C-267.45656751 -4.76925358 -246.55248891 -4.15918596 -225.625 2.625 C-224.50867187 2.98207031 -223.39234375 3.33914063 -222.2421875 3.70703125 C-217.36981206 5.44914839 -217.36981206 5.44914839 -215.625 6.625 C-214.19595346 10.17705815 -214.9590575 12.49087407 -216.140625 16.04296875 C-216.51509766 17.19458496 -216.88957031 18.34620117 -217.27539062 19.53271484 C-217.59648804 20.5018985 -217.59648804 20.5018985 -217.92407227 21.49066162 C-218.97951733 24.70451208 -219.99069275 27.93206374 -221.00695801 31.15847778 C-222.45521612 35.75394409 -223.9163679 40.34531826 -225.375 44.9375 C-225.98312498 46.8534991 -226.59119828 48.76951461 -227.19921875 50.68554688 C-228.67388404 55.33222038 -230.14924639 59.97867203 -231.625 64.625 C-231.01470947 63.85768555 -230.40441895 63.09037109 -229.77563477 62.29980469 C-199.59290944 24.76070392 -151.57507643 8.81772154 -105.625 0.625 C-104.85124023 0.48465332 -104.07748047 0.34430664 -103.28027344 0.19970703 C-68.70372992 -5.98039517 -34.6304888 -5.29977717 0 0 Z " fill="#FEFEFE" transform="translate(1286.625,1135.375)"/>
<path d="M0 0 C2.73238675 -0.00147134 5.4647598 -0.00746644 8.19714046 -0.0132131 C14.10294568 -0.02328229 20.00866744 -0.02247766 25.91447425 -0.01416247 C34.7556649 -0.00177111 43.59678919 -0.00695932 52.43798154 -0.01531039 C67.51385212 -0.02904676 82.58969222 -0.02869158 97.66556549 -0.02046776 C112.92797716 -0.01219308 128.1903688 -0.01048971 143.45278168 -0.01667976 C144.90264565 -0.01726104 144.90264565 -0.01726104 146.38179981 -0.01785406 C150.31897856 -0.019454 154.2561573 -0.02110014 158.19333601 -0.02280489 C194.80497075 -0.03864595 231.41659208 -0.03976092 268.02822876 -0.03136253 C269.11156395 -0.03111415 270.19489913 -0.03086576 271.31106266 -0.03060985 C272.39614521 -0.03036106 273.48122776 -0.03011227 274.59919161 -0.02985594 C307.68739604 -0.02227953 340.77559493 -0.0203354 373.86380005 -0.02392387 C376.08150761 -0.02415631 378.29921517 -0.02438778 380.51692273 -0.02461828 C389.42948351 -0.02554972 398.34204429 -0.02650573 407.25460506 -0.02749758 C432.16725456 -0.03024829 457.07990408 -0.03196032 481.99255371 -0.03285599 C483.69409748 -0.03291739 483.69409748 -0.03291739 485.43001587 -0.03298004 C521.56330976 -0.03420745 557.69660173 -0.03082937 593.82989502 -0.02430725 C595.58722787 -0.02399113 595.58722787 -0.02399113 597.38006239 -0.02366862 C616.40408155 -0.02023398 635.42810066 -0.0165755 654.45211977 -0.0128981 C729.89857632 0.00167035 805.3450169 0.00099415 880.79147339 -0.01358986 C899.80600991 -0.01725358 918.82054644 -0.02088679 937.83508301 -0.02430725 C939.00595582 -0.0245186 940.17682864 -0.02472994 941.38318245 -0.02494769 C977.47959666 -0.03141845 1013.57600954 -0.03415865 1049.67242432 -0.03285599 C1050.80594863 -0.03281523 1051.93947294 -0.03277448 1053.10734648 -0.03273249 C1077.99254757 -0.03179496 1102.87774852 -0.02989386 1127.76294947 -0.02712448 C1136.66743272 -0.0261371 1145.57191598 -0.02519785 1154.47639923 -0.02427235 C1156.69150231 -0.02404018 1158.90660539 -0.02380399 1161.12170846 -0.02356376 C1194.19911311 -0.01998631 1227.27651151 -0.02302583 1260.35391537 -0.03060985 C1261.97891815 -0.03098243 1261.97891815 -0.03098243 1263.63674927 -0.03136253 C1265.25874025 -0.0317346 1265.25874025 -0.0317346 1266.91349872 -0.03211419 C1303.42182141 -0.0403973 1339.93012803 -0.03732789 1376.43844843 -0.0215203 C1380.36303105 -0.01986332 1384.28761369 -0.0182532 1388.21219635 -0.01667976 C1389.65688676 -0.01609383 1389.65688676 -0.01609383 1391.13076283 -0.01549607 C1406.34854185 -0.00959112 1421.56630079 -0.01368555 1436.78407799 -0.02198678 C1451.76663828 -0.02994491 1466.7491649 -0.0270965 1481.73172095 -0.01294452 C1490.50196211 -0.00497526 1499.27211068 -0.00504109 1508.04234729 -0.01738931 C1513.88542425 -0.02478335 1519.72842993 -0.0210777 1525.57149838 -0.00878875 C1528.87183978 -0.00214449 1532.1718513 -0.00149621 1535.47220597 -0.0112383 C1558.25520795 -0.07366618 1580.90747026 1.51193689 1603.26998901 6.06502342 C1604.54309937 6.31921043 1605.81620972 6.57339745 1607.12789917 6.83528709 C1673.45690995 20.35693323 1735.35761173 51.57880626 1784.94577026 97.71346092 C1787.45295381 100.02726225 1790.00603295 102.26700543 1792.58248901 104.50252342 C1803.63880619 114.43356114 1813.68014503 125.68473101 1822.83248901 137.37752342 C1823.68560854 138.43956334 1824.53983558 139.50071427 1825.39498901 140.56111717 C1841.9408221 161.18173689 1856.65711798 183.44005206 1867.90231323 207.41121483 C1868.9096284 209.5405892 1869.94930724 211.65229815 1870.99264526 213.76424217 C1884.00890053 240.31920058 1892.93364602 268.14847059 1899.20748901 297.00252342 C1899.43396118 298.0417495 1899.66043335 299.08097557 1899.89376831 300.15169334 C1903.4134858 317.16299985 1905.30968954 333.96786494 1905.30123901 351.33455467 C1905.30838322 353.1784442 1905.31608793 355.02233163 1905.3243103 356.86621666 C1905.33761574 360.70232394 1905.33938992 364.538226 1905.33346558 368.37434959 C1905.32877226 372.23209028 1905.3425107 376.0890054 1905.3744812 379.94661522 C1905.64434955 412.8998627 1902.53410722 443.44832842 1893.83248901 475.37752342 C1893.57773804 476.31789452 1893.32298706 477.25826561 1893.06051636 478.2271328 C1879.09613781 528.83158924 1853.7312401 574.73397359 1820.83248901 615.37752342 C1820.39469116 615.92263573 1819.95689331 616.46774803 1819.50582886 617.02937889 C1811.68314629 626.67803034 1802.96077236 635.458463 1794.20748901 644.25252342 C1793.63071411 644.83456535 1793.05393921 645.41660728 1792.45968628 646.01628685 C1785.24088523 653.28596604 1777.89016339 660.03529067 1769.83248901 666.37752342 C1768.61243586 667.37826189 1767.39464691 668.38177359 1766.18014526 669.38924217 C1748.84728822 683.58082742 1730.34746065 695.41889363 1710.83248901 706.37752342 C1710.13349487 706.7766494 1709.43450073 707.17577538 1708.71432495 707.58699608 C1656.85694462 737.16723063 1595.48445512 751.11772245 1536.1312809 750.87809467 C1533.37743091 750.87975192 1530.62360438 750.88744616 1527.86976451 750.89480427 C1521.92621645 750.9075585 1515.98281773 750.9058609 1510.03926964 750.89409249 C1501.14168654 750.87655238 1492.24421813 750.88253622 1483.34662896 750.89270699 C1468.17362363 750.90938231 1453.00067418 750.90730654 1437.82766724 750.89472008 C1422.46976095 750.88205074 1407.1118892 750.87817376 1391.75397873 750.88483429 C1390.78091582 750.8852505 1389.80785291 750.88566671 1388.80530325 750.88609553 C1384.84163436 750.88782041 1380.87796552 750.88960829 1376.9142967 750.89147572 C1340.06815743 750.90882987 1303.22204363 750.90671132 1266.37590408 750.89213943 C1230.87657004 750.87811844 1195.37724751 750.87109858 1159.87791061 750.87384796 C1157.64596808 750.87401084 1155.41402555 750.87417288 1153.18208302 750.87433407 C1144.212293 750.87499241 1135.24250298 750.87569617 1126.27271297 750.87645941 C1101.20096543 750.87857073 1076.12921795 750.87932356 1051.05747032 750.87904263 C1049.91590232 750.87903025 1048.77433433 750.87901787 1047.59817336 750.87900511 C1011.23935987 750.87851594 974.88054994 750.87209528 938.52173805 750.86148548 C937.34298161 750.86114204 936.16422517 750.86079861 934.94974883 750.86044476 C915.80894246 750.85484651 896.66813618 750.8489121 877.52732991 750.8429557 C801.60316498 750.81935071 725.67902014 750.81316307 649.75485229 750.82356834 C644.95592358 750.82422155 640.15699487 750.82487287 635.35806616 750.82552385 C634.17153715 750.82568488 632.98500814 750.82584592 631.7625237 750.82601183 C618.62154202 750.82779138 605.48056033 750.82951352 592.33957863 750.83116627 C591.16108693 750.83131563 589.98259524 750.831465 588.76839168 750.83161889 C526.24854547 750.83947986 463.72870103 750.83386635 401.20885545 750.82305297 C392.24910272 750.82150382 383.28934998 750.81999045 374.32959724 750.81847815 C370.98814528 750.81790992 367.64669332 750.81732843 364.30524136 750.81674642 C339.87987652 750.81254717 315.45451368 750.81034598 291.02914858 750.8134315 C289.37943998 750.81363942 289.37943998 750.81363942 287.69640393 750.81385153 C282.15941954 750.8145619 276.62243515 750.8153081 271.08545076 750.81606889 C231.04555457 750.82156133 191.00567954 750.81741586 150.96578796 750.79608034 C147.0180563 750.79401813 143.07032463 750.79200138 139.12259293 750.79001999 C138.15377915 750.78952904 137.18496538 750.7890381 136.18679362 750.78853227 C120.87032733 750.78103469 105.55387987 750.78352421 90.23741389 750.79019383 C75.16312673 750.79654143 60.0888742 750.79209899 45.01459364 750.77631553 C36.18721582 750.76738658 27.35992885 750.76651139 18.53255328 750.77785673 C12.65548632 750.78457999 6.77849147 750.78025927 0.90143518 750.76730524 C-2.42068295 750.76028032 -5.74247359 750.75930417 -9.06460709 750.76863714 C-30.92068168 750.82546691 -52.22319989 748.91373255 -73.66751099 744.62752342 C-74.30806427 744.50091331 -74.94861755 744.37430321 -75.60858154 744.24385643 C-133.29777005 732.77923843 -189.9168638 707.2785432 -235.16751099 669.37752342 C-235.91677856 668.75345604 -235.91677856 668.75345604 -236.68118286 668.11678123 C-247.98352619 658.69363905 -258.81782743 648.90745111 -269.23001099 638.50252342 C-270.62316528 637.12773827 -270.62316528 637.12773827 -272.04446411 635.72517967 C-278.19440045 629.58819056 -283.75467797 623.16715415 -289.16751099 616.37752342 C-290.04252129 615.33816207 -290.92263079 614.30302584 -291.81204224 613.27596092 C-298.8745396 605.0554685 -305.10631076 596.35286803 -311.16751099 587.37752342 C-311.71423462 586.57089256 -312.26095825 585.7642617 -312.82424927 584.93318748 C-342.70127231 540.46706657 -361.8431758 489.86054857 -370.91751099 437.19002342 C-371.11659058 436.03969627 -371.31567017 434.88936913 -371.52078247 433.70418358 C-374.59107731 414.83419629 -375.54996819 395.97392423 -375.48001099 376.87752342 C-375.47818817 375.83536674 -375.47636536 374.79321007 -375.4744873 373.71947289 C-375.31964102 320.86140817 -364.46121624 268.43167932 -342.16751099 220.37752342 C-341.70586548 219.37350487 -341.24421997 218.36948631 -340.76858521 217.33504295 C-328.63734733 191.07537562 -313.87296206 167.24156717 -296.16751099 144.37752342 C-295.47141724 143.4777578 -294.77532349 142.57799217 -294.05813599 141.65096092 C-292.12566595 139.19943901 -290.15363361 136.78574421 -288.16751099 134.37752342 C-287.41598755 133.44037498 -286.66446411 132.50322655 -285.89016724 131.53767967 C-278.96239086 123.06570471 -271.3187693 115.31310229 -263.60501099 107.56502342 C-263.07457184 107.02940788 -262.54413269 106.49379234 -261.99761963 105.94194603 C-255.78228273 99.67888463 -249.45935644 93.78864373 -242.55056763 88.27913475 C-240.62659709 86.74386106 -238.75811647 85.18208085 -236.91751099 83.54939842 C-228.6252095 76.24651927 -219.73658382 70.04157983 -210.53128052 63.94441795 C-208.32811436 62.48398411 -206.13592201 61.00835856 -203.94485474 59.52986717 C-143.62093001 19.22032492 -72.16847056 -0.21302924 0 0 Z M-71.73001099 37.56502342 C-72.75046509 37.78803627 -72.75046509 37.78803627 -73.79153442 38.01555443 C-128.74727547 50.06087613 -179.09013454 75.36296886 -222.16751099 111.37752342 C-222.67443481 111.79276268 -223.18135864 112.20800194 -223.7036438 112.6358242 C-238.52286276 124.77670726 -252.39959655 138.24398546 -264.16751099 153.37752342 C-265.76852172 155.2552189 -267.37287971 157.13006387 -268.98001099 159.00252342 C-318.54757112 218.52956241 -344.48216104 296.09211413 -344.29788208 373.09236717 C-344.2925319 375.7421653 -344.29785769 378.39179295 -344.30422974 381.04158592 C-344.31071978 395.00783141 -344.15462146 409.05971031 -341.91751099 422.87752342 C-341.78747681 423.69752831 -341.65744263 424.51753319 -341.52346802 425.3623867 C-341.08774421 428.03712197 -340.63075942 430.70742415 -340.16751099 433.37752342 C-339.92822876 434.78469627 -339.92822876 434.78469627 -339.68411255 436.22029686 C-329.92067641 492.45843862 -305.75052945 545.80889423 -270.16751099 590.37752342 C-269.44305786 591.29533592 -268.71860474 592.21314842 -267.97219849 593.15877342 C-253.65345708 611.01870893 -237.30158233 628.3876285 -219.16751099 642.37752342 C-218.11358375 643.25134703 -217.06301283 644.12922872 -216.01516724 645.01033592 C-185.36399005 670.57034476 -149.63458335 689.11853119 -112.16751099 702.37752342 C-110.83404582 702.86283844 -109.50069541 703.34846898 -108.16751099 703.83455467 C-89.42589313 710.4234047 -69.93205033 714.41248393 -50.27999964 717.08302939 C-48.78461336 717.29149552 -47.2903308 717.50795142 -45.79690236 717.73000943 C-29.34684756 720.16640524 -13.25739042 720.80418023 3.35442829 720.75504684 C6.06540529 720.75818315 8.77635739 720.76250963 11.48732778 720.76825994 C17.35860328 720.77835056 23.22979491 720.77750891 29.10107205 720.76920931 C37.89061768 720.75684102 46.68009634 720.76199643 55.46964363 720.77035724 C70.45592096 720.78410763 85.44216767 720.7837315 100.42844772 720.7755146 C115.60384809 720.76724484 130.77922831 720.76553263 145.9546299 720.77172661 C147.39532333 720.77230789 147.39532333 720.77230789 148.86512167 720.7729009 C152.77729508 720.77450082 156.68946847 720.77614696 160.60164183 720.77785173 C196.99573659 720.79369964 233.38981786 720.79480469 269.78391457 720.78640938 C270.86120587 720.78616099 271.93849718 720.78591261 273.04843367 720.78565669 C274.12746024 720.7854079 275.2064868 720.78515911 276.31821114 720.78490279 C309.21261223 720.77732845 342.10700775 720.77538128 375.00140953 720.77897072 C377.20553791 720.77920316 379.4096663 720.77943463 381.61379468 720.77966513 C390.47166249 720.78059656 399.32953031 720.78155256 408.18739811 720.78254442 C432.94795646 720.78529525 457.70851482 720.7870072 482.4690733 720.78790283 C484.16029059 720.78796424 484.16029059 720.78796424 485.88567389 720.78802688 C521.80433923 720.78925446 557.72300263 720.78587544 593.64166737 720.7793541 C594.80640384 720.77914335 595.97114032 720.7789326 597.17117184 720.77871547 C616.08481449 720.77528077 634.99845709 720.77162231 653.9120997 720.76794495 C728.91462092 720.75337782 803.91712607 720.75405118 878.91964722 720.7686367 C897.82025812 720.7723004 916.72086904 720.77593361 935.62147999 720.7793541 C936.78532561 720.77956544 937.94917123 720.77977678 939.1482849 720.77999453 C975.0273653 720.78646518 1010.90644436 720.78920551 1046.78552532 720.78790283 C1048.47555581 720.7878417 1048.47555581 720.7878417 1050.19972832 720.78777934 C1074.93478519 720.78684181 1099.66984192 720.78494072 1124.40489865 720.78217132 C1133.25571596 720.78118394 1142.10653327 720.78024469 1150.95735058 720.77931919 C1153.15912415 720.77908702 1155.36089772 720.77885083 1157.56267128 720.7786106 C1190.44458691 720.77503278 1223.32649625 720.77807343 1256.20841108 720.78565669 C1257.82397546 720.78602927 1257.82397546 720.78602927 1259.47217751 720.78640938 C1261.0847504 720.78678145 1261.0847504 720.78678145 1262.72990053 720.78716104 C1299.02400621 720.79544362 1335.31809573 720.79237585 1371.61219911 720.77656715 C1375.51351437 720.77491016 1379.41482965 720.77330004 1383.31614494 720.77172661 C1384.27356586 720.77133599 1385.23098677 720.77094537 1386.21742043 720.77054291 C1401.34744465 720.76463706 1416.4774487 720.76873337 1431.60747109 720.77703363 C1446.50234697 720.78499016 1461.39718898 720.78214622 1476.29206059 720.76799136 C1485.01197871 720.76001966 1493.73180371 720.76009229 1502.45171727 720.77243615 C1508.26023446 720.77982656 1514.06867992 720.77613009 1519.87718855 720.76383559 C1523.1586707 720.75718716 1526.43993626 720.7565506 1529.7214158 720.76628514 C1551.59379135 720.82651936 1573.23372628 719.1213148 1594.76998901 715.19002342 C1595.90782837 714.98353172 1597.04566772 714.77704002 1598.21798706 714.564291 C1611.34139358 712.06129439 1624.10266236 708.39946567 1636.83248901 704.37752342 C1637.84150269 704.05912498 1638.85051636 703.74072655 1639.8901062 703.41267967 C1676.46578374 691.679251 1712.00469545 673.74799721 1741.83248901 649.37752342 C1742.73483276 648.65435936 1743.63717651 647.9311953 1744.56686401 647.18611717 C1747.34438975 644.94242225 1750.0898448 642.66368902 1752.83248901 640.37752342 C1754.34649292 639.14389061 1754.34649292 639.14389061 1755.89108276 637.88533592 C1763.52530779 631.58223589 1770.62557905 624.79375902 1777.64498901 617.81502342 C1778.51623413 616.95296288 1779.38747925 616.09090233 1780.28512573 615.20271873 C1786.22352755 609.23607647 1791.59416782 602.9621332 1796.83248901 596.37752342 C1797.86942328 595.11145445 1798.90821171 593.84689947 1799.94967651 592.58455467 C1836.64360849 547.61389348 1860.88599391 493.1206308 1871.08248901 436.12752342 C1871.20763885 435.4339373 1871.3327887 434.74035118 1871.46173096 434.0257473 C1874.68617217 415.97182119 1876.21895055 398.15457565 1876.14498901 379.81502342 C1876.14349854 378.89219566 1876.14200806 377.9693679 1876.14047241 377.01857567 C1876.06834236 351.93077407 1874.54446014 326.87553294 1868.83248901 302.37752342 C1868.51755493 300.98461082 1868.51755493 300.98461082 1868.19625854 299.56355858 C1859.6919377 262.27918317 1845.36152585 225.73811743 1824.83248901 193.37752342 C1824.43352417 192.74733299 1824.03455933 192.11714256 1823.62350464 191.46785545 C1817.19335279 181.40068132 1810.11398908 171.84082569 1802.83248901 162.37752342 C1802.13381714 161.46228905 1801.43514526 160.54705467 1800.71530151 159.60408592 C1796.04418636 153.61497978 1790.94991999 148.06845286 1785.76217651 142.52986717 C1783.28716038 139.88396842 1780.89859169 137.17317254 1778.51998901 134.44002342 C1769.27371691 124.13655506 1758.72399308 114.89321977 1747.83248901 106.37752342 C1746.9408606 105.66910301 1746.9408606 105.66910301 1746.03121948 104.94637108 C1729.35235521 91.71255354 1711.66649122 80.29795596 1692.83248901 70.37752342 C1692.17361694 70.02883202 1691.51474487 69.68014061 1690.83590698 69.3208828 C1660.22476895 53.24292629 1627.14715886 42.10875691 1593.20748901 35.69002342 C1592.13539185 35.48723778 1591.06329468 35.28445213 1589.95870972 35.07552147 C1571.83390788 31.79219189 1554.35127956 31.08947967 1535.96885872 31.12304783 C1533.24387697 31.12176584 1530.51890173 31.1174706 1527.79392302 31.11333123 C1521.87016256 31.10592168 1515.94643811 31.10586874 1510.02267553 31.11072072 C1501.1544361 31.11794843 1492.2862275 31.113584 1483.41798887 31.10703937 C1468.30035211 31.09622274 1453.18272781 31.09487809 1438.06508827 31.09873772 C1422.7496833 31.10261657 1407.43428762 31.10215483 1392.11888313 31.09642792 C1391.15069246 31.09606909 1390.18250179 31.09571027 1389.18497201 31.09534057 C1385.24150866 31.09386562 1381.29804532 31.09236122 1377.354582 31.0908191 C1337.34036985 31.07518989 1297.32616409 31.07250455 1257.31194944 31.07497516 C1251.78421907 31.07531362 1246.2564887 31.07563571 1240.72875834 31.07594085 C1239.08179336 31.07603241 1239.08179336 31.07603241 1237.40155637 31.07612583 C1213.06020362 31.07739815 1188.71885176 31.07479554 1164.37749927 31.07141478 C1158.81811299 31.07064403 1153.25872671 31.0698993 1147.69934043 31.06914977 C1145.46809167 31.06884807 1143.23684292 31.06854619 1141.00559417 31.06824412 C1139.34659591 31.0680196 1139.34659591 31.0680196 1137.65408255 31.06779055 C1135.41693376 31.06748702 1133.17978498 31.06718233 1130.94263619 31.0668765 C1067.46617798 31.0582037 1003.98972053 31.05355935 940.5132618 31.05782413 C939.33796094 31.05790219 938.16266009 31.05798025 936.95174406 31.05806067 C923.84614749 31.05893346 910.74055092 31.05986272 897.63495435 31.0608113 C895.86012117 31.06093957 895.86012117 31.06093957 894.04943277 31.06107042 C886.87187375 31.06158921 886.87187375 31.06158921 879.69431473 31.06211265 C804.02422219 31.06764749 728.35414185 31.06010888 652.68405151 31.04134178 C633.61975164 31.03661946 614.55545175 31.0319389 595.49115181 31.02750492 C594.31724255 31.0272316 593.1433333 31.02695828 591.93385103 31.02667667 C555.74422503 31.01830334 519.55460004 31.01362552 483.36497307 31.01279736 C482.2285091 31.01277099 481.09204514 31.01274462 479.92114288 31.01271746 C454.97115127 31.01217663 430.02115975 31.01254922 405.07116817 31.01375717 C396.14324499 31.01418279 387.21532181 31.01454791 378.28739863 31.01488661 C376.06641109 31.01497192 373.84542356 31.01506085 371.62443602 31.01515343 C336.25877047 31.01660123 300.89311322 31.00948223 265.52744966 30.99814947 C228.9080162 30.98649096 192.28859755 30.98594499 155.66916402 30.9979929 C151.7328112 30.99924468 147.79645836 31.00044817 143.86010551 31.00161362 C142.41106969 31.00204906 142.41106969 31.00204906 140.93276041 31.0024933 C125.66598535 31.00681066 110.3992314 31.00110188 95.13245965 30.99117342 C80.10313916 30.98161207 65.07385108 30.9828436 50.04453245 30.99537965 C41.2454851 31.00240216 32.44653122 31.00136141 23.64749065 30.98803127 C17.78651001 30.97998396 11.92559936 30.98302829 6.06462505 30.9946809 C2.75325154 31.00096638 -0.55779141 31.00122841 -3.86917646 30.9911137 C-26.74881438 30.92604602 -49.35937883 32.57529672 -71.73001099 37.56502342 Z " fill="#FDFEFE" transform="translate(485.1675109863281,874.6224765777588)"/>
<path d="M0 0 C43.89 0 87.78 0 133 0 C132.3004533 4.8968269 131.51783478 9.65686686 130.546875 14.49609375 C130.33630966 15.54898087 130.33630966 15.54898087 130.12149048 16.62313843 C129.66643853 18.8950221 129.20841221 21.16629214 128.75 23.4375 C128.43176861 25.0197684 128.11357229 26.60204385 127.79541016 28.18432617 C124.31397401 45.47430809 120.77954263 62.7409603 116.80419922 79.92504883 C115.19521812 86.95532147 113.82732113 94.01465055 112.51928711 101.10620117 C111.33541653 107.44366943 109.96115335 113.72107939 108.5 120 C106.86281819 127.03883112 105.37054805 134.08014356 104.0625 141.1875 C102.32448112 150.62800005 100.25381999 159.97962512 98.14086914 169.3425293 C96.82186848 175.214655 95.56385355 181.07641308 94.5 187 C93.24097138 194.00612399 91.69483425 200.93236652 90.125 207.875 C87.79431858 218.18916726 85.70691012 228.52796453 83.7565918 238.92016602 C82.49195681 245.60305934 81.06311149 252.21322121 79.4465332 258.81860352 C78.14528431 264.20351034 77.07767219 269.61693453 76.0625 275.0625 C73.18151405 290.50833879 69.97691253 305.8790982 66.4375 321.1875 C64.61330775 329.08482322 63.0010956 337.00005802 61.51708984 344.96777344 C58.81354106 359.44240651 55.75437309 373.84160912 52.4375 388.1875 C50.61299143 396.08619262 48.99893321 404.00257761 47.51708984 411.97216797 C45.71553147 421.63017334 43.68512907 431.23772042 41.65869141 440.85058594 C40.96406888 444.17179816 40.2833459 447.49564396 39.60546875 450.8203125 C39.37851318 451.92785889 39.15155762 453.03540527 38.91772461 454.17651367 C38.47949259 456.31672027 38.04401632 458.45749336 37.61157227 460.59887695 C37.31657837 462.03299927 37.31657837 462.03299927 37.015625 463.49609375 C36.84321289 464.34357178 36.67080078 465.1910498 36.49316406 466.06420898 C36 468 36 468 35 469 C33.17772313 469.09643778 31.3516664 469.12187371 29.52684021 469.12025452 C27.74518463 469.12231651 27.74518463 469.12231651 25.92753601 469.12442017 C24.61267715 469.12082489 23.2978183 469.11722961 21.94311523 469.11352539 C20.55382286 469.11324352 19.16453033 469.11340125 17.77523804 469.1139679 C13.99234711 469.11425588 10.20948762 469.10835901 6.42660403 469.10139394 C2.47744323 469.09516055 -1.47171822 469.09455661 -5.42088318 469.09336853 C-12.90425075 469.09025517 -20.38760379 469.08204172 -27.87096494 469.07201904 C-36.38835733 469.06085805 -44.9057504 469.05534749 -53.42314827 469.05032361 C-70.94877394 469.03985911 -88.47438543 469.02225958 -106 469 C-105.68081271 467.39832045 -105.36130911 465.79670393 -105.04167175 464.19511414 C-104.86378207 463.3032072 -104.68589239 462.41130026 -104.50261211 461.49236584 C-103.94425158 458.72355331 -103.35237055 455.96400744 -102.73828125 453.20703125 C-102.51019775 452.18125977 -102.28211426 451.15548828 -102.04711914 450.09863281 C-101.68348267 448.47199707 -101.68348267 448.47199707 -101.3125 446.8125 C-100.92276001 445.06404785 -100.92276001 445.06404785 -100.52514648 443.28027344 C-97.81824481 431.15348258 -95.0802623 419.03369496 -92.33808899 406.9148407 C-90.7230146 399.77709738 -89.11153642 392.63854285 -87.5 385.5 C-86.91668166 382.91666328 -86.33334832 380.33332995 -85.75 377.75 C-85.46125 376.47125 -85.1725 375.1925 -84.875 373.875 C-68.25 300.25 -68.25 300.25 -67.37524414 296.37646484 C-66.79087728 293.7882983 -66.20673079 291.20008199 -65.62280273 288.61181641 C-64.18206847 282.22700853 -62.73774765 275.84305898 -61.28515625 269.4609375 C-57.90070096 254.56779626 -54.62399913 239.656688 -51.42263794 224.72332764 C-49.18775268 214.31356894 -46.83139623 203.94755226 -44.28881836 193.60791016 C-42.01651512 184.275809 -40.00715248 174.89181665 -38 165.5 C-35.5771602 154.16310984 -33.05802104 142.86777784 -30.2890625 131.609375 C-28.01697212 122.27670269 -26.00739722 112.89228145 -24 103.5 C-21.52587579 91.92622461 -18.9562324 80.3909707 -16.14624023 68.89306641 C-14.36178054 61.57260926 -12.68631852 54.23271046 -11.0625 46.875 C-10.70031372 45.23422485 -10.70031372 45.23422485 -10.33081055 43.56030273 C-9.82685662 41.27574461 -9.32303547 38.9911572 -8.81933594 36.70654297 C-7.44336622 30.48187899 -6.05570112 24.25987847 -4.65890503 18.03985596 C-4.34614562 16.64502231 -4.0343884 15.24996354 -3.72366333 13.85467529 C-3.29088404 11.91168361 -2.85450936 9.96949382 -2.41796875 8.02734375 C-2.16813232 6.91093506 -1.9182959 5.79452637 -1.66088867 4.64428711 C-1 2 -1 2 0 0 Z " fill="#FEFEFE" transform="translate(1485,1011)"/>
<path d="M0 0 C1.39992188 0.62841797 1.39992188 0.62841797 2.828125 1.26953125 C21.245633 10.39935307 32.43315838 27.22728207 39.1015625 46.12109375 C42.05051137 56.38284008 43.37274817 66.8439327 43.3125 77.5 C43.30512817 79.09473145 43.30512817 79.09473145 43.29760742 80.72167969 C43.01269953 100.80841629 40.61918114 120.69557569 35 140 C34.75266113 140.85078125 34.50532227 141.7015625 34.25048828 142.578125 C28.42761926 162.11196809 20.29448126 180.99099183 9 198 C8.60844727 198.59216309 8.21689453 199.18432617 7.81347656 199.79443359 C1.9296844 208.58693365 -4.66420213 216.39330856 -12 224 C-12.73863281 224.80179688 -13.47726562 225.60359375 -14.23828125 226.4296875 C-27.05071891 239.96824137 -46.01544184 251.57936894 -64.96533203 252.48066711 C-67.76686566 252.54926115 -70.56361577 252.55492701 -73.36572266 252.52148438 C-75.49887663 252.50001131 -77.62866515 252.52141739 -79.76171875 252.546875 C-97.72346374 252.58331014 -113.5397766 246.39551968 -126.31640625 233.7734375 C-137.26741765 222.45579836 -144.40619149 208.33011068 -148 193 C-148.44666016 191.15341797 -148.44666016 191.15341797 -148.90234375 189.26953125 C-154.18785784 164.25656087 -152.34885151 135.76788747 -147 111 C-146.81276367 110.13294434 -146.62552734 109.26588867 -146.43261719 108.37255859 C-142.38092345 90.33587362 -135.78206484 73.24190628 -127 57 C-126.43539063 55.94296875 -125.87078125 54.8859375 -125.2890625 53.796875 C-118.90721353 42.35149328 -110.4913832 31.06181629 -101 22 C-100.34 22 -99.68 22 -99 22 C-99 21.34 -99 20.68 -99 20 C-71.6975399 -6.35523189 -35.08337114 -15.86022866 0 0 Z " fill="#1879BF" transform="translate(596,1124)"/>
<path d="M0 0 C13.65989364 10.81037215 23.00344167 25.35513059 25.75 42.75 C26.72718198 62.42999059 22.36514331 79.96617149 9.5703125 95.375 C-1.83488904 107.64026591 -17.69575436 115.23443974 -34.43359375 115.87109375 C-52.63488708 116.21000064 -68.75282851 111.46276673 -82.25 98.75 C-95.73972869 85.38540794 -101.44500976 69.95584934 -101.5625 51.1875 C-101.57431348 42.3753029 -101.25307796 34.76858784 -97.25 26.75 C-96.81429687 25.82574219 -96.37859375 24.90148438 -95.9296875 23.94921875 C-87.3335593 6.96834255 -73.93540104 -3.8577043 -56.25 -10.3515625 C-37.218577 -15.8851556 -15.92926378 -11.47226777 0 0 Z " fill="#1B7BBF" transform="translate(2268.25,1201.25)"/>
<path d="M0 0 C11.00571776 -0.06977594 22.01138213 -0.12295069 33.01727676 -0.15543652 C38.12878532 -0.17103486 43.24014157 -0.19216564 48.3515625 -0.22631836 C53.29233021 -0.25912099 58.23295222 -0.27689677 63.1738205 -0.28463173 C65.05070028 -0.29013794 66.92757288 -0.30088934 68.80438995 -0.31719017 C86.11190513 -0.46141583 103.26078044 1.43764226 116.5625 13.8125 C122.98833724 20.87264736 126.47002461 29.3355791 126.33203125 38.83203125 C125.06950698 50.87799812 118.63434804 59.28740529 109.72265625 66.9609375 C94.52402879 78.5432526 74.25221618 82.20629908 55.54272461 82.11352539 C54.75137115 82.11367142 53.9600177 82.11381744 53.14468384 82.1139679 C50.5638746 82.11327869 47.98314017 82.10553343 45.40234375 82.09765625 C43.59916727 82.09578854 41.79599028 82.0943663 39.99281311 82.09336853 C35.27302624 82.08957117 30.55327069 82.07976496 25.83349609 82.06866455 C21.00684025 82.05839031 16.18017928 82.05385808 11.35351562 82.04882812 C1.90233007 82.03813992 -7.54883235 82.02109732 -17 82 C-11.81465809 54.50860433 -11.81465809 54.50860433 -8.875 42.375 C-6.95642715 34.2620384 -5.16877769 26.16631545 -3.73828125 17.953125 C-3.06910926 14.1999876 -2.2561804 10.47958856 -1.45385742 6.75292969 C-1.18208176 5.48922546 -0.91030609 4.22552124 -0.6302948 2.92352295 C-0.31829887 1.47637909 -0.31829887 1.47637909 0 0 Z " fill="#1979BF" transform="translate(1885,1283)"/>
<path d="M0 0 C0.75140259 -0.0049649 1.50280518 -0.00992981 2.27697754 -0.01504517 C4.77865503 -0.02972038 7.28026884 -0.03648221 9.78198242 -0.04199219 C11.52300518 -0.04774497 13.26402793 -0.05350269 15.00505066 -0.05926514 C18.66792089 -0.06979421 22.33076909 -0.07562249 25.99365234 -0.07910156 C30.65930604 -0.08455091 35.32466264 -0.10849361 39.99022388 -0.13707352 C43.59448551 -0.15582896 47.19867796 -0.16091259 50.80298424 -0.16243744 C52.52076506 -0.16544207 54.23854532 -0.1733955 55.95627785 -0.18662262 C71.93409076 -0.3007412 87.63175296 1.51427117 100.34838867 12.30175781 C106.40869762 18.74506026 109.96032908 25.18818037 110.32495117 34.09863281 C109.89232011 45.44798768 104.26376829 54.0880235 96.26245117 61.78613281 C84.10970012 71.90958198 66.25308591 76.35060964 50.70825195 76.2746582 C49.52187889 76.27487724 49.52187889 76.27487724 48.3115387 76.27510071 C45.71441848 76.2744077 43.11737126 76.26664411 40.52026367 76.25878906 C38.71279947 76.25692271 36.90533476 76.25549983 35.09786987 76.25450134 C30.35337921 76.2506933 25.60891943 76.2408777 20.86444092 76.22979736 C16.01794858 76.21954636 11.17145123 76.21499583 6.32495117 76.20996094 C-3.17506235 76.19925384 -12.67505302 76.18219806 -22.17504883 76.16113281 C-21.62595239 67.3176616 -20.05566702 58.78794975 -18.26879883 50.12207031 C-17.98075236 48.70537467 -17.69312151 47.28859446 -17.40588379 45.87173462 C-16.80775919 42.92787543 -16.20562383 39.98487616 -15.6003418 37.04248047 C-14.82354965 33.26535561 -14.05557501 29.48650226 -13.29033661 25.70702171 C-12.69963933 22.79318496 -12.10512722 19.88013742 -11.50935364 16.96733475 C-11.22446095 15.57282754 -10.94059301 14.17811058 -10.65776062 12.78318405 C-10.26431193 10.84638284 -9.86533223 8.91070765 -9.46606445 6.97509766 C-9.24035767 5.8735434 -9.01465088 4.77198914 -8.78210449 3.63705444 C-7.59254625 -1.21464723 -4.30458015 0.0067181 0 0 Z " fill="#197ABF" transform="translate(1927.175048828125,1118.8388671875)"/>
<path d="M0 0 C13.65989364 10.81037215 23.00344167 25.35513059 25.75 42.75 C26.72718198 62.42999059 22.36514331 79.96617149 9.5703125 95.375 C-1.83488904 107.64026591 -17.69575436 115.23443974 -34.43359375 115.87109375 C-52.63488708 116.21000064 -68.75282851 111.46276673 -82.25 98.75 C-95.73972869 85.38540794 -101.44500976 69.95584934 -101.5625 51.1875 C-101.57431348 42.3753029 -101.25307796 34.76858784 -97.25 26.75 C-96.81429687 25.82574219 -96.37859375 24.90148438 -95.9296875 23.94921875 C-87.3335593 6.96834255 -73.93540104 -3.8577043 -56.25 -10.3515625 C-37.218577 -15.8851556 -15.92926378 -11.47226777 0 0 Z M-72.25 15.75 C-72.87519531 16.33394531 -73.50039062 16.91789062 -74.14453125 17.51953125 C-85.08304458 28.83934351 -86.82287209 42.40327662 -86.59375 57.3515625 C-86.15377932 67.82653104 -82.31034692 76.987131 -75.25 84.75 C-74.77304688 85.34039063 -74.29609375 85.93078125 -73.8046875 86.5390625 C-67.11082132 94.1747792 -55.23370759 99.97753452 -45.17333984 100.95092773 C-42.9233671 101.0533814 -40.68970421 101.0791989 -38.4375 101.0625 C-37.24338501 101.05404053 -37.24338501 101.05404053 -36.02514648 101.04541016 C-30.00304407 100.92126844 -24.79062766 100.24091466 -19.25 97.75 C-18.36183594 97.35941406 -17.47367188 96.96882813 -16.55859375 96.56640625 C-3.51080528 90.16046838 3.67219767 80.38639694 8.77734375 67.0703125 C12.66498629 54.9953306 11.75790076 42.32708823 6.75 30.75 C-0.37258262 17.17478065 -10.12816429 9.05037923 -24.74267578 4.35644531 C-29.3043641 3.25311194 -33.8259023 3.21933618 -38.5 3.25 C-40.01907959 3.25858032 -40.01907959 3.25858032 -41.56884766 3.26733398 C-53.83565221 3.55912006 -63.20712271 7.27563366 -72.25 15.75 Z " fill="#FAFCFD" transform="translate(2268.25,1201.25)"/>
<path d="M0 0 C-0.53937762 6.75928921 -1.88390668 12.7130985 -4.0625 19.125 C-4.37268066 20.04007324 -4.68286133 20.95514648 -5.00244141 21.89794922 C-11.49906885 40.42777079 -22.22700098 58.22011066 -40.25 67.375 C-51.83639023 72.86167686 -64.23182054 75.59188978 -76.8125 71.375 C-85.12598144 67.93827696 -92.50656938 62.4618004 -96.3125 54.125 C-98.05038226 46.2255352 -97.01136373 40.00898609 -93 33 C-76.73976981 11.86870948 -44.59812794 5.11521652 -19.640625 1.3359375 C-13.10435414 0.50440008 -6.59742082 -0.17830867 0 0 Z " fill="#197ABF" transform="translate(1235,1326)"/>
<path d="M0 0 C0.84525742 -0.0033284 1.69051483 -0.0066568 2.56138611 -0.01008606 C4.35789444 -0.01516226 6.15441224 -0.01749417 7.95092773 -0.01733398 C10.67903656 -0.01950278 13.40672939 -0.03760149 16.13476562 -0.05664062 C17.88150904 -0.05957808 19.62825437 -0.06156052 21.375 -0.0625 C22.18365005 -0.06968552 22.99230011 -0.07687103 23.82545471 -0.08427429 C31.65814013 -0.05325888 38.37660283 1.08760705 44.65234375 6.16796875 C47.97196339 11.41364757 47.20095022 17.72967276 46.2578125 23.640625 C44.84932209 28.93836634 42.24726435 32.16365542 38.2734375 35.85546875 C34.25647014 37.8669457 30.09124605 37.92044433 25.65234375 38.16796875 C26.15217773 39.32582886 26.15217773 39.32582886 26.66210938 40.50708008 C27.89642316 43.373407 29.12586802 46.24175863 30.35205078 49.11157227 C30.88363648 50.35296596 31.4171522 51.59353505 31.95263672 52.83325195 C32.72220218 54.61581684 33.48425065 56.40162104 34.24609375 58.1875 C34.70693359 59.26104736 35.16777344 60.33459473 35.64257812 61.44067383 C36.65234375 64.16796875 36.65234375 64.16796875 36.65234375 67.16796875 C31.37234375 67.16796875 26.09234375 67.16796875 20.65234375 67.16796875 C17.35234375 58.25796875 14.05234375 49.34796875 10.65234375 40.16796875 C7.02234375 39.83796875 3.39234375 39.50796875 -0.34765625 39.16796875 C-0.39664063 39.93238281 -0.445625 40.69679688 -0.49609375 41.484375 C-1.09865816 50.11766859 -2.14671398 58.60124721 -3.34765625 67.16796875 C-8.62765625 67.16796875 -13.90765625 67.16796875 -19.34765625 67.16796875 C-17.5035077 53.97521375 -15.42246073 40.8263364 -13.30078125 27.67578125 C-13.12208496 26.56565674 -12.94338867 25.45553223 -12.75927734 24.31176758 C-12.40936107 22.13951666 -12.05818442 19.96746828 -11.70556641 17.7956543 C-10.99192144 13.3664399 -10.30225859 8.94995983 -9.79296875 4.4921875 C-8.97499575 -1.61390919 -5.23439087 0.00707926 0 0 Z " fill="#F8FBFD" transform="translate(2217.34765625,1218.83203125)"/>
<path d="M0 0 C3.5624308 -0.05827558 7.12473819 -0.09368885 10.6875 -0.125 C12.19860352 -0.15013672 12.19860352 -0.15013672 13.74023438 -0.17578125 C14.71669922 -0.18222656 15.69316406 -0.18867187 16.69921875 -0.1953125 C17.59471436 -0.20578613 18.49020996 -0.21625977 19.4128418 -0.22705078 C22.54376953 0.04772159 25.7074828 0.7074828 28 3 C28.08774179 6.08976459 27.78041027 9.00930025 27 12 C24.22637974 14.84473873 21.69910277 16.91751067 17.66162109 17.11352539 C16.23197021 17.10567017 16.23197021 17.10567017 14.7734375 17.09765625 C13.7421875 17.09443359 12.7109375 17.09121094 11.6484375 17.08789062 C10.02808594 17.07532227 10.02808594 17.07532227 8.375 17.0625 C6.74304687 17.05573242 6.74304687 17.05573242 5.078125 17.04882812 C2.38536211 17.03701776 -0.30729188 17.02054778 -3 17 C-2.48517081 11.147205 -1.54642808 5.6702363 0 0 Z " fill="#1E7CC0" transform="translate(2222,1231)"/>
</svg>
