<?xml version="1.0" encoding="UTF-8"?>
<svg xmlns="http://www.w3.org/2000/svg" width="350" height="150" viewBox="0 0 350 150">
  <g id="aveeno" transform="translate(-38 -41)">
    <rect id="Rectangle_1" data-name="Rectangle 1" width="350" height="150" transform="translate(38 41)" fill="none"></rect>
    <g id="logo-footer-brown" transform="translate(63 82)">
      <g id="Group_9156" data-name="Group 9156">
        <path id="Path_4842" data-name="Path 4842" d="M408.661,336.415V314.059c.089-3.975-.3-10.756-.3-10.756h9.427s.041,3.481.041,7.038v1.16c5.026-5.656,10.123-8.53,16.041-8.974,3.011-.074,9.031.476,12.318,3.4,2.9,2.535,3.7,5.8,3.7,11.7v18.275c0,1.479.218,8.85.218,8.85h-9.2s-.152-4.9-.152-9.066V320.183c0-6.257-.418-10.06-2.328-11.944a7.336,7.336,0,0,0-5.8-1.573c-7.179.113-14.809,8.2-14.809,15.771v22.322h-9.179s.043-4.756.043-8.348" transform="translate(-216.685 -278.604)" fill="#47312e"></path>
        <path id="Path_4843" data-name="Path 4843" d="M419.725,342.244a19.911,19.911,0,0,0,12.634-4.007l.218-.152,2.008,2.276-.218.159a25.419,25.419,0,0,1-15.664,5.63,27.671,27.671,0,0,1-15.747-4.786,22.759,22.759,0,0,1-8.328-14.152,21.32,21.32,0,0,1,4.282-15.331,22.332,22.332,0,0,1,16.556-9.268c3.67-.4,10.486-.448,15.636,3.714a19.763,19.763,0,0,1,7.277,13.706l.046.259H405.207q-.117,1.373-.117,2.676a21.409,21.409,0,0,0,4.677,14.309,14.141,14.141,0,0,0,9.958,4.973m7.832-25.646a12.315,12.315,0,0,0-4.281-8.646,7.971,7.971,0,0,0-5.439-1.91c-.331,0-.629,0-.929.026-5.861.383-9.375,4.262-10.893,10.532Z" transform="translate(-252.067 -278.819)" fill="#47312e"></path>
        <path id="Path_4844" data-name="Path 4844" d="M406.092,342.244a19.881,19.881,0,0,0,12.629-4.007l.218-.152,2.012,2.276-.218.159a25.42,25.42,0,0,1-15.664,5.63,27.63,27.63,0,0,1-15.736-4.786,22.758,22.758,0,0,1-8.328-14.152,21.275,21.275,0,0,1,4.288-15.331,22.291,22.291,0,0,1,16.535-9.268c3.677-.4,10.488-.448,15.642,3.714a19.8,19.8,0,0,1,7.279,13.706l.035.259h-33.21c-.083.916-.111,1.806-.111,2.676a21.441,21.441,0,0,0,4.669,14.309,14.172,14.172,0,0,0,9.96,4.973m7.832-25.646a12.273,12.273,0,0,0-4.273-8.646,7.965,7.965,0,0,0-5.439-1.91c-.333,0-.629,0-.933.026-5.861.383-9.381,4.262-10.9,10.532Z" transform="translate(-286.805 -278.819)" fill="#47312e"></path>
        <path id="Path_4845" data-name="Path 4845" d="M393.537,333.17c.409-.82,16.132-30.676,16.132-30.676h4.675s-3.046,5.633-5.115,9.475l-.083.157-16.957,32.7H389l-15.68-32.7c-2.247-4.462-4.688-9.629-4.688-9.629h10.225s14.274,29.851,14.67,30.676" transform="translate(-317.981 -278.669)" fill="#47312e"></path>
        <path id="Path_4846" data-name="Path 4846" d="M391.182,333.5c-.266-.653-8.92-20.261-9.342-21.221-.416.957-9.02,20.535-9.307,21.195Zm-4.839-37.718,24.493,55.112a101.256,101.256,0,0,0,6.1,11.05H403.872s-10.51-24.275-10.641-24.56H370.5l-10.515,24.56h-5.62a100.141,100.141,0,0,0,4.849-9.464l24.9-56.7Z" transform="translate(-354.362 -295.783)" fill="#47312e"></path>
        <path id="Path_4847" data-name="Path 4847" d="M446.809,302.487c-13.965,0-25.291,9.775-25.291,21.823s11.326,21.823,25.291,21.823,25.28-9.768,25.28-21.823-11.313-21.823-25.28-21.823m0,39.961c-8.05,0-14.577-8.126-14.577-18.131s6.527-18.138,14.577-18.138,14.6,8.121,14.6,18.138-6.527,18.131-14.6,18.131" transform="translate(-183.139 -278.69)" fill="#47312e"></path>
      </g>
      <path id="Path_4848" data-name="Path 4848" d="M435.707,317.1v-.028a5.234,5.234,0,1,1,10.469-.028v.028a5.234,5.234,0,0,1-10.469.028Zm9.862-.028v-.028a4.627,4.627,0,1,0-9.255.028v.028a4.628,4.628,0,1,0,9.255-.028Zm-6.784-2.935h2.474a2.341,2.341,0,0,1,1.719.607,1.669,1.669,0,0,1,.466,1.214v.033a1.74,1.74,0,0,1-1.2,1.721l1.36,1.995h-1.434l-1.186-1.793h-.966v1.793h-1.231Zm2.461,2.72c.62,0,.955-.331.955-.794v-.028c0-.535-.381-.809-.988-.809h-1.2v1.634Z" transform="translate(-146.963 -254.867)" fill="#47312e"></path>
    </g>
  </g>
</svg>
