<?xml version="1.0" encoding="UTF-8"?>
<svg version="1.1" xmlns="http://www.w3.org/2000/svg" width="600" height="600">
<path d="M0 0 C23.76 0 47.52 0 72 0 C72 0.66 72 1.32 72 2 C77.28 2 82.56 2 88 2 C88 2.66 88 3.32 88 4 C91.3 4 94.6 4 98 4 C98 4.66 98 5.32 98 6 C100.64 6 103.28 6 106 6 C106 6.66 106 7.32 106 8 C108.64 8 111.28 8 114 8 C114 8.66 114 9.32 114 10 C116.64 10 119.28 10 122 10 C122 10.66 122 11.32 122 12 C123.98 12 125.96 12 128 12 C128 12.66 128 13.32 128 14 C129.98 14 131.96 14 134 14 C134 14.66 134 15.32 134 16 C135.98 16 137.96 16 140 16 C140 16.66 140 17.32 140 18 C141.32 18 142.64 18 144 18 C144 18.66 144 19.32 144 20 C145.98 20 147.96 20 150 20 C150 20.66 150 21.32 150 22 C151.32 22 152.64 22 154 22 C154 22.66 154 23.32 154 24 C155.98 24 157.96 24 160 24 C160 24.66 160 25.32 160 26 C161.32 26 162.64 26 164 26 C164 26.66 164 27.32 164 28 C165.32 28 166.64 28 168 28 C168 28.66 168 29.32 168 30 C169.32 30 170.64 30 172 30 C172 30.66 172 31.32 172 32 C173.32 32 174.64 32 176 32 C176 32.66 176 33.32 176 34 C177.32 34 178.64 34 180 34 C180 34.66 180 35.32 180 36 C181.32 36 182.64 36 184 36 C184 36.66 184 37.32 184 38 C184.66 38 185.32 38 186 38 C186 38.66 186 39.32 186 40 C187.32 40 188.64 40 190 40 C190 40.66 190 41.32 190 42 C191.32 42 192.64 42 194 42 C194 42.66 194 43.32 194 44 C194.66 44 195.32 44 196 44 C196 44.66 196 45.32 196 46 C197.32 46 198.64 46 200 46 C200 46.66 200 47.32 200 48 C200.66 48 201.32 48 202 48 C202 48.66 202 49.32 202 50 C203.32 50 204.64 50 206 50 C206 50.66 206 51.32 206 52 C206.66 52 207.32 52 208 52 C208 52.66 208 53.32 208 54 C209.32 54 210.64 54 212 54 C212 54.66 212 55.32 212 56 C212.66 56 213.32 56 214 56 C214 56.66 214 57.32 214 58 C214.66 58 215.32 58 216 58 C216 58.66 216 59.32 216 60 C217.32 60 218.64 60 220 60 C220 60.66 220 61.32 220 62 C220.66 62 221.32 62 222 62 C222 62.66 222 63.32 222 64 C222.66 64 223.32 64 224 64 C224 64.66 224 65.32 224 66 C224.66 66 225.32 66 226 66 C226 66.66 226 67.32 226 68 C227.32 68 228.64 68 230 68 C230 68.66 230 69.32 230 70 C230.66 70 231.32 70 232 70 C232 70.66 232 71.32 232 72 C232.66 72 233.32 72 234 72 C234 72.66 234 73.32 234 74 C234.66 74 235.32 74 236 74 C236 74.66 236 75.32 236 76 C236.66 76 237.32 76 238 76 C238 76.66 238 77.32 238 78 C238.66 78 239.32 78 240 78 C240 78.66 240 79.32 240 80 C240.66 80 241.32 80 242 80 C242 80.66 242 81.32 242 82 C242.66 82 243.32 82 244 82 C244 82.66 244 83.32 244 84 C245.32 84 246.64 84 248 84 C248 84.66 248 85.32 248 86 C248.66 86 249.32 86 250 86 C250 86.66 250 87.32 250 88 C250.66 88 251.32 88 252 88 C252 89.32 252 90.64 252 92 C252.66 92 253.32 92 254 92 C254 92.66 254 93.32 254 94 C254.66 94 255.32 94 256 94 C256 94.66 256 95.32 256 96 C256.66 96 257.32 96 258 96 C258 96.66 258 97.32 258 98 C258.66 98 259.32 98 260 98 C260 98.66 260 99.32 260 100 C260.66 100 261.32 100 262 100 C262 100.66 262 101.32 262 102 C262.66 102 263.32 102 264 102 C264 102.66 264 103.32 264 104 C264.66 104 265.32 104 266 104 C266 104.66 266 105.32 266 106 C266.66 106 267.32 106 268 106 C268 107.32 268 108.64 268 110 C268.66 110 269.32 110 270 110 C270 110.66 270 111.32 270 112 C270.66 112 271.32 112 272 112 C272 112.66 272 113.32 272 114 C272.66 114 273.32 114 274 114 C274 114.66 274 115.32 274 116 C274.66 116 275.32 116 276 116 C276 117.32 276 118.64 276 120 C276.66 120 277.32 120 278 120 C278 120.66 278 121.32 278 122 C278.66 122 279.32 122 280 122 C280 122.66 280 123.32 280 124 C280.66 124 281.32 124 282 124 C282 125.32 282 126.64 282 128 C282.66 128 283.32 128 284 128 C284 128.66 284 129.32 284 130 C284.66 130 285.32 130 286 130 C286 131.32 286 132.64 286 134 C286.66 134 287.32 134 288 134 C288 134.66 288 135.32 288 136 C288.66 136 289.32 136 290 136 C290 137.32 290 138.64 290 140 C290.66 140 291.32 140 292 140 C292 140.66 292 141.32 292 142 C292.66 142 293.32 142 294 142 C294 143.32 294 144.64 294 146 C294.66 146 295.32 146 296 146 C296 147.32 296 148.64 296 150 C296.66 150 297.32 150 298 150 C298 150.66 298 151.32 298 152 C298.66 152 299.32 152 300 152 C300 153.32 300 154.64 300 156 C300.66 156 301.32 156 302 156 C302 157.32 302 158.64 302 160 C302.66 160 303.32 160 304 160 C304 161.32 304 162.64 304 164 C304.66 164 305.32 164 306 164 C306 165.32 306 166.64 306 168 C306.66 168 307.32 168 308 168 C308 169.32 308 170.64 308 172 C308.66 172 309.32 172 310 172 C310 173.32 310 174.64 310 176 C310.66 176 311.32 176 312 176 C312 177.98 312 179.96 312 182 C312.66 182 313.32 182 314 182 C314 183.32 314 184.64 314 186 C314.66 186 315.32 186 316 186 C316 187.98 316 189.96 316 192 C316.66 192 317.32 192 318 192 C318 193.32 318 194.64 318 196 C318.66 196 319.32 196 320 196 C320 197.98 320 199.96 320 202 C320.66 202 321.32 202 322 202 C322 203.98 322 205.96 322 208 C322.66 208 323.32 208 324 208 C324 209.98 324 211.96 324 214 C324.66 214 325.32 214 326 214 C326 216.64 326 219.28 326 222 C326.66 222 327.32 222 328 222 C328 224.64 328 227.28 328 230 C328.66 230 329.32 230 330 230 C330 232.64 330 235.28 330 238 C330.66 238 331.32 238 332 238 C332 241.96 332 245.92 332 250 C332.66 250 333.32 250 334 250 C334 254.62 334 259.24 334 264 C334.66 264 335.32 264 336 264 C336 287.76 336 311.52 336 336 C335.34 336 334.68 336 334 336 C334 340.62 334 345.24 334 350 C333.34 350 332.68 350 332 350 C332 353.96 332 357.92 332 362 C331.34 362 330.68 362 330 362 C330 364.64 330 367.28 330 370 C329.34 370 328.68 370 328 370 C328 372.64 328 375.28 328 378 C327.34 378 326.68 378 326 378 C326 380.64 326 383.28 326 386 C325.34 386 324.68 386 324 386 C324 387.98 324 389.96 324 392 C323.34 392 322.68 392 322 392 C322 393.98 322 395.96 322 398 C321.34 398 320.68 398 320 398 C320 399.98 320 401.96 320 404 C319.34 404 318.68 404 318 404 C318 405.32 318 406.64 318 408 C317.34 408 316.68 408 316 408 C316 409.98 316 411.96 316 414 C315.34 414 314.68 414 314 414 C314 415.32 314 416.64 314 418 C313.34 418 312.68 418 312 418 C312 419.98 312 421.96 312 424 C311.34 424 310.68 424 310 424 C310 425.32 310 426.64 310 428 C309.34 428 308.68 428 308 428 C308 429.32 308 430.64 308 432 C307.34 432 306.68 432 306 432 C306 433.32 306 434.64 306 436 C305.34 436 304.68 436 304 436 C304 437.32 304 438.64 304 440 C303.34 440 302.68 440 302 440 C302 441.32 302 442.64 302 444 C301.34 444 300.68 444 300 444 C300 444.66 300 445.32 300 446 C299.34 446 298.68 446 298 446 C298 447.32 298 448.64 298 450 C297.34 450 296.68 450 296 450 C296 451.32 296 452.64 296 454 C295.34 454 294.68 454 294 454 C294 455.32 294 456.64 294 458 C293.34 458 292.68 458 292 458 C292 458.66 292 459.32 292 460 C291.34 460 290.68 460 290 460 C290 461.32 290 462.64 290 464 C289.34 464 288.68 464 288 464 C288 464.66 288 465.32 288 466 C287.34 466 286.68 466 286 466 C286 467.32 286 468.64 286 470 C285.34 470 284.68 470 284 470 C284 470.66 284 471.32 284 472 C283.34 472 282.68 472 282 472 C282 473.32 282 474.64 282 476 C281.34 476 280.68 476 280 476 C280 476.66 280 477.32 280 478 C279.34 478 278.68 478 278 478 C278 478.66 278 479.32 278 480 C277.34 480 276.68 480 276 480 C276 481.32 276 482.64 276 484 C275.34 484 274.68 484 274 484 C274 484.66 274 485.32 274 486 C273.34 486 272.68 486 272 486 C272 486.66 272 487.32 272 488 C271.34 488 270.68 488 270 488 C270 488.66 270 489.32 270 490 C269.34 490 268.68 490 268 490 C268 491.32 268 492.64 268 494 C267.34 494 266.68 494 266 494 C266 494.66 266 495.32 266 496 C265.34 496 264.68 496 264 496 C264 496.66 264 497.32 264 498 C263.34 498 262.68 498 262 498 C262 498.66 262 499.32 262 500 C261.34 500 260.68 500 260 500 C260 500.66 260 501.32 260 502 C259.34 502 258.68 502 258 502 C258 502.66 258 503.32 258 504 C257.34 504 256.68 504 256 504 C256 504.66 256 505.32 256 506 C255.34 506 254.68 506 254 506 C254 506.66 254 507.32 254 508 C253.34 508 252.68 508 252 508 C252 508.66 252 509.32 252 510 C251.34 510 250.68 510 250 510 C250 510.66 250 511.32 250 512 C249.34 512 248.68 512 248 512 C248 512.66 248 513.32 248 514 C247.34 514 246.68 514 246 514 C246 514.66 246 515.32 246 516 C245.34 516 244.68 516 244 516 C244 516.66 244 517.32 244 518 C243.34 518 242.68 518 242 518 C242 518.66 242 519.32 242 520 C241.34 520 240.68 520 240 520 C240 520.66 240 521.32 240 522 C239.34 522 238.68 522 238 522 C238 522.66 238 523.32 238 524 C237.34 524 236.68 524 236 524 C236 524.66 236 525.32 236 526 C235.34 526 234.68 526 234 526 C234 526.66 234 527.32 234 528 C233.34 528 232.68 528 232 528 C232 528.66 232 529.32 232 530 C231.34 530 230.68 530 230 530 C230 530.66 230 531.32 230 532 C228.68 532 227.36 532 226 532 C226 532.66 226 533.32 226 534 C225.34 534 224.68 534 224 534 C224 534.66 224 535.32 224 536 C223.34 536 222.68 536 222 536 C222 536.66 222 537.32 222 538 C221.34 538 220.68 538 220 538 C220 538.66 220 539.32 220 540 C218.68 540 217.36 540 216 540 C216 540.66 216 541.32 216 542 C215.34 542 214.68 542 214 542 C214 542.66 214 543.32 214 544 C213.34 544 212.68 544 212 544 C212 544.66 212 545.32 212 546 C210.68 546 209.36 546 208 546 C208 546.66 208 547.32 208 548 C207.34 548 206.68 548 206 548 C206 548.66 206 549.32 206 550 C204.68 550 203.36 550 202 550 C202 550.66 202 551.32 202 552 C201.34 552 200.68 552 200 552 C200 552.66 200 553.32 200 554 C198.68 554 197.36 554 196 554 C196 554.66 196 555.32 196 556 C195.34 556 194.68 556 194 556 C194 556.66 194 557.32 194 558 C192.68 558 191.36 558 190 558 C190 558.66 190 559.32 190 560 C188.68 560 187.36 560 186 560 C186 560.66 186 561.32 186 562 C184.68 562 183.36 562 182 562 C182 562.66 182 563.32 182 564 C181.34 564 180.68 564 180 564 C180 564.66 180 565.32 180 566 C178.68 566 177.36 566 176 566 C176 566.66 176 567.32 176 568 C174.68 568 173.36 568 172 568 C172 568.66 172 569.32 172 570 C170.68 570 169.36 570 168 570 C168 570.66 168 571.32 168 572 C166.68 572 165.36 572 164 572 C164 572.66 164 573.32 164 574 C162.68 574 161.36 574 160 574 C160 574.66 160 575.32 160 576 C158.02 576 156.04 576 154 576 C154 576.66 154 577.32 154 578 C152.68 578 151.36 578 150 578 C150 578.66 150 579.32 150 580 C148.02 580 146.04 580 144 580 C144 580.66 144 581.32 144 582 C142.68 582 141.36 582 140 582 C140 582.66 140 583.32 140 584 C138.02 584 136.04 584 134 584 C134 584.66 134 585.32 134 586 C132.02 586 130.04 586 128 586 C128 586.66 128 587.32 128 588 C126.02 588 124.04 588 122 588 C122 588.66 122 589.32 122 590 C119.36 590 116.72 590 114 590 C114 590.66 114 591.32 114 592 C111.36 592 108.72 592 106 592 C106 592.66 106 593.32 106 594 C103.36 594 100.72 594 98 594 C98 594.66 98 595.32 98 596 C94.04 596 90.08 596 86 596 C86 596.66 86 597.32 86 598 C81.38 598 76.76 598 72 598 C72 598.66 72 599.32 72 600 C48.24 600 24.48 600 0 600 C0 599.34 0 598.68 0 598 C-4.62 598 -9.24 598 -14 598 C-14 597.34 -14 596.68 -14 596 C-17.96 596 -21.92 596 -26 596 C-26 595.34 -26 594.68 -26 594 C-28.64 594 -31.28 594 -34 594 C-34 593.34 -34 592.68 -34 592 C-36.64 592 -39.28 592 -42 592 C-42 591.34 -42 590.68 -42 590 C-44.64 590 -47.28 590 -50 590 C-50 589.34 -50 588.68 -50 588 C-51.98 588 -53.96 588 -56 588 C-56 587.34 -56 586.68 -56 586 C-57.98 586 -59.96 586 -62 586 C-62 585.34 -62 584.68 -62 584 C-63.98 584 -65.96 584 -68 584 C-68 583.34 -68 582.68 -68 582 C-69.32 582 -70.64 582 -72 582 C-72 581.34 -72 580.68 -72 580 C-73.98 580 -75.96 580 -78 580 C-78 579.34 -78 578.68 -78 578 C-79.32 578 -80.64 578 -82 578 C-82 577.34 -82 576.68 -82 576 C-83.98 576 -85.96 576 -88 576 C-88 575.34 -88 574.68 -88 574 C-89.32 574 -90.64 574 -92 574 C-92 573.34 -92 572.68 -92 572 C-93.32 572 -94.64 572 -96 572 C-96 571.34 -96 570.68 -96 570 C-97.32 570 -98.64 570 -100 570 C-100 569.34 -100 568.68 -100 568 C-101.32 568 -102.64 568 -104 568 C-104 567.34 -104 566.68 -104 566 C-105.32 566 -106.64 566 -108 566 C-108 565.34 -108 564.68 -108 564 C-108.66 564 -109.32 564 -110 564 C-110 563.34 -110 562.68 -110 562 C-111.32 562 -112.64 562 -114 562 C-114 561.34 -114 560.68 -114 560 C-115.32 560 -116.64 560 -118 560 C-118 559.34 -118 558.68 -118 558 C-119.32 558 -120.64 558 -122 558 C-122 557.34 -122 556.68 -122 556 C-122.66 556 -123.32 556 -124 556 C-124 555.34 -124 554.68 -124 554 C-125.32 554 -126.64 554 -128 554 C-128 553.34 -128 552.68 -128 552 C-128.66 552 -129.32 552 -130 552 C-130 551.34 -130 550.68 -130 550 C-131.32 550 -132.64 550 -134 550 C-134 549.34 -134 548.68 -134 548 C-134.66 548 -135.32 548 -136 548 C-136 547.34 -136 546.68 -136 546 C-137.32 546 -138.64 546 -140 546 C-140 545.34 -140 544.68 -140 544 C-140.66 544 -141.32 544 -142 544 C-142 543.34 -142 542.68 -142 542 C-142.66 542 -143.32 542 -144 542 C-144 541.34 -144 540.68 -144 540 C-145.32 540 -146.64 540 -148 540 C-148 539.34 -148 538.68 -148 538 C-148.66 538 -149.32 538 -150 538 C-150 537.34 -150 536.68 -150 536 C-150.66 536 -151.32 536 -152 536 C-152 535.34 -152 534.68 -152 534 C-152.66 534 -153.32 534 -154 534 C-154 533.34 -154 532.68 -154 532 C-155.32 532 -156.64 532 -158 532 C-158 531.34 -158 530.68 -158 530 C-158.66 530 -159.32 530 -160 530 C-160 529.34 -160 528.68 -160 528 C-160.66 528 -161.32 528 -162 528 C-162 527.34 -162 526.68 -162 526 C-162.66 526 -163.32 526 -164 526 C-164 525.34 -164 524.68 -164 524 C-164.66 524 -165.32 524 -166 524 C-166 523.34 -166 522.68 -166 522 C-166.66 522 -167.32 522 -168 522 C-168 521.34 -168 520.68 -168 520 C-168.66 520 -169.32 520 -170 520 C-170 519.34 -170 518.68 -170 518 C-170.66 518 -171.32 518 -172 518 C-172 517.34 -172 516.68 -172 516 C-172.66 516 -173.32 516 -174 516 C-174 515.34 -174 514.68 -174 514 C-174.66 514 -175.32 514 -176 514 C-176 513.34 -176 512.68 -176 512 C-176.66 512 -177.32 512 -178 512 C-178 511.34 -178 510.68 -178 510 C-178.66 510 -179.32 510 -180 510 C-180 509.34 -180 508.68 -180 508 C-180.66 508 -181.32 508 -182 508 C-182 507.34 -182 506.68 -182 506 C-182.66 506 -183.32 506 -184 506 C-184 505.34 -184 504.68 -184 504 C-184.66 504 -185.32 504 -186 504 C-186 503.34 -186 502.68 -186 502 C-186.66 502 -187.32 502 -188 502 C-188 501.34 -188 500.68 -188 500 C-188.66 500 -189.32 500 -190 500 C-190 499.34 -190 498.68 -190 498 C-190.66 498 -191.32 498 -192 498 C-192 497.34 -192 496.68 -192 496 C-192.66 496 -193.32 496 -194 496 C-194 495.34 -194 494.68 -194 494 C-194.66 494 -195.32 494 -196 494 C-196 492.68 -196 491.36 -196 490 C-196.66 490 -197.32 490 -198 490 C-198 489.34 -198 488.68 -198 488 C-198.66 488 -199.32 488 -200 488 C-200 487.34 -200 486.68 -200 486 C-200.66 486 -201.32 486 -202 486 C-202 485.34 -202 484.68 -202 484 C-202.66 484 -203.32 484 -204 484 C-204 482.68 -204 481.36 -204 480 C-204.66 480 -205.32 480 -206 480 C-206 479.34 -206 478.68 -206 478 C-206.66 478 -207.32 478 -208 478 C-208 477.34 -208 476.68 -208 476 C-208.66 476 -209.32 476 -210 476 C-210 474.68 -210 473.36 -210 472 C-210.66 472 -211.32 472 -212 472 C-212 471.34 -212 470.68 -212 470 C-212.66 470 -213.32 470 -214 470 C-214 468.68 -214 467.36 -214 466 C-214.66 466 -215.32 466 -216 466 C-216 465.34 -216 464.68 -216 464 C-216.66 464 -217.32 464 -218 464 C-218 462.68 -218 461.36 -218 460 C-218.66 460 -219.32 460 -220 460 C-220 459.34 -220 458.68 -220 458 C-220.66 458 -221.32 458 -222 458 C-222 456.68 -222 455.36 -222 454 C-222.66 454 -223.32 454 -224 454 C-224 452.68 -224 451.36 -224 450 C-224.66 450 -225.32 450 -226 450 C-226 448.68 -226 447.36 -226 446 C-226.66 446 -227.32 446 -228 446 C-228 445.34 -228 444.68 -228 444 C-228.66 444 -229.32 444 -230 444 C-230 442.68 -230 441.36 -230 440 C-230.66 440 -231.32 440 -232 440 C-232 438.68 -232 437.36 -232 436 C-232.66 436 -233.32 436 -234 436 C-234 434.68 -234 433.36 -234 432 C-234.66 432 -235.32 432 -236 432 C-236 430.68 -236 429.36 -236 428 C-236.66 428 -237.32 428 -238 428 C-238 426.68 -238 425.36 -238 424 C-238.66 424 -239.32 424 -240 424 C-240 422.02 -240 420.04 -240 418 C-240.66 418 -241.32 418 -242 418 C-242 416.68 -242 415.36 -242 414 C-242.66 414 -243.32 414 -244 414 C-244 412.02 -244 410.04 -244 408 C-244.66 408 -245.32 408 -246 408 C-246 406.68 -246 405.36 -246 404 C-246.66 404 -247.32 404 -248 404 C-248 402.02 -248 400.04 -248 398 C-248.66 398 -249.32 398 -250 398 C-250 396.02 -250 394.04 -250 392 C-250.66 392 -251.32 392 -252 392 C-252 390.02 -252 388.04 -252 386 C-252.66 386 -253.32 386 -254 386 C-254 383.36 -254 380.72 -254 378 C-254.66 378 -255.32 378 -256 378 C-256 375.36 -256 372.72 -256 370 C-256.66 370 -257.32 370 -258 370 C-258 367.36 -258 364.72 -258 362 C-258.66 362 -259.32 362 -260 362 C-260 358.04 -260 354.08 -260 350 C-260.66 350 -261.32 350 -262 350 C-262 345.38 -262 340.76 -262 336 C-262.66 336 -263.32 336 -264 336 C-264 312.24 -264 288.48 -264 264 C-263.34 264 -262.68 264 -262 264 C-262 259.38 -262 254.76 -262 250 C-261.34 250 -260.68 250 -260 250 C-260 246.04 -260 242.08 -260 238 C-259.34 238 -258.68 238 -258 238 C-258 235.36 -258 232.72 -258 230 C-257.34 230 -256.68 230 -256 230 C-256 227.36 -256 224.72 -256 222 C-255.34 222 -254.68 222 -254 222 C-254 219.36 -254 216.72 -254 214 C-253.34 214 -252.68 214 -252 214 C-252 212.02 -252 210.04 -252 208 C-251.34 208 -250.68 208 -250 208 C-250 206.02 -250 204.04 -250 202 C-249.34 202 -248.68 202 -248 202 C-248 200.02 -248 198.04 -248 196 C-247.34 196 -246.68 196 -246 196 C-246 194.68 -246 193.36 -246 192 C-245.34 192 -244.68 192 -244 192 C-244 190.02 -244 188.04 -244 186 C-243.34 186 -242.68 186 -242 186 C-242 184.68 -242 183.36 -242 182 C-241.34 182 -240.68 182 -240 182 C-240 180.02 -240 178.04 -240 176 C-239.34 176 -238.68 176 -238 176 C-238 174.68 -238 173.36 -238 172 C-237.34 172 -236.68 172 -236 172 C-236 170.68 -236 169.36 -236 168 C-235.34 168 -234.68 168 -234 168 C-234 166.68 -234 165.36 -234 164 C-233.34 164 -232.68 164 -232 164 C-232 162.68 -232 161.36 -232 160 C-231.34 160 -230.68 160 -230 160 C-230 158.68 -230 157.36 -230 156 C-229.34 156 -228.68 156 -228 156 C-228 155.34 -228 154.68 -228 154 C-227.34 154 -226.68 154 -226 154 C-226 152.68 -226 151.36 -226 150 C-225.34 150 -224.68 150 -224 150 C-224 148.68 -224 147.36 -224 146 C-223.34 146 -222.68 146 -222 146 C-222 144.68 -222 143.36 -222 142 C-221.34 142 -220.68 142 -220 142 C-220 141.34 -220 140.68 -220 140 C-219.34 140 -218.68 140 -218 140 C-218 138.68 -218 137.36 -218 136 C-217.34 136 -216.68 136 -216 136 C-216 135.34 -216 134.68 -216 134 C-215.34 134 -214.68 134 -214 134 C-214 132.68 -214 131.36 -214 130 C-213.34 130 -212.68 130 -212 130 C-212 129.34 -212 128.68 -212 128 C-211.34 128 -210.68 128 -210 128 C-210 126.68 -210 125.36 -210 124 C-209.34 124 -208.68 124 -208 124 C-208 123.34 -208 122.68 -208 122 C-207.34 122 -206.68 122 -206 122 C-206 121.34 -206 120.68 -206 120 C-205.34 120 -204.68 120 -204 120 C-204 118.68 -204 117.36 -204 116 C-203.34 116 -202.68 116 -202 116 C-202 115.34 -202 114.68 -202 114 C-201.34 114 -200.68 114 -200 114 C-200 113.34 -200 112.68 -200 112 C-199.34 112 -198.68 112 -198 112 C-198 111.34 -198 110.68 -198 110 C-197.34 110 -196.68 110 -196 110 C-196 108.68 -196 107.36 -196 106 C-195.34 106 -194.68 106 -194 106 C-194 105.34 -194 104.68 -194 104 C-193.34 104 -192.68 104 -192 104 C-192 103.34 -192 102.68 -192 102 C-191.34 102 -190.68 102 -190 102 C-190 101.34 -190 100.68 -190 100 C-189.34 100 -188.68 100 -188 100 C-188 99.34 -188 98.68 -188 98 C-187.34 98 -186.68 98 -186 98 C-186 97.34 -186 96.68 -186 96 C-185.34 96 -184.68 96 -184 96 C-184 95.34 -184 94.68 -184 94 C-183.34 94 -182.68 94 -182 94 C-182 93.34 -182 92.68 -182 92 C-181.34 92 -180.68 92 -180 92 C-180 91.34 -180 90.68 -180 90 C-179.34 90 -178.68 90 -178 90 C-178 89.34 -178 88.68 -178 88 C-177.34 88 -176.68 88 -176 88 C-176 87.34 -176 86.68 -176 86 C-175.34 86 -174.68 86 -174 86 C-174 85.34 -174 84.68 -174 84 C-173.34 84 -172.68 84 -172 84 C-172 83.34 -172 82.68 -172 82 C-171.34 82 -170.68 82 -170 82 C-170 81.34 -170 80.68 -170 80 C-169.34 80 -168.68 80 -168 80 C-168 79.34 -168 78.68 -168 78 C-167.34 78 -166.68 78 -166 78 C-166 77.34 -166 76.68 -166 76 C-165.34 76 -164.68 76 -164 76 C-164 75.34 -164 74.68 -164 74 C-163.34 74 -162.68 74 -162 74 C-162 73.34 -162 72.68 -162 72 C-161.34 72 -160.68 72 -160 72 C-160 71.34 -160 70.68 -160 70 C-159.34 70 -158.68 70 -158 70 C-158 69.34 -158 68.68 -158 68 C-156.68 68 -155.36 68 -154 68 C-154 67.34 -154 66.68 -154 66 C-153.34 66 -152.68 66 -152 66 C-152 65.34 -152 64.68 -152 64 C-151.34 64 -150.68 64 -150 64 C-150 63.34 -150 62.68 -150 62 C-149.34 62 -148.68 62 -148 62 C-148 61.34 -148 60.68 -148 60 C-146.68 60 -145.36 60 -144 60 C-144 59.34 -144 58.68 -144 58 C-143.34 58 -142.68 58 -142 58 C-142 57.34 -142 56.68 -142 56 C-141.34 56 -140.68 56 -140 56 C-140 55.34 -140 54.68 -140 54 C-138.68 54 -137.36 54 -136 54 C-136 53.34 -136 52.68 -136 52 C-135.34 52 -134.68 52 -134 52 C-134 51.34 -134 50.68 -134 50 C-132.68 50 -131.36 50 -130 50 C-130 49.34 -130 48.68 -130 48 C-129.34 48 -128.68 48 -128 48 C-128 47.34 -128 46.68 -128 46 C-126.68 46 -125.36 46 -124 46 C-124 45.34 -124 44.68 -124 44 C-123.34 44 -122.68 44 -122 44 C-122 43.34 -122 42.68 -122 42 C-120.68 42 -119.36 42 -118 42 C-118 41.34 -118 40.68 -118 40 C-116.68 40 -115.36 40 -114 40 C-114 39.34 -114 38.68 -114 38 C-112.68 38 -111.36 38 -110 38 C-110 37.34 -110 36.68 -110 36 C-109.34 36 -108.68 36 -108 36 C-108 35.34 -108 34.68 -108 34 C-106.68 34 -105.36 34 -104 34 C-104 33.34 -104 32.68 -104 32 C-102.68 32 -101.36 32 -100 32 C-100 31.34 -100 30.68 -100 30 C-98.68 30 -97.36 30 -96 30 C-96 29.34 -96 28.68 -96 28 C-94.68 28 -93.36 28 -92 28 C-92 27.34 -92 26.68 -92 26 C-90.68 26 -89.36 26 -88 26 C-88 25.34 -88 24.68 -88 24 C-86.02 24 -84.04 24 -82 24 C-82 23.34 -82 22.68 -82 22 C-80.68 22 -79.36 22 -78 22 C-78 21.34 -78 20.68 -78 20 C-76.02 20 -74.04 20 -72 20 C-72 19.34 -72 18.68 -72 18 C-70.68 18 -69.36 18 -68 18 C-68 17.34 -68 16.68 -68 16 C-66.02 16 -64.04 16 -62 16 C-62 15.34 -62 14.68 -62 14 C-60.02 14 -58.04 14 -56 14 C-56 13.34 -56 12.68 -56 12 C-54.02 12 -52.04 12 -50 12 C-50 11.34 -50 10.68 -50 10 C-47.36 10 -44.72 10 -42 10 C-42 9.34 -42 8.68 -42 8 C-39.36 8 -36.72 8 -34 8 C-34 7.34 -34 6.68 -34 6 C-31.36 6 -28.72 6 -26 6 C-26 5.34 -26 4.68 -26 4 C-22.04 4 -18.08 4 -14 4 C-14 3.34 -14 2.68 -14 2 C-9.38 2 -4.76 2 0 2 C0 1.34 0 0.68 0 0 Z " fill="#0A2A79" transform="translate(264,0)"/>
<path d="M0 0 C1.32 0 2.64 0 4 0 C4 0.66 4 1.32 4 2 C4.66 2 5.32 2 6 2 C6 2.66 6 3.32 6 4 C6.66 4 7.32 4 8 4 C8 4.66 8 5.32 8 6 C8.66 6 9.32 6 10 6 C10 6.66 10 7.32 10 8 C10.66 8 11.32 8 12 8 C12 8.66 12 9.32 12 10 C12.66 10 13.32 10 14 10 C14 10.66 14 11.32 14 12 C14.66 12 15.32 12 16 12 C16 12.66 16 13.32 16 14 C17.32 14 18.64 14 20 14 C20 14.66 20 15.32 20 16 C20.66 16 21.32 16 22 16 C22 16.66 22 17.32 22 18 C22.66 18 23.32 18 24 18 C24 18.66 24 19.32 24 20 C24.66 20 25.32 20 26 20 C26 20.66 26 21.32 26 22 C26.66 22 27.32 22 28 22 C28 22.66 28 23.32 28 24 C28.66 24 29.32 24 30 24 C30 24.66 30 25.32 30 26 C30.66 26 31.32 26 32 26 C32 26.66 32 27.32 32 28 C33.32 28 34.64 28 36 28 C36 28.66 36 29.32 36 30 C36.66 30 37.32 30 38 30 C38 30.66 38 31.32 38 32 C38.66 32 39.32 32 40 32 C40 32.66 40 33.32 40 34 C40.66 34 41.32 34 42 34 C42 34.66 42 35.32 42 36 C42.66 36 43.32 36 44 36 C44 36.66 44 37.32 44 38 C44.66 38 45.32 38 46 38 C46 38.66 46 39.32 46 40 C46.66 40 47.32 40 48 40 C48 40.66 48 41.32 48 42 C49.32 42 50.64 42 52 42 C52 30.12 52 18.24 52 6 C62.56 6 73.12 6 84 6 C84 40.32 84 74.64 84 110 C82.68 110 81.36 110 80 110 C80 108.68 80 107.36 80 106 C78.68 106 77.36 106 76 106 C76 105.34 76 104.68 76 104 C75.34 104 74.68 104 74 104 C74 103.34 74 102.68 74 102 C73.34 102 72.68 102 72 102 C72 101.34 72 100.68 72 100 C71.34 100 70.68 100 70 100 C70 99.34 70 98.68 70 98 C69.34 98 68.68 98 68 98 C68 97.34 68 96.68 68 96 C67.34 96 66.68 96 66 96 C66 95.34 66 94.68 66 94 C65.34 94 64.68 94 64 94 C64 93.34 64 92.68 64 92 C62.68 92 61.36 92 60 92 C60 91.34 60 90.68 60 90 C59.34 90 58.68 90 58 90 C58 89.34 58 88.68 58 88 C57.34 88 56.68 88 56 88 C56 87.34 56 86.68 56 86 C55.34 86 54.68 86 54 86 C54 85.34 54 84.68 54 84 C53.34 84 52.68 84 52 84 C52 83.34 52 82.68 52 82 C51.34 82 50.68 82 50 82 C50 81.34 50 80.68 50 80 C49.34 80 48.68 80 48 80 C48 79.34 48 78.68 48 78 C46.68 78 45.36 78 44 78 C44 77.34 44 76.68 44 76 C43.34 76 42.68 76 42 76 C42 75.34 42 74.68 42 74 C41.34 74 40.68 74 40 74 C40 73.34 40 72.68 40 72 C39.34 72 38.68 72 38 72 C38 71.34 38 70.68 38 70 C37.34 70 36.68 70 36 70 C36 69.34 36 68.68 36 68 C34.68 68 33.36 68 32 68 C32 79.88 32 91.76 32 104 C21.44 104 10.88 104 0 104 C0 69.68 0 35.36 0 0 Z " fill="#FDFEFE" transform="translate(80,246)"/>
<path d="M0 0 C1.32 0 2.64 0 4 0 C4 1.32 4 2.64 4 4 C4.66 4 5.32 4 6 4 C6 5.32 6 6.64 6 8 C6.66 8 7.32 8 8 8 C8 8.66 8 9.32 8 10 C8.66 10 9.32 10 10 10 C10 11.32 10 12.64 10 14 C10.66 14 11.32 14 12 14 C12 15.32 12 16.64 12 18 C12.66 18 13.32 18 14 18 C14 19.32 14 20.64 14 22 C14.66 22 15.32 22 16 22 C16 23.32 16 24.64 16 26 C16.66 26 17.32 26 18 26 C18 26.66 18 27.32 18 28 C18.66 28 19.32 28 20 28 C20 29.32 20 30.64 20 32 C20.66 32 21.32 32 22 32 C22 33.32 22 34.64 22 36 C22.66 36 23.32 36 24 36 C24 37.32 24 38.64 24 40 C24.66 40 25.32 40 26 40 C26 41.32 26 42.64 26 44 C26.66 44 27.32 44 28 44 C28 44.66 28 45.32 28 46 C28.66 46 29.32 46 30 46 C30 47.32 30 48.64 30 50 C30.66 50 31.32 50 32 50 C32 51.32 32 52.64 32 54 C32.66 54 33.32 54 34 54 C34 55.32 34 56.64 34 58 C34.66 58 35.32 58 36 58 C36 59.32 36 60.64 36 62 C36.66 62 37.32 62 38 62 C38 62.66 38 63.32 38 64 C38.66 64 39.32 64 40 64 C40 65.32 40 66.64 40 68 C40.66 68 41.32 68 42 68 C42 69.32 42 70.64 42 72 C42.66 72 43.32 72 44 72 C44 73.32 44 74.64 44 76 C44.66 76 45.32 76 46 76 C46 77.32 46 78.64 46 80 C46.66 80 47.32 80 48 80 C48 80.66 48 81.32 48 82 C48.66 82 49.32 82 50 82 C50 83.32 50 84.64 50 86 C50.66 86 51.32 86 52 86 C52 87.32 52 88.64 52 90 C52.66 90 53.32 90 54 90 C54 91.32 54 92.64 54 94 C54.66 94 55.32 94 56 94 C56 95.32 56 96.64 56 98 C56.66 98 57.32 98 58 98 C58 98.66 58 99.32 58 100 C58.66 100 59.32 100 60 100 C60 101.98 60 103.96 60 106 C49.44 106 38.88 106 28 106 C28 105.34 28 104.68 28 104 C27.34 104 26.68 104 26 104 C26 102.68 26 101.36 26 100 C25.34 100 24.68 100 24 100 C24 98.68 24 97.36 24 96 C23.34 96 22.68 96 22 96 C22 95.34 22 94.68 22 94 C8.8 94 -4.4 94 -18 94 C-18 95.32 -18 96.64 -18 98 C-18.66 98 -19.32 98 -20 98 C-20 99.32 -20 100.64 -20 102 C-20.66 102 -21.32 102 -22 102 C-22 103.32 -22 104.64 -22 106 C-33.22 106 -44.44 106 -56 106 C-56 104.68 -56 103.36 -56 102 C-55.34 102 -54.68 102 -54 102 C-54 100.68 -54 99.36 -54 98 C-53.34 98 -52.68 98 -52 98 C-52 97.34 -52 96.68 -52 96 C-51.34 96 -50.68 96 -50 96 C-50 94.68 -50 93.36 -50 92 C-49.34 92 -48.68 92 -48 92 C-48 90.68 -48 89.36 -48 88 C-47.34 88 -46.68 88 -46 88 C-46 86.68 -46 85.36 -46 84 C-45.34 84 -44.68 84 -44 84 C-44 82.68 -44 81.36 -44 80 C-43.34 80 -42.68 80 -42 80 C-42 78.68 -42 77.36 -42 76 C-41.34 76 -40.68 76 -40 76 C-40 75.34 -40 74.68 -40 74 C-39.34 74 -38.68 74 -38 74 C-38 72.68 -38 71.36 -38 70 C-37.34 70 -36.68 70 -36 70 C-36 68.68 -36 67.36 -36 66 C-35.34 66 -34.68 66 -34 66 C-34 64.68 -34 63.36 -34 62 C-33.34 62 -32.68 62 -32 62 C-32 60.68 -32 59.36 -32 58 C-31.34 58 -30.68 58 -30 58 C-30 57.34 -30 56.68 -30 56 C-29.34 56 -28.68 56 -28 56 C-28 54.68 -28 53.36 -28 52 C-27.34 52 -26.68 52 -26 52 C-26 50.68 -26 49.36 -26 48 C-25.34 48 -24.68 48 -24 48 C-24 46.68 -24 45.36 -24 44 C-23.34 44 -22.68 44 -22 44 C-22 42.68 -22 41.36 -22 40 C-21.34 40 -20.68 40 -20 40 C-20 39.34 -20 38.68 -20 38 C-19.34 38 -18.68 38 -18 38 C-18 36.68 -18 35.36 -18 34 C-17.34 34 -16.68 34 -16 34 C-16 32.68 -16 31.36 -16 30 C-15.34 30 -14.68 30 -14 30 C-14 28.68 -14 27.36 -14 26 C-13.34 26 -12.68 26 -12 26 C-12 24.68 -12 23.36 -12 22 C-11.34 22 -10.68 22 -10 22 C-10 21.34 -10 20.68 -10 20 C-9.34 20 -8.68 20 -8 20 C-8 18.68 -8 17.36 -8 16 C-7.34 16 -6.68 16 -6 16 C-6 14.68 -6 13.36 -6 12 C-5.34 12 -4.68 12 -4 12 C-4 10.68 -4 9.36 -4 8 C-3.34 8 -2.68 8 -2 8 C-2 7.34 -2 6.68 -2 6 C-1.34 6 -0.68 6 0 6 C0 4.02 0 2.04 0 0 Z " fill="#FAFAFC" transform="translate(474,244)"/>
<path d="M0 0 C21.12 0 42.24 0 64 0 C64 8.58 64 17.16 64 26 C53.44 26 42.88 26 32 26 C32 30.62 32 35.24 32 40 C42.56 40 53.12 40 64 40 C64 45.94 64 51.88 64 58 C53.44 58 42.88 58 32 58 C32 63.28 32 68.56 32 74 C42.56 74 53.12 74 64 74 C64 82.58 64 91.16 64 100 C42.88 100 21.76 100 0 100 C0 67 0 34 0 0 Z " fill="#FEFEFE" transform="translate(346,250)"/>
<path d="M0 0 C11.22 0 22.44 0 34 0 C34 0.66 34 1.32 34 2 C34.66 2 35.32 2 36 2 C36 3.32 36 4.64 36 6 C36.66 6 37.32 6 38 6 C38 7.32 38 8.64 38 10 C38.66 10 39.32 10 40 10 C40 11.32 40 12.64 40 14 C40.66 14 41.32 14 42 14 C42 15.32 42 16.64 42 18 C42.66 18 43.32 18 44 18 C44 19.32 44 20.64 44 22 C44.66 22 45.32 22 46 22 C46 23.32 46 24.64 46 26 C46.66 26 47.32 26 48 26 C48 27.32 48 28.64 48 30 C48.66 30 49.32 30 50 30 C50 31.32 50 32.64 50 34 C50.66 34 51.32 34 52 34 C52 35.32 52 36.64 52 38 C52.66 38 53.32 38 54 38 C54 39.32 54 40.64 54 42 C54.66 42 55.32 42 56 42 C56 41.34 56 40.68 56 40 C56.66 40 57.32 40 58 40 C58 38.68 58 37.36 58 36 C58.66 36 59.32 36 60 36 C60 34.68 60 33.36 60 32 C60.66 32 61.32 32 62 32 C62 30.68 62 29.36 62 28 C62.66 28 63.32 28 64 28 C64 26.68 64 25.36 64 24 C64.66 24 65.32 24 66 24 C66 22.68 66 21.36 66 20 C66.66 20 67.32 20 68 20 C68 18.68 68 17.36 68 16 C68.66 16 69.32 16 70 16 C70 14.68 70 13.36 70 12 C70.66 12 71.32 12 72 12 C72 10.68 72 9.36 72 8 C72.66 8 73.32 8 74 8 C74 6.68 74 5.36 74 4 C74.66 4 75.32 4 76 4 C76 2.68 76 1.36 76 0 C87.22 0 98.44 0 110 0 C110 1.32 110 2.64 110 4 C109.34 4 108.68 4 108 4 C108 5.32 108 6.64 108 8 C107.34 8 106.68 8 106 8 C106 9.32 106 10.64 106 12 C105.34 12 104.68 12 104 12 C104 13.32 104 14.64 104 16 C103.34 16 102.68 16 102 16 C102 17.32 102 18.64 102 20 C101.34 20 100.68 20 100 20 C100 21.32 100 22.64 100 24 C99.34 24 98.68 24 98 24 C98 25.32 98 26.64 98 28 C97.34 28 96.68 28 96 28 C96 28.66 96 29.32 96 30 C95.34 30 94.68 30 94 30 C94 31.32 94 32.64 94 34 C93.34 34 92.68 34 92 34 C92 35.32 92 36.64 92 38 C91.34 38 90.68 38 90 38 C90 39.32 90 40.64 90 42 C89.34 42 88.68 42 88 42 C88 43.32 88 44.64 88 46 C87.34 46 86.68 46 86 46 C86 47.32 86 48.64 86 50 C85.34 50 84.68 50 84 50 C84 51.32 84 52.64 84 54 C83.34 54 82.68 54 82 54 C82 55.32 82 56.64 82 58 C81.34 58 80.68 58 80 58 C80 58.66 80 59.32 80 60 C79.34 60 78.68 60 78 60 C78 61.32 78 62.64 78 64 C77.34 64 76.68 64 76 64 C76 65.32 76 66.64 76 68 C75.34 68 74.68 68 74 68 C74 69.32 74 70.64 74 72 C73.34 72 72.68 72 72 72 C72 73.32 72 74.64 72 76 C71.34 76 70.68 76 70 76 C70 77.32 70 78.64 70 80 C69.34 80 68.68 80 68 80 C68 81.32 68 82.64 68 84 C67.34 84 66.68 84 66 84 C66 85.32 66 86.64 66 88 C65.34 88 64.68 88 64 88 C64 88.66 64 89.32 64 90 C63.34 90 62.68 90 62 90 C62 91.32 62 92.64 62 94 C61.34 94 60.68 94 60 94 C60 95.32 60 96.64 60 98 C59.34 98 58.68 98 58 98 C58 99.32 58 100.64 58 102 C57.34 102 56.68 102 56 102 C56 102.66 56 103.32 56 104 C55.34 104 54.68 104 54 104 C54 102.68 54 101.36 54 100 C53.34 100 52.68 100 52 100 C52 98.68 52 97.36 52 96 C51.34 96 50.68 96 50 96 C50 94.68 50 93.36 50 92 C49.34 92 48.68 92 48 92 C48 90.68 48 89.36 48 88 C47.34 88 46.68 88 46 88 C46 86.68 46 85.36 46 84 C45.34 84 44.68 84 44 84 C44 83.34 44 82.68 44 82 C43.34 82 42.68 82 42 82 C42 80.68 42 79.36 42 78 C41.34 78 40.68 78 40 78 C40 76.68 40 75.36 40 74 C39.34 74 38.68 74 38 74 C38 72.68 38 71.36 38 70 C37.34 70 36.68 70 36 70 C36 68.68 36 67.36 36 66 C35.34 66 34.68 66 34 66 C34 64.68 34 63.36 34 62 C33.34 62 32.68 62 32 62 C32 60.68 32 59.36 32 58 C31.34 58 30.68 58 30 58 C30 56.68 30 55.36 30 54 C29.34 54 28.68 54 28 54 C28 52.68 28 51.36 28 50 C27.34 50 26.68 50 26 50 C26 49.34 26 48.68 26 48 C25.34 48 24.68 48 24 48 C24 46.68 24 45.36 24 44 C23.34 44 22.68 44 22 44 C22 42.68 22 41.36 22 40 C21.34 40 20.68 40 20 40 C20 38.68 20 37.36 20 36 C19.34 36 18.68 36 18 36 C18 34.68 18 33.36 18 32 C17.34 32 16.68 32 16 32 C16 30.68 16 29.36 16 28 C15.34 28 14.68 28 14 28 C14 26.68 14 25.36 14 24 C13.34 24 12.68 24 12 24 C12 22.68 12 21.36 12 20 C11.34 20 10.68 20 10 20 C10 19.34 10 18.68 10 18 C9.34 18 8.68 18 8 18 C8 16.68 8 15.36 8 14 C7.34 14 6.68 14 6 14 C6 12.68 6 11.36 6 10 C5.34 10 4.68 10 4 10 C4 8.68 4 7.36 4 6 C3.34 6 2.68 6 2 6 C2 4.68 2 3.36 2 2 C1.34 2 0.68 2 0 2 C0 1.34 0 0.68 0 0 Z " fill="#FBFBFC" transform="translate(230,252)"/>
<path d="M0 0 C10.56 0 21.12 0 32 0 C32 32.34 32 64.68 32 98 C21.44 98 10.88 98 0 98 C0 65.66 0 33.32 0 0 Z " fill="#FFFFFF" transform="translate(192,252)"/>
<path d="M0 0 C21.12 0 42.24 0 64 0 C64 0.66 64 1.32 64 2 C43.54 2 23.08 2 2 2 C2 33.68 2 65.36 2 98 C21.8 98 41.6 98 62 98 C62 90.08 62 82.16 62 74 C62.66 74 63.32 74 64 74 C64 82.58 64 91.16 64 100 C42.88 100 21.76 100 0 100 C0 67 0 34 0 0 Z " fill="#7D8EB8" transform="translate(346,250)"/>
<path d="M0 0 C1.32 0 2.64 0 4 0 C4 0.66 4 1.32 4 2 C4.66 2 5.32 2 6 2 C6 3.32 6 4.64 6 6 C6.66 6 7.32 6 8 6 C8 7.98 8 9.96 8 12 C8.66 12 9.32 12 10 12 C10 13.32 10 14.64 10 16 C10.66 16 11.32 16 12 16 C12 17.32 12 18.64 12 20 C12.66 20 13.32 20 14 20 C14 20.66 14 21.32 14 22 C6.74 22 -0.52 22 -8 22 C-8 20.02 -8 18.04 -8 16 C-7.34 16 -6.68 16 -6 16 C-6 14.68 -6 13.36 -6 12 C-5.34 12 -4.68 12 -4 12 C-4 10.68 -4 9.36 -4 8 C-3.34 8 -2.68 8 -2 8 C-2 6.68 -2 5.36 -2 4 C-1.34 4 -0.68 4 0 4 C0 2.68 0 1.36 0 0 Z " fill="#102E7B" transform="translate(474,300)"/>
<path d="M0 0 C0.66 0 1.32 0 2 0 C2 31.68 2 63.36 2 96 C11.9 96 21.8 96 32 96 C32 96.66 32 97.32 32 98 C21.44 98 10.88 98 0 98 C0 65.66 0 33.32 0 0 Z " fill="#C7CEE0" transform="translate(192,252)"/>
<path d="M0 0 C1.32 0 2.64 0 4 0 C4 0.66 4 1.32 4 2 C3.34 2 2.68 2 2 2 C2 36.32 2 70.64 2 106 C1.34 106 0.68 106 0 106 C0 71.02 0 36.04 0 0 Z " fill="#5E73A7" transform="translate(78,244)"/>
<path d="M0 0 C0.66 0 1.32 0 2 0 C2 34.32 2 68.64 2 104 C0.68 104 -0.64 104 -2 104 C-2 103.34 -2 102.68 -2 102 C-1.34 102 -0.68 102 0 102 C0 68.34 0 34.68 0 0 Z " fill="#BBC4DA" transform="translate(162,252)"/>
<path d="M0 0 C1.32 0 2.64 0 4 0 C4 32.34 4 64.68 4 98 C3.34 98 2.68 98 2 98 C2 66.32 2 34.64 2 2 C1.34 2 0.68 2 0 2 C0 1.34 0 0.68 0 0 Z " fill="#001B70" transform="translate(342,252)"/>
<path d="M0 0 C0.66 0 1.32 0 2 0 C2 0.66 2 1.32 2 2 C2.66 2 3.32 2 4 2 C4 2.66 4 3.32 4 4 C3.34 4 2.68 4 2 4 C2 35.02 2 66.04 2 98 C1.34 98 0.68 98 0 98 C0 65.66 0 33.32 0 0 Z " fill="#001C70" transform="translate(226,252)"/>
<path d="M0 0 C0.66 0 1.32 0 2 0 C2 8.58 2 17.16 2 26 C-18.46 26 -38.92 26 -60 26 C-60 25.34 -60 24.68 -60 24 C-40.2 24 -20.4 24 0 24 C0 16.08 0 8.16 0 0 Z " fill="#B1BCD4" transform="translate(408,324)"/>
<path d="M0 0 C13.2 0 26.4 0 40 0 C40 1.32 40 2.64 40 4 C26.8 4 13.6 4 0 4 C0 2.68 0 1.36 0 0 Z " fill="#2F478B" transform="translate(456,338)"/>
<path d="M0 0 C10.56 0 21.12 0 32 0 C32 0.66 32 1.32 32 2 C22.1 2 12.2 2 2 2 C2 5.96 2 9.92 2 14 C11.9 14 21.8 14 32 14 C32 14.66 32 15.32 32 16 C21.44 16 10.88 16 0 16 C0 10.72 0 5.44 0 0 Z " fill="#5268A0" transform="translate(378,308)"/>
<path d="M0 0 C1.32 0 2.64 0 4 0 C4 0.66 4 1.32 4 2 C3.34 2 2.68 2 2 2 C2 13.88 2 25.76 2 38 C-8.56 38 -19.12 38 -30 38 C-30 37.34 -30 36.68 -30 36 C-20.1 36 -10.2 36 0 36 C0 24.12 0 12.24 0 0 Z " fill="#B8C1D8" transform="translate(110,312)"/>
<path d="M0 0 C9.9 0 19.8 0 30 0 C30 0.66 30 1.32 30 2 C20.76 2 11.52 2 2 2 C2 4.64 2 7.28 2 10 C11.24 10 20.48 10 30 10 C30 10.66 30 11.32 30 12 C20.1 12 10.2 12 0 12 C0 8.04 0 4.08 0 0 Z " fill="#001C70" transform="translate(380,310)"/>
<path d="M0 0 C9.9 0 19.8 0 30 0 C30 0.66 30 1.32 30 2 C20.76 2 11.52 2 2 2 C2 3.98 2 5.96 2 8 C11.24 8 20.48 8 30 8 C30 8.66 30 9.32 30 10 C20.1 10 10.2 10 0 10 C0 6.7 0 3.4 0 0 Z " fill="#001F72" transform="translate(380,278)"/>
<path d="M0 0 C9.9 0 19.8 0 30 0 C30 5.94 30 11.88 30 18 C29.34 18 28.68 18 28 18 C28 12.72 28 7.44 28 2 C18.76 2 9.52 2 0 2 C0 1.34 0 0.68 0 0 Z " fill="#E7EAF2" transform="translate(380,290)"/>
<path d="M0 0 C1.32 0 2.64 0 4 0 C4 0.66 4 1.32 4 2 C3.34 2 2.68 2 2 2 C2 3.32 2 4.64 2 6 C1.34 6 0.68 6 0 6 C0 7.32 0 8.64 0 10 C-0.66 10 -1.32 10 -2 10 C-2 11.32 -2 12.64 -2 14 C-2.66 14 -3.32 14 -4 14 C-4 15.32 -4 16.64 -4 18 C-4.66 18 -5.32 18 -6 18 C-6 18.66 -6 19.32 -6 20 C-6.66 20 -7.32 20 -8 20 C-8 18.68 -8 17.36 -8 16 C-8.66 16 -9.32 16 -10 16 C-10 14.68 -10 13.36 -10 12 C-10.66 12 -11.32 12 -12 12 C-12 10.68 -12 9.36 -12 8 C-12.66 8 -13.32 8 -14 8 C-14 7.34 -14 6.68 -14 6 C-12.68 6 -11.36 6 -10 6 C-10 7.32 -10 8.64 -10 10 C-9.34 10 -8.68 10 -8 10 C-8 11.32 -8 12.64 -8 14 C-7.34 14 -6.68 14 -6 14 C-6 13.34 -6 12.68 -6 12 C-5.34 12 -4.68 12 -4 12 C-4 10.68 -4 9.36 -4 8 C-3.34 8 -2.68 8 -2 8 C-2 6.68 -2 5.36 -2 4 C-1.34 4 -0.68 4 0 4 C0 2.68 0 1.36 0 0 Z " fill="#19347F" transform="translate(292,274)"/>
<path d="M0 0 C10.56 0 21.12 0 32 0 C32 0.66 32 1.32 32 2 C22.1 2 12.2 2 2 2 C2 5.96 2 9.92 2 14 C1.34 14 0.68 14 0 14 C0 9.38 0 4.76 0 0 Z " fill="#546AA1" transform="translate(378,276)"/>
<path d="M0 0 C0.66 0 1.32 0 2 0 C2 11.88 2 23.76 2 36 C0.68 36 -0.64 36 -2 36 C-2 35.34 -2 34.68 -2 34 C-1.34 34 -0.68 34 0 34 C0 22.78 0 11.56 0 0 Z " fill="#5D72A6" transform="translate(130,252)"/>
<path d="M0 0 C0.66 0 1.32 0 2 0 C2 11.22 2 22.44 2 34 C0.68 34 -0.64 34 -2 34 C-2 32.68 -2 31.36 -2 30 C-1.34 30 -0.68 30 0 30 C0 20.1 0 10.2 0 0 Z " fill="#051F72" transform="translate(128,252)"/>
<path d="M0 0 C0.66 0 1.32 0 2 0 C2 0.66 2 1.32 2 2 C12.56 2 23.12 2 34 2 C34 2.66 34 3.32 34 4 C22.78 4 11.56 4 0 4 C0 2.68 0 1.36 0 0 Z " fill="#A6B2CE" transform="translate(418,346)"/>
<path d="M0 0 C11.22 0 22.44 0 34 0 C34 1.32 34 2.64 34 4 C33.34 4 32.68 4 32 4 C32 3.34 32 2.68 32 2 C21.44 2 10.88 2 0 2 C0 1.34 0 0.68 0 0 Z " fill="#6176A9" transform="translate(308,250)"/>
<path d="M0 0 C0.66 0 1.32 0 2 0 C2 0.66 2 1.32 2 2 C9.26 2 16.52 2 24 2 C24 2.66 24 3.32 24 4 C16.08 4 8.16 4 0 4 C0 2.68 0 1.36 0 0 Z " fill="#CBD2E3" transform="translate(464,320)"/>
<path d="M0 0 C0.66 0 1.32 0 2 0 C2 1.98 2 3.96 2 6 C1.34 6 0.68 6 0 6 C0 7.32 0 8.64 0 10 C-0.66 10 -1.32 10 -2 10 C-2 11.32 -2 12.64 -2 14 C-3.32 14 -4.64 14 -6 14 C-6 13.34 -6 12.68 -6 12 C-5.34 12 -4.68 12 -4 12 C-4 10.68 -4 9.36 -4 8 C-3.34 8 -2.68 8 -2 8 C-2 6.68 -2 5.36 -2 4 C-1.34 4 -0.68 4 0 4 C0 2.68 0 1.36 0 0 Z " fill="#17337E" transform="translate(302,324)"/>
<path d="M0 0 C0.66 0 1.32 0 2 0 C2 1.98 2 3.96 2 6 C1.34 6 0.68 6 0 6 C0 7.32 0 8.64 0 10 C-0.66 10 -1.32 10 -2 10 C-2 11.32 -2 12.64 -2 14 C-3.32 14 -4.64 14 -6 14 C-6 13.34 -6 12.68 -6 12 C-5.34 12 -4.68 12 -4 12 C-4 10.68 -4 9.36 -4 8 C-3.34 8 -2.68 8 -2 8 C-2 6.68 -2 5.36 -2 4 C-1.34 4 -0.68 4 0 4 C0 2.68 0 1.36 0 0 Z " fill="#17337E" transform="translate(318,294)"/>
<path d="M0 0 C0.66 0 1.32 0 2 0 C2 1.98 2 3.96 2 6 C1.34 6 0.68 6 0 6 C0 7.32 0 8.64 0 10 C-0.66 10 -1.32 10 -2 10 C-2 11.32 -2 12.64 -2 14 C-3.32 14 -4.64 14 -6 14 C-6 13.34 -6 12.68 -6 12 C-5.34 12 -4.68 12 -4 12 C-4 10.68 -4 9.36 -4 8 C-3.34 8 -2.68 8 -2 8 C-2 6.68 -2 5.36 -2 4 C-1.34 4 -0.68 4 0 4 C0 2.68 0 1.36 0 0 Z " fill="#17337E" transform="translate(334,264)"/>
<path d="M0 0 C1.32 0 2.64 0 4 0 C4 0.66 4 1.32 4 2 C3.34 2 2.68 2 2 2 C2 3.32 2 4.64 2 6 C1.34 6 0.68 6 0 6 C0 7.32 0 8.64 0 10 C-0.66 10 -1.32 10 -2 10 C-2 11.32 -2 12.64 -2 14 C-2.66 14 -3.32 14 -4 14 C-4 12.02 -4 10.04 -4 8 C-3.34 8 -2.68 8 -2 8 C-2 6.68 -2 5.36 -2 4 C-1.34 4 -0.68 4 0 4 C0 2.68 0 1.36 0 0 Z " fill="#16327E" transform="translate(300,258)"/>
<path d="M0 0 C0.66 0 1.32 0 2 0 C2 1.32 2 2.64 2 4 C2.66 4 3.32 4 4 4 C4 5.32 4 6.64 4 8 C4.66 8 5.32 8 6 8 C6 9.32 6 10.64 6 12 C6.66 12 7.32 12 8 12 C8 12.66 8 13.32 8 14 C6.68 14 5.36 14 4 14 C4 12.68 4 11.36 4 10 C3.34 10 2.68 10 2 10 C2 8.68 2 7.36 2 6 C1.34 6 0.68 6 0 6 C0 4.02 0 2.04 0 0 Z " fill="#19347F" transform="translate(230,254)"/>
<path d="M0 0 C0.66 0 1.32 0 2 0 C2 1.32 2 2.64 2 4 C2.66 4 3.32 4 4 4 C4 5.32 4 6.64 4 8 C4.66 8 5.32 8 6 8 C6 9.98 6 11.96 6 14 C5.34 14 4.68 14 4 14 C4 12.68 4 11.36 4 10 C3.34 10 2.68 10 2 10 C2 8.68 2 7.36 2 6 C1.34 6 0.68 6 0 6 C0 4.02 0 2.04 0 0 Z " fill="#1B3680" transform="translate(272,264)"/>
<path d="M0 0 C0.66 0 1.32 0 2 0 C2 0.66 2 1.32 2 2 C2.66 2 3.32 2 4 2 C4 2.66 4 3.32 4 4 C4.66 4 5.32 4 6 4 C6 4.66 6 5.32 6 6 C5.34 6 4.68 6 4 6 C4 6.66 4 7.32 4 8 C3.34 8 2.68 8 2 8 C2 7.34 2 6.68 2 6 C1.34 6 0.68 6 0 6 C0 4.02 0 2.04 0 0 Z " fill="#053678" transform="translate(510,84)"/>
<path d="M0 0 C1.32 0 2.64 0 4 0 C4 0.66 4 1.32 4 2 C4.66 2 5.32 2 6 2 C6 3.32 6 4.64 6 6 C5.34 6 4.68 6 4 6 C4 5.34 4 4.68 4 4 C2.68 4 1.36 4 0 4 C0 2.68 0 1.36 0 0 Z " fill="#2D468A" transform="translate(474,300)"/>
<path d="M0 0 C0.66 0 1.32 0 2 0 C2 0.66 2 1.32 2 2 C2.66 2 3.32 2 4 2 C4 3.32 4 4.64 4 6 C4.66 6 5.32 6 6 6 C6 6.66 6 7.32 6 8 C4.68 8 3.36 8 2 8 C2 6.68 2 5.36 2 4 C1.34 4 0.68 4 0 4 C0 2.68 0 1.36 0 0 Z " fill="#15327D" transform="translate(246,286)"/>
<path d="M0 0 C0.66 0 1.32 0 2 0 C2 1.98 2 3.96 2 6 C2.66 6 3.32 6 4 6 C4 6.66 4 7.32 4 8 C2.68 8 1.36 8 0 8 C0 5.36 0 2.72 0 0 Z " fill="#2C458A" transform="translate(480,306)"/>
</svg>
