<?xml version="1.0" encoding="UTF-8"?>
<svg xmlns="http://www.w3.org/2000/svg" xmlns:xlink="http://www.w3.org/1999/xlink" width="350" height="150" viewBox="0 0 350 150">
  <defs>
    <clipPath id="clip-path">
      <path id="Path_36" data-name="Path 36" d="M498,102h36.418v50.824H498Zm0,0" transform="translate(-498 -102)"></path>
    </clipPath>
    <clipPath id="clip-path-2">
      <path id="Path_38" data-name="Path 38" d="M579,157h7.505v10.142H579Zm0,0" transform="translate(-579 -157)"></path>
    </clipPath>
  </defs>
  <g id="Group_1" data-name="Group 1" transform="translate(-38 -41)">
    <rect id="Rectangle_1" data-name="Rectangle 1" width="350" height="150" transform="translate(38 41)" fill="#fff"></rect>
    <g id="surface1" transform="translate(76 66.996)">
      <path id="Path_25" data-name="Path 25" d="M20.523,4.368H11.852V26.661H8.671V4.368H0V1.535H20.523V4.368" transform="translate(0 -0.825)" fill="#020202"></path>
      <path id="Path_26" data-name="Path 26" d="M67.3,25.836H64.19V15.5a7.438,7.438,0,0,0-.99-4.266,3.338,3.338,0,0,0-2.9-1.4,4.865,4.865,0,0,0-1.839.371,6.788,6.788,0,0,0-1.716,1.008,7.267,7.267,0,0,0-1.414,1.52,6.79,6.79,0,0,0-.94,1.947V25.834H51.273V0h3.113V11.327a8.157,8.157,0,0,1,2.971-3.149,7.806,7.806,0,0,1,4.106-1.133,5.83,5.83,0,0,1,2.762.6,4.855,4.855,0,0,1,1.8,1.626A7.111,7.111,0,0,1,67,11.734a14.779,14.779,0,0,1,.3,3.059V25.836" transform="translate(-27.637)" fill="#020202"></path>
      <path id="Path_27" data-name="Path 27" d="M109.623,23.593a6.656,6.656,0,0,0-2.031-4.318,6.326,6.326,0,0,0-6.6-1.219,5.973,5.973,0,0,0-1.931,1.239,6.233,6.233,0,0,0-1.343,1.893,7.01,7.01,0,0,0-.621,2.406ZM103.29,34.421a9.387,9.387,0,0,1-3.819-.762A9.009,9.009,0,0,1,96.5,31.59a9.406,9.406,0,0,1-1.929-3.061,10,10,0,0,1-.688-3.7,9.876,9.876,0,0,1,.688-3.681A9.242,9.242,0,0,1,99.5,16.037a9.423,9.423,0,0,1,3.823-.76,9.14,9.14,0,0,1,3.805.78,8.952,8.952,0,0,1,4.775,5.078,9.891,9.891,0,0,1,.652,3.555c0,.261,0,.5-.016.708a3.29,3.29,0,0,1-.052.5H97.171a7.167,7.167,0,0,0,.634,2.514,6.493,6.493,0,0,0,1.383,1.947,6.315,6.315,0,0,0,1.928,1.273,5.762,5.762,0,0,0,2.28.459,6.037,6.037,0,0,0,1.664-.23,7.282,7.282,0,0,0,1.524-.618,5.329,5.329,0,0,0,1.253-.956,3.905,3.905,0,0,0,.834-1.275l2.688.744a6.823,6.823,0,0,1-1.255,1.875,8.283,8.283,0,0,1-1.842,1.469,9.425,9.425,0,0,1-2.317.972,9.858,9.858,0,0,1-2.654.355" transform="translate(-50.602 -8.233)" fill="#020202"></path>
      <path id="Path_28" data-name="Path 28" d="M12.629,98.778a19.281,19.281,0,0,0,.938,5.984,16.058,16.058,0,0,0,2.724,5.111,13.517,13.517,0,0,0,4.37,3.562,12.574,12.574,0,0,0,5.883,1.345,12.468,12.468,0,0,0,5.95-1.377,13.592,13.592,0,0,0,4.372-3.664,16.372,16.372,0,0,0,2.689-5.145,19.136,19.136,0,0,0,.909-5.814,18.649,18.649,0,0,0-.974-5.984,16.633,16.633,0,0,0-2.759-5.109,13.193,13.193,0,0,0-4.37-3.531,12.7,12.7,0,0,0-5.816-1.311,12.649,12.649,0,0,0-5.982,1.379,13.254,13.254,0,0,0-4.372,3.63,16.3,16.3,0,0,0-2.652,5.109A19.066,19.066,0,0,0,12.629,98.778Zm13.849,24.206a21.681,21.681,0,0,1-9.513-2.051,23.35,23.35,0,0,1-7.329-5.448A25.278,25.278,0,0,1,3.215,98.778,24,24,0,0,1,5,89.634,25.248,25.248,0,0,1,9.9,81.9a23.407,23.407,0,0,1,7.43-5.345,22.059,22.059,0,0,1,9.344-1.984,20.949,20.949,0,0,1,9.448,2.119,23.63,23.63,0,0,1,7.295,5.546,25.565,25.565,0,0,1,4.707,7.8,24.586,24.586,0,0,1,1.678,8.874,24.146,24.146,0,0,1-1.749,9.11,24.7,24.7,0,0,1-4.842,7.666A23.251,23.251,0,0,1,35.823,121a22.055,22.055,0,0,1-9.344,1.985" transform="translate(-1.733 -40.194)" fill="#020202"></path>
      <path id="Path_29" data-name="Path 29" d="M135.186,109.681a17.806,17.806,0,0,0-7.329,1.579,9.248,9.248,0,0,0-4.637,4.54v21.313h-9.009V101.882h8.269v7.531a16.007,16.007,0,0,1,2.219-3.261,16.94,16.94,0,0,1,2.759-2.519,12.9,12.9,0,0,1,2.99-1.65,8.272,8.272,0,0,1,2.926-.569h1.11a3.57,3.57,0,0,1,.706.067v8.2h0" transform="translate(-61.561 -54.661)" fill="#020202"></path>
      <path id="Path_30" data-name="Path 30" d="M177.63,114.474a8.466,8.466,0,0,0,2.622-.438,9.128,9.128,0,0,0,2.485-1.242,10.82,10.82,0,0,0,2.053-1.882,7.867,7.867,0,0,0,1.379-2.353v-8.4a9.921,9.921,0,0,0-1.512-2.723,11.185,11.185,0,0,0-2.218-2.152,11.638,11.638,0,0,0-2.624-1.446,7.51,7.51,0,0,0-2.723-.538,8.127,8.127,0,0,0-3.733.875,8.848,8.848,0,0,0-2.922,2.386,11.507,11.507,0,0,0-1.884,3.463,12.281,12.281,0,0,0-.67,4.034,11.1,11.1,0,0,0,.74,4.1,10.592,10.592,0,0,0,2.015,3.3,9.184,9.184,0,0,0,3.061,2.219A9.359,9.359,0,0,0,177.63,114.474Zm-2.353,7.664a15.915,15.915,0,0,1-12.036-5.311,18.209,18.209,0,0,1-3.461-5.816,20.271,20.271,0,0,1-1.244-7.16,21.035,21.035,0,0,1,1.18-7.127,18.592,18.592,0,0,1,3.257-5.78,15.074,15.074,0,0,1,4.975-3.9,14.2,14.2,0,0,1,6.321-1.412,13.341,13.341,0,0,1,7.025,1.882,13.663,13.663,0,0,1,4.876,4.909V72.387h9.009v38.727a3.333,3.333,0,0,0,.47,2.017,2.1,2.1,0,0,0,1.613.672v7.665a20.571,20.571,0,0,1-3.832.468,6.243,6.243,0,0,1-3.967-1.208,4.434,4.434,0,0,1-1.749-3.16l-.2-2.219a12.8,12.8,0,0,1-5.28,5.076,15.011,15.011,0,0,1-6.956,1.713" transform="translate(-85.452 -39.015)" fill="#020202"></path>
      <path id="Path_31" data-name="Path 31" d="M253.629,121.467V86.236h9.009v35.231Zm0-40.138V72.387h9.009v8.942h-9.009" transform="translate(-136.709 -39.015)" fill="#020202"></path>
      <path id="Path_32" data-name="Path 32" d="M319.909,136.953H310.9V117.187q0-4.235-1.478-6.186a4.861,4.861,0,0,0-4.1-1.95,7.685,7.685,0,0,0-2.757.538,10.171,10.171,0,0,0-2.654,1.511,12.378,12.378,0,0,0-2.253,2.322,9.131,9.131,0,0,0-1.478,2.959v20.573h-9.009V101.722H295.3v6.522A13.376,13.376,0,0,1,300.949,103a18.12,18.12,0,0,1,8.337-1.882,10.619,10.619,0,0,1,5.377,1.21,8.732,8.732,0,0,1,3.227,3.161,13.125,13.125,0,0,1,1.579,4.437,28.673,28.673,0,0,1,.439,5.042v21.987" transform="translate(-154.787 -54.501)" fill="#020202"></path>
      <path id="Path_33" data-name="Path 33" d="M380.945,131.037a11.769,11.769,0,0,0,4.336-.807,7.833,7.833,0,0,0,3.193-2.152,3.229,3.229,0,0,0,1.478-2.555v-4.036a22.407,22.407,0,0,0-3.493-.975,19,19,0,0,0-3.63-.369,9.634,9.634,0,0,0-5.717,1.579,4.745,4.745,0,0,0-2.217,4,4.808,4.808,0,0,0,1.749,3.8A6.33,6.33,0,0,0,380.945,131.037Zm-2.553,6.587a13.375,13.375,0,0,1-4.774-.839,11.479,11.479,0,0,1-3.83-2.353,10.915,10.915,0,0,1-2.525-3.529,10.713,10.713,0,0,1-.908-4.437,9.77,9.77,0,0,1,1.11-4.607,10.567,10.567,0,0,1,3.092-3.6,15.364,15.364,0,0,1,4.741-2.32,20.7,20.7,0,0,1,6.052-.839,25.968,25.968,0,0,1,4.6.4,18.8,18.8,0,0,1,4,1.144v-2.017a7.071,7.071,0,0,0-1.981-5.379q-1.985-1.883-5.885-1.882a15.572,15.572,0,0,0-5.512,1.006,25.711,25.711,0,0,0-5.515,2.959l-2.753-5.713a26,26,0,0,1,14.656-4.506q7.6,0,11.8,3.733t4.2,10.788V126.6a3.171,3.171,0,0,0,.5,2.015,2.214,2.214,0,0,0,1.648.673v7.664a20.112,20.112,0,0,1-3.967.47,6.013,6.013,0,0,1-3.933-1.141,4.93,4.93,0,0,1-1.713-3.025l-.2-1.95a15.634,15.634,0,0,1-5.716,4.705,16.42,16.42,0,0,1-7.2,1.613" transform="translate(-197.469 -54.501)" fill="#020202"></path>
      <path id="Path_34" data-name="Path 34" d="M472.659,109.681a17.81,17.81,0,0,0-7.329,1.579,9.256,9.256,0,0,0-4.637,4.54v21.313h-9.009V101.882h8.269v7.531a16.064,16.064,0,0,1,2.219-3.261,16.9,16.9,0,0,1,2.759-2.519,12.907,12.907,0,0,1,2.989-1.65,8.276,8.276,0,0,1,2.926-.569h1.109a3.588,3.588,0,0,1,.706.067v8.2h0" transform="translate(-243.463 -54.661)" fill="#020202"></path>
      <g id="Group_7" data-name="Group 7" transform="translate(229.572 47.023)" clip-path="url(#clip-path)">
        <path id="Path_35" data-name="Path 35" d="M502.869,144.518a17.159,17.159,0,0,0,2.216.5,12.307,12.307,0,0,0,1.815.168,3.875,3.875,0,0,0,1.613-.337,3.432,3.432,0,0,0,1.343-1.176,11.286,11.286,0,0,0,1.21-2.321q.605-1.478,1.278-3.7L498.43,102.43h9.279l9.544,27.431,8.472-27.431H534.2l-14.789,42.222a12.628,12.628,0,0,1-4.373,6.05,12.273,12.273,0,0,1-7.664,2.353,14.884,14.884,0,0,1-2.184-.167,13.907,13.907,0,0,1-2.317-.573v-7.8" transform="translate(-498.232 -102.232)" fill="#020202"></path>
      </g>
      <g id="Group_8" data-name="Group 8" transform="translate(266.913 72.377)" clip-path="url(#clip-path-2)">
        <path id="Path_37" data-name="Path 37" d="M579.23,167.536v-9.681h7.4v9.681h-7.4" transform="translate(-579.124 -157.461)" fill="#020202"></path>
      </g>
    </g>
  </g>
</svg>
