<?xml version="1.0" encoding="UTF-8"?>
<svg version="1.1" xmlns="http://www.w3.org/2000/svg" width="500" height="345">
<path d="M0 0 C0.68515371 -0.00282738 1.37030743 -0.00565475 2.07622337 -0.00856781 C5.71935764 -0.02343571 9.36245374 -0.0327369 13.00561523 -0.03710938 C15.93413099 -0.04144245 18.86234352 -0.05514851 21.79077148 -0.078125 C48.58890889 -0.2838022 75.1373462 1.22673523 101.63671875 5.453125 C102.29175385 5.55539398 102.94678894 5.65766296 103.62167358 5.76303101 C129.24092978 9.77899795 154.36360553 15.51156015 179.13671875 23.203125 C180.23081055 23.54037598 181.32490234 23.87762695 182.45214844 24.22509766 C209.8910204 32.7748911 237.90469487 43.28978024 263.13671875 57.203125 C263.83232879 57.54083011 264.52793882 57.87853521 265.24462795 58.22647381 C268.24268874 61.35852246 267.69061788 64.95827321 267.65138245 69.06538391 C267.65832797 69.98251307 267.6652735 70.89964223 267.6724295 71.84456319 C267.69078818 74.93088083 267.68041044 78.01643747 267.67016602 81.1027832 C267.6772201 83.31021707 267.68596295 85.51764609 267.6962738 87.72506714 C267.71883753 93.73137793 267.7158113 99.73742609 267.70695233 105.74376321 C267.70185278 110.75378825 267.7091268 115.76376348 267.71642441 120.77378339 C267.73442059 133.26902571 267.7279903 145.76414123 267.7102546 158.25936993 C267.69556625 169.10929475 267.71017177 179.95894244 267.73902477 190.80883155 C267.76842804 201.94863646 267.77887975 213.08834125 267.76984257 224.22819012 C267.76490799 230.4826601 267.76715755 236.73691476 267.78763008 242.9913578 C267.80596253 248.87409765 267.80005771 254.75632225 267.77543068 260.63903427 C267.77041471 262.79895329 267.7739328 264.95891139 267.78657913 267.11879921 C267.80247293 270.06643286 267.78759266 273.01236237 267.76490784 275.95991516 C267.77674357 276.81585512 267.78857929 277.67179508 267.80077368 278.55367261 C267.73550858 282.72459551 267.41333032 285.38294442 264.74384975 288.68506145 C262.29785347 291.04749513 260.41958498 292.45215587 257.34765625 293.84375 C256.42073975 294.26922119 255.49382324 294.69469238 254.53881836 295.13305664 C253.53987549 295.5686792 252.54093262 296.00430176 251.51171875 296.453125 C250.45412354 296.92419678 249.39652832 297.39526855 248.30688477 297.88061523 C236.1232695 303.21904119 223.69942667 307.84361348 211.13671875 312.203125 C209.95819336 312.6141748 208.77966797 313.02522461 207.56542969 313.44873047 C175.22075261 324.60943082 141.8949721 332.68966324 108.13671875 338.203125 C106.96270508 338.39600098 105.78869141 338.58887695 104.57910156 338.78759766 C21.11026306 352.15519857 -65.59974215 346.56133789 -232.86328125 286.203125 C-233.04582109 257.40395114 -233.18737837 228.60484554 -233.27180389 199.80520695 C-233.28180942 196.40439808 -233.29216401 193.00359036 -233.30273438 189.6027832 C-233.30483286 188.92574982 -233.30693134 188.24871644 -233.30909342 187.5511669 C-233.34389474 176.59172181 -233.40696577 165.63261276 -233.48050362 154.67336696 C-233.55534245 143.42635096 -233.59915821 132.17950271 -233.61598921 120.93222529 C-233.62642452 114.61538483 -233.65097106 108.29930628 -233.7091217 101.98270988 C-233.76340987 96.03752486 -233.7801762 90.09341578 -233.7681427 84.14800644 C-233.77034418 81.9658721 -233.78626623 79.78370191 -233.81692505 77.60178185 C-233.85675865 74.62076862 -233.84715898 71.64381228 -233.82531738 68.66270447 C-233.84862011 67.79984909 -233.87192285 66.93699372 -233.89593172 66.04799122 C-233.82155122 62.29044728 -233.5865051 60.06882047 -231.1293869 57.12766182 C-227.27766469 53.68440486 -223.37336279 51.11277612 -218.609375 49.0625 C-217.44188721 48.55501221 -216.27439941 48.04752441 -215.0715332 47.5246582 C-213.81518497 46.99945042 -212.55824972 46.47564499 -211.30078125 45.953125 C-210.64878754 45.67721527 -209.99679382 45.40130554 -209.32504272 45.11703491 C-144.0786436 17.5086559 -71.0280359 0.23404348 0 0 Z " fill="#214C8B" transform="translate(232.86328125,-0.203125)"/>
<path d="M0 0 C0.14601614 3.54122827 0.2343056 7.08167644 0.3125 10.625 C0.35439453 11.62402344 0.39628906 12.62304688 0.43945312 13.65234375 C0.51655301 18.30917693 0.41458116 21.24415309 -1.85546875 25.3828125 C-5.70992032 29.1430878 -10.75608705 31.12674713 -15.625 33.25 C-16.68259521 33.72107178 -17.74019043 34.19214355 -18.82983398 34.67749023 C-31.01344925 40.01591619 -43.43729208 44.64048848 -56 49 C-57.17852539 49.4110498 -58.35705078 49.82209961 -59.57128906 50.24560547 C-91.91596614 61.40630582 -125.24174665 69.48653824 -159 75 C-160.17401367 75.19287598 -161.34802734 75.38575195 -162.55761719 75.58447266 C-246.02645569 88.95207357 -332.7364609 83.35821289 -485.75 29.9375 C-486.77432129 29.48455566 -487.79864258 29.03161133 -488.85400391 28.56494141 C-489.78390137 28.14003418 -490.71379883 27.71512695 -491.671875 27.27734375 C-492.89535645 26.72421509 -492.89535645 26.72421509 -494.14355469 26.15991211 C-496 25 -496 25 -497 22 C-492.8750361 23.29270522 -488.94578591 24.84237319 -484.98828125 26.56298828 C-437.13137313 47.35311793 -386.45251705 59.02758123 -334.7890625 65.0546875 C-334.0923494 65.13664368 -333.39563629 65.21859985 -332.67781067 65.30303955 C-321.08760912 66.61201144 -309.5559876 67.17570678 -297.89453125 67.23828125 C-297.19307669 67.24318762 -296.49162212 67.24809399 -295.76891136 67.25314903 C-239.15309536 67.64452643 -184.0048559 63.56973862 -129 49 C-128.07445312 48.75491699 -127.14890625 48.50983398 -126.1953125 48.25732422 C-83.53846191 36.74381486 -41.99401878 21.09467927 -2.73632812 0.83520508 C-1 0 -1 0 0 0 Z " fill="#919497" transform="translate(500,263)"/>
<path d="M0 0 C0.68515371 -0.00282738 1.37030743 -0.00565475 2.07622337 -0.00856781 C5.71935764 -0.02343571 9.36245374 -0.0327369 13.00561523 -0.03710938 C15.93413099 -0.04144245 18.86234352 -0.05514851 21.79077148 -0.078125 C48.58890889 -0.2838022 75.1373462 1.22673523 101.63671875 5.453125 C102.29175385 5.55539398 102.94678894 5.65766296 103.62167358 5.76303101 C129.24092978 9.77899795 154.36360553 15.51156015 179.13671875 23.203125 C180.23081055 23.54037598 181.32490234 23.87762695 182.45214844 24.22509766 C206.4833265 31.71307343 229.85820305 41.06174257 252.57421875 51.890625 C254.16484131 52.6482312 254.16484131 52.6482312 255.78759766 53.42114258 C263.00691321 56.94351392 263.00691321 56.94351392 264.13671875 59.203125 C257.47764289 57.07821328 251.00003755 54.61005634 244.51171875 52.015625 C194.35824575 32.25721951 141.05898797 18.83607605 87.13671875 15.203125 C85.99460937 15.1198999 84.8525 15.0366748 83.67578125 14.95092773 C46.82196498 12.41421495 9.78127248 13.79865246 -26.86328125 18.203125 C-27.62991089 18.29507141 -28.39654053 18.38701782 -29.18640137 18.48175049 C-51.06421429 21.14653181 -72.48446487 25.66349938 -93.91271973 30.7421875 C-95.71127652 31.16720474 -97.51133572 31.58585076 -99.31152344 32.00390625 C-145.13286537 42.6713086 -189.15588996 59.56960527 -230.86328125 81.203125 C-231.85328125 81.698125 -231.85328125 81.698125 -232.86328125 82.203125 C-233.09725367 78.51670955 -233.23821836 74.83221344 -233.36328125 71.140625 C-233.4303125 70.10228516 -233.49734375 69.06394531 -233.56640625 67.99414062 C-233.75438889 60.59232398 -233.75438889 60.59232398 -231.52368164 57.11474609 C-225.89000376 51.71602234 -218.40614418 48.90563968 -211.30078125 45.953125 C-210.64878754 45.67721527 -209.99679382 45.40130554 -209.32504272 45.11703491 C-144.0786436 17.5086559 -71.0280359 0.23404348 0 0 Z " fill="#929497" transform="translate(232.86328125,-0.203125)"/>
<path d="M0 0 C4.57151641 3.13058816 7.26490662 5.64756294 9 11 C9.20887095 13.64392254 9.32422386 16.19182244 9.34375 18.8359375 C9.3583728 19.59234528 9.37299561 20.34875305 9.38806152 21.12808228 C9.43435576 23.54366738 9.46858804 25.95917855 9.5 28.375 C9.65118585 39.74650187 10.20214177 50.75502393 12 62 C0.57389739 62.59846535 0.57389739 62.59846535 -5 58 C-7.91241256 56.66646231 -7.91241256 56.66646231 -10.33984375 57.9609375 C-11.19707031 58.42757812 -12.05429688 58.89421875 -12.9375 59.375 C-20.83157742 63.63756367 -29.03163922 64.35163423 -37.86328125 62.3515625 C-44.4267485 60.02098384 -48.86950831 56.26098338 -52 50 C-52.72674245 43.25167721 -52.81716464 37.29487659 -48.67578125 31.68359375 C-40.77156934 23.74253237 -29.59455758 22.88786983 -19 21.9375 C-13.56869088 21.92009656 -13.56869088 21.92009656 -9 20 C-8.46402205 15.66824375 -8.19888824 12.14444537 -10.75 8.5 C-15.02377996 5.65081336 -18.90322299 5.64849814 -24 6 C-27.98066095 7.57724302 -29.60667274 8.41000911 -32 12 C-32.33 13.65 -32.66 15.3 -33 17 C-38.28 17 -43.56 17 -49 17 C-47.97353084 9.81471586 -46.83463434 6.92053235 -41.9375 1.875 C-30.10372853 -5.67847115 -12.35067342 -7.64565497 0 0 Z " fill="#F7F8FA" transform="translate(143,149)"/>
<path d="M0 0 C8.59988163 5.94300763 12.58788623 11.3261587 15.921875 21.328125 C15.921875 25.618125 15.921875 29.908125 15.921875 34.328125 C0.081875 34.328125 -15.758125 34.328125 -32.078125 34.328125 C-29.12892351 45.28391456 -29.12892351 45.28391456 -25.640625 49.578125 C-20.18554089 52.25781544 -15.03886241 52.16126492 -9.078125 51.328125 C-5.26305725 49.87004716 -3.35168859 47.73847038 -1.078125 44.328125 C1.7104039 44.10704713 4.26840681 44.04704965 7.046875 44.140625 C8.17802734 44.16092773 8.17802734 44.16092773 9.33203125 44.18164062 C11.19561627 44.21702515 13.05883478 44.27083333 14.921875 44.328125 C13.22018171 52.02704806 8.25626274 56.18688118 1.921875 60.328125 C-6.63751657 65.19523001 -16.57665661 65.69772367 -26.15625 63.6796875 C-35.11548478 60.75166943 -41.16367007 55.47605189 -46.0703125 47.515625 C-49.9307814 39.13631266 -50.5874673 29.27213283 -48.3203125 20.34375 C-44.63855466 10.77697767 -39.02085105 3.4535233 -29.703125 -1.046875 C-20.82634927 -4.28220827 -8.41901176 -4.63371965 0 0 Z " fill="#F6F8FA" transform="translate(270.078125,147.671875)"/>
<path d="M0 0 C7.81485772 5.80701014 10.80955704 14.60982856 12.23828125 23.90234375 C12.23828125 26.54234375 12.23828125 29.18234375 12.23828125 31.90234375 C-3.60171875 31.90234375 -19.44171875 31.90234375 -35.76171875 31.90234375 C-35.19576272 39.10176211 -35.19576272 39.10176211 -31.94921875 44.27734375 C-31.44777344 44.92445313 -30.94632812 45.5715625 -30.4296875 46.23828125 C-27.25603201 49.40450429 -24.37267363 50.20768304 -19.94921875 50.27734375 C-14.74504953 50.16988303 -11.94223293 48.97374192 -7.76171875 45.90234375 C-7.37242187 45.20109375 -6.983125 44.49984375 -6.58203125 43.77734375 C-4.76171875 41.90234375 -4.76171875 41.90234375 -0.96875 41.51171875 C0.49660356 41.53824099 1.96169676 41.58585258 3.42578125 41.65234375 C4.17537109 41.67039063 4.92496094 41.6884375 5.69726562 41.70703125 C7.54481835 41.75410266 9.39171284 41.82584609 11.23828125 41.90234375 C7.9305899 49.95585313 2.57157774 56.19616962 -5.51171875 59.83984375 C-15.59331156 63.13574909 -26.99975735 63.37449017 -36.76171875 58.90234375 C-44.81348928 54.04616326 -49.74803582 47.78838861 -52.76171875 38.90234375 C-53.31806461 35.40315029 -53.38211557 32.00298278 -53.32421875 28.46484375 C-53.31616211 27.54123047 -53.30810547 26.61761719 -53.29980469 25.66601562 C-53.09742817 18.775461 -51.97053657 13.51004611 -47.76171875 7.90234375 C-46.83359375 6.51015625 -46.83359375 6.51015625 -45.88671875 5.08984375 C-33.82616137 -7.3254359 -14.62779377 -9.11399124 0 0 Z " fill="#F6F8FA" transform="translate(463.76171875,150.09765625)"/>
<path d="M0 0 C0 3.63 0 7.26 0 11 C-39.57804087 32.22943066 -81.14273015 47.85003431 -124.54345703 59.34326172 C-126.64828246 59.90597096 -128.74500825 60.49882738 -130.83984375 61.09765625 C-144.03910952 64.83215642 -157.54187888 67.39426412 -171 70 C-172.17981445 70.22864746 -173.35962891 70.45729492 -174.57519531 70.69287109 C-183.35118486 72.35660647 -192.15478335 73.76406479 -201 75 C-201.70078674 75.09923767 -202.40157349 75.19847534 -203.12359619 75.30072021 C-227.48451205 78.70389653 -251.83287543 79.39362571 -276.39419556 79.4330101 C-278.64368105 79.43741421 -280.89311017 79.44646876 -283.14257812 79.45620728 C-350.36066904 79.68689448 -417.26140796 66.28047869 -479.5625 41.0625 C-480.46669678 40.69713135 -481.37089355 40.3317627 -482.30249023 39.95532227 C-483.13208252 39.61041748 -483.9616748 39.2655127 -484.81640625 38.91015625 C-485.89063843 38.46361694 -485.89063843 38.46361694 -486.98657227 38.00805664 C-489.20834272 36.8956897 -491.05756163 35.54254866 -493 34 C-489.1400267 34.56007456 -485.80626291 35.84635294 -482.23144531 37.37304688 C-438.7875988 55.84523358 -390.79170368 66.04384044 -344 71 C-343.12326126 71.09324051 -342.24652252 71.18648102 -341.34321594 71.282547 C-324.32120581 73.03129778 -307.34739485 73.36346534 -290.25105667 73.31805801 C-288.09232763 73.31241459 -285.93360646 73.30959595 -283.77487183 73.30697632 C-262.70955693 73.26982273 -241.90879362 72.79019834 -221 70 C-219.62884461 69.82586207 -218.25758456 69.65254663 -216.88623047 69.47998047 C-163.93360858 62.74665179 -112.95576247 48.80467476 -63.25 29.5 C-62.48383362 29.20267975 -61.71766724 28.9053595 -60.92828369 28.59902954 C-53.46207817 25.689692 -46.09087114 22.7539906 -39 19 C-37.7621306 18.37679225 -36.5225053 17.7570614 -35.28125 17.140625 C-33.33598359 16.16811932 -31.39084407 15.19536365 -29.44604492 14.22192383 C-25.82773675 12.41131259 -22.20716254 10.60550962 -18.58203125 8.80859375 C-17.86660156 8.45313477 -17.15117187 8.09767578 -16.4140625 7.73144531 C-15.04899982 7.05335423 -13.68315677 6.37683106 -12.31640625 5.70214844 C-9.53035471 4.31631805 -6.82430577 2.89264477 -4.16796875 1.26953125 C-2 0 -2 0 0 0 Z " fill="#293B73" transform="translate(500,252)"/>
<path d="M0 0 C2.37625177 -0.10883596 4.74743976 -0.18766696 7.125 -0.25 C7.79015625 -0.28351563 8.4553125 -0.31703125 9.140625 -0.3515625 C14.35977097 -0.4538987 16.96734145 0.79381322 21 4 C22.57104492 6.58081055 22.57104492 6.58081055 23.79296875 9.69921875 C24.03001022 10.29159836 24.2670517 10.88397797 24.51127625 11.49430847 C25.36481419 13.65430149 26.18330745 15.82581018 27 18 C27.34049377 18.89334045 27.68098755 19.78668091 28.03179932 20.70709229 C30.83359313 28.0602045 33.57787617 35.4341959 36.3125 42.8125 C37.54401191 46.13265611 38.77655064 49.4524117 40.01249695 52.7709198 C40.77639307 54.8221077 41.53771713 56.87425567 42.29621887 58.92744446 C42.63715073 59.84317734 42.97808258 60.75891022 43.3293457 61.70239258 C43.62879593 62.51065994 43.92824615 63.31892731 44.23677063 64.15168762 C44.85429494 65.98219275 44.85429494 65.98219275 46 67 C46.22693039 66.40024353 46.45386078 65.80048706 46.68766785 65.18255615 C49.07039245 58.88642119 51.4559236 52.59135464 53.84301758 46.296875 C54.73109384 43.95404371 55.61847695 41.61094955 56.50512695 39.26757812 C57.78670804 35.88079996 59.07085812 32.49500504 60.35546875 29.109375 C60.74526413 28.07762146 61.13505951 27.04586792 61.53666687 25.98284912 C62.67661493 22.98272346 63.83417441 19.99015804 65 17 C65.41609528 15.91690552 65.83219055 14.83381104 66.26089478 13.71789551 C66.68309296 12.65373413 67.10529114 11.58957275 67.5402832 10.49316406 C67.91602982 9.5350885 68.29177643 8.57701294 68.6789093 7.58990479 C70.71416861 3.59992299 72.73502374 1.42165875 77 0 C78.72795352 -0.06802967 80.45835365 -0.08495645 82.1875 -0.0625 C83.08855469 -0.05347656 83.98960938 -0.04445313 84.91796875 -0.03515625 C85.60503906 -0.02355469 86.29210937 -0.01195313 87 0 C86.35890463 3.73104813 85.31293324 7.04228748 83.91796875 10.55859375 C83.27045654 12.1991272 83.27045654 12.1991272 82.60986328 13.87280273 C82.1404834 15.04915283 81.67110352 16.22550293 81.1875 17.4375 C80.70265137 18.66218994 80.21780273 19.88687988 79.71826172 21.14868164 C75.55943499 31.64768049 71.36081774 42.13121993 67.14916992 52.60913086 C64.41642515 59.41543338 61.73450222 66.23810937 59.11572266 73.08911133 C54.27090983 85.72909017 54.27090983 85.72909017 53 87 C51.58429877 87.08651611 50.164405 87.10704904 48.74609375 87.09765625 C47.89208984 87.09443359 47.03808594 87.09121094 46.15820312 87.08789062 C45.26037109 87.07951172 44.36253906 87.07113281 43.4375 87.0625 C42.53580078 87.05798828 41.63410156 87.05347656 40.70507812 87.04882812 C38.46998686 87.03700225 36.23502563 87.0205222 34 87 C33.72961914 86.30890137 33.45923828 85.61780273 33.18066406 84.90576172 C27.82829537 71.23321889 22.45108232 57.57101244 17 43.9375 C16.75419189 43.32239563 16.50838379 42.70729126 16.25512695 42.07354736 C13.46492872 35.09553849 10.65029693 28.12818978 7.796875 21.17578125 C7.53878052 20.54610947 7.28068604 19.91643768 7.01477051 19.26768494 C5.78152912 16.25971284 4.54441175 13.25345034 3.30078125 10.24975586 C2.64916016 8.66432983 2.64916016 8.66432983 1.984375 7.046875 C1.59991211 6.11713867 1.21544922 5.18740234 0.81933594 4.22949219 C0 2 0 2 0 0 Z " fill="#F9FAFC" transform="translate(16,123)"/>
<path d="M0 0 C1.07526947 -0.00349457 2.15053894 -0.00698914 3.25839233 -0.0105896 C19.03589885 -0.03908545 34.60760898 0.84251178 50.3125 2.3125 C52.08434486 2.46797774 53.85623425 2.62294919 55.62817383 2.77734375 C67.24427694 3.82459683 78.70027231 5.49727091 90.1875 7.5 C91.06825195 7.65211945 91.94900391 7.80423889 92.85644531 7.96096802 C145.28184584 17.05794935 145.28184584 17.05794935 166.3125 26.3125 C166.6425 26.9725 166.9725 27.6325 167.3125 28.3125 C165.14583333 27.77083333 162.97916667 27.22916667 160.8125 26.6875 C160.10472412 26.5114624 159.39694824 26.3354248 158.66772461 26.15405273 C154.36863811 25.08327994 150.07464849 23.99533947 145.78515625 22.88671875 C125.32628498 17.62733791 104.85896548 13.51746731 83.9375 10.625 C83.20995514 10.52226776 82.48241028 10.41953552 81.7328186 10.31369019 C58.22246709 7.02620468 34.65927237 5.92675735 10.9375 6 C9.72903412 6.00149048 8.52056824 6.00298096 7.27548218 6.0045166 C-13.51498537 6.05029741 -34.03447957 6.95237493 -54.6875 9.3125 C-55.91114258 9.44640137 -57.13478516 9.58030273 -58.39550781 9.71826172 C-129.1536274 17.67782658 -218.81682054 38.11676256 -277.6875 80.3125 C-277.90482807 78.58896768 -278.05934017 76.8574463 -278.1875 75.125 C-278.2803125 74.16207031 -278.373125 73.19914062 -278.46875 72.20703125 C-277.56353646 68.85321508 -277.05178785 68.55130014 -274.23046875 66.75390625 C-272.72759846 65.91914364 -271.2126437 65.10583752 -269.6875 64.3125 C-268.98641113 63.92328369 -268.28532227 63.53406738 -267.56298828 63.13305664 C-244.0893528 50.27567805 -218.5180596 40.79189206 -193.25 32.125 C-192.60798645 31.90457031 -191.9659729 31.68414062 -191.30450439 31.45703125 C-177.56997997 26.76829825 -163.63974829 22.9456571 -149.5625 19.4375 C-148.87862213 19.26674957 -148.19474426 19.09599915 -147.49014282 18.92007446 C-127.84638789 14.02962486 -108.09773887 9.42675053 -88.03222656 6.63916016 C-86.43169655 6.4161792 -84.83210451 6.18638618 -83.23339844 5.95068359 C-76.39853563 4.94309674 -69.55221211 4.08991398 -62.6875 3.3125 C-61.46611328 3.17279785 -60.24472656 3.0330957 -58.98632812 2.88916016 C-39.32613141 0.73258181 -19.77598387 0.02047922 0 0 Z " fill="#293B74" transform="translate(277.6875,12.6875)"/>
<path d="M0 0 C4.68970051 2.8406186 8.31488952 6.17034826 10 11.5 C10 13.48 10 15.46 10 17.5 C5.05 17.5 0.1 17.5 -5 17.5 C-5.37125 16.406875 -5.7425 15.31375 -6.125 14.1875 C-7.39204282 11.27624811 -7.99167481 10.50600188 -10.6875 8.5625 C-15.77740236 6.92988981 -19.82456897 6.77485632 -25 8.5 C-27.35776956 10.85776956 -27.29544746 11.47593763 -27.3125 14.6875 C-27.209375 15.945625 -27.10625 17.20375 -27 18.5 C-21.9108599 20.86424619 -17.10633783 22.25432162 -11.625 23.375 C-2.09436365 25.48949435 5.25697835 28.24440637 11 36.5 C12.76271316 41.78813948 13.23056229 47.60598987 11.01171875 52.82421875 C6.57549038 59.38483817 -0.38443095 62.83888595 -8 64.5 C-18.7651493 65.53410359 -29.66687974 65.59012741 -39 59.5 C-41.41034836 57.3785146 -43.3056973 55.22429247 -45 52.5 C-45.56847656 51.58927734 -45.56847656 51.58927734 -46.1484375 50.66015625 C-47 48.5 -47 48.5 -47 42.5 C-41.72 42.5 -36.44 42.5 -31 42.5 C-30.484375 43.758125 -29.96875 45.01625 -29.4375 46.3125 C-27.74971032 49.67025059 -27.06050682 50.46346758 -23.6875 52.5 C-18.50014292 53.9067409 -14.24130633 54.11857208 -9.125 52.4375 C-5.6120442 50.75977056 -5.6120442 50.75977056 -5.0625 46.8125 C-5.041875 45.719375 -5.02125 44.62625 -5 43.5 C-9.65960369 39.97599155 -13.55978736 38.65183105 -19.25 37.5625 C-28.45384117 35.59010694 -36.80370696 33.05173214 -43 25.5 C-45.68250594 20.96551488 -45.74874006 16.64083378 -45 11.5 C-42.76214282 5.87174117 -39.36285377 2.34559588 -34 -0.5 C-24.07115264 -4.65344149 -9.77798427 -4.48665613 0 0 Z " fill="#F7F8FA" transform="translate(205,147.5)"/>
<path d="M0 0 C5.79595947 3.38811424 9.26831526 7.09637219 11.04925537 13.74880981 C11.83999075 18.07920791 11.67846707 22.45270723 11.6328125 26.83984375 C11.6299826 27.87315323 11.62715271 28.90646271 11.62423706 29.97108459 C11.61309647 33.25167722 11.58800304 36.53199073 11.5625 39.8125 C11.5524623 42.04491792 11.54333783 44.27734014 11.53515625 46.50976562 C11.51317716 51.9649503 11.47868949 57.41992792 11.4375 62.875 C6.1575 62.875 0.8775 62.875 -4.5625 62.875 C-4.57708252 61.5432373 -4.59166504 60.21147461 -4.60668945 58.83935547 C-4.66478101 53.8854728 -4.74201373 48.93203949 -4.82495117 43.97851562 C-4.85814938 41.8369884 -4.88619714 39.69537476 -4.90893555 37.55371094 C-4.94257504 34.47032946 -4.99489654 31.38773631 -5.05078125 28.3046875 C-5.05717117 27.35133514 -5.0635611 26.39798279 -5.07014465 25.41574097 C-5.18546464 20.16957652 -5.62089458 16.40517104 -8.5625 11.875 C-12.19111685 8.67327925 -15.67613147 8.34099383 -20.3515625 8.53515625 C-23.98331053 9.09339314 -25.88848441 10.38754364 -28.5625 12.875 C-32.48795707 18.6563814 -33.16228235 23.99334056 -33.171875 30.84375 C-33.18841125 31.76466431 -33.20494751 32.68557861 -33.22198486 33.63439941 C-33.27019628 36.5480026 -33.29177583 39.4610849 -33.3125 42.375 C-33.34068217 44.362005 -33.37061272 46.34898601 -33.40234375 48.3359375 C-33.47594789 53.18224873 -33.52568622 58.02827534 -33.5625 62.875 C-38.5125 62.875 -43.4625 62.875 -48.5625 62.875 C-48.5625 42.085 -48.5625 21.295 -48.5625 -0.125 C-38.13942308 -0.125 -38.13942308 -0.125 -34.5625 2.875 C-34.5625 3.535 -34.5625 4.195 -34.5625 4.875 C-33.73105469 4.45347656 -32.89960938 4.03195313 -32.04296875 3.59765625 C-30.95628906 3.04980469 -29.86960937 2.50195312 -28.75 1.9375 C-27.67105469 1.39222656 -26.59210938 0.84695312 -25.48046875 0.28515625 C-17.5974081 -3.52446208 -7.97663931 -3.74805944 0 0 Z " fill="#FAFBFC" transform="translate(392.5625,147.125)"/>
<path d="M0 0 C4.95 0 9.9 0 15 0 C15 28.38 15 56.76 15 86 C10.05 86 5.1 86 0 86 C0 57.62 0 29.24 0 0 Z " fill="#FFFFFF" transform="translate(292,124)"/>
<path d="M0 0 C5.28 0 10.56 0 16 0 C16 20.79 16 41.58 16 63 C10.72 63 5.44 63 0 63 C0 42.21 0 21.42 0 0 Z " fill="#F8F9FB" transform="translate(318,147)"/>
<path d="M0 0 C0.5815662 12.10519285 0.5815662 12.10519285 -3 17 C-8.22959501 21.11691522 -12.29754778 22.46929209 -18.9609375 22.33203125 C-22.96652343 21.67978067 -24.42076117 20.15956757 -27 17 C-27.7977391 13.82626097 -27.7671274 11.17809923 -27 8 C-23.03269494 2.51578418 -18.56884261 1.41432945 -12.125 0.375 C-8.06985399 -0.07122263 -4.07644071 -0.07279358 0 0 Z " fill="#2A5994" transform="translate(135,180)"/>
<path d="M0 0 C4.71311538 4.28465035 6.00771376 7.54628255 7.0625 13.875 C-2.8375 13.875 -12.7375 13.875 -22.9375 13.875 C-21.56314103 4.25448718 -21.56314103 4.25448718 -16.9375 0.0625 C-11.48283535 -2.09663809 -5.47901752 -2.09834714 0 0 Z " fill="#2A5A95" transform="translate(261.9375,157.125)"/>
<path d="M0 0 C4.17554556 1.6879865 6.58920744 4.2116117 9 8 C9.33 10.31 9.66 12.62 10 15 C0.1 15 -9.8 15 -20 15 C-17.64074307 4.38334383 -17.64074307 4.38334383 -13.19921875 1.03125 C-8.90957905 -0.98023291 -4.59835122 -0.71292267 0 0 Z " fill="#0F2E73" transform="translate(448,156)"/>
<path d="M0 0 C4.67879749 -0.3743038 8.07780011 -0.44402217 12.375 1.625 C15.82318601 4.74478735 17.73072209 7.58532495 18.25790405 12.31268311 C18.34671892 15.09633569 18.33718226 17.86371978 18.29296875 20.6484375 C18.28872391 21.66096588 18.28447906 22.67349426 18.28010559 23.71670532 C18.26337302 26.93641248 18.22573026 30.15548344 18.1875 33.375 C18.17244618 35.56379302 18.158759 37.75259589 18.14648438 39.94140625 C18.11348715 45.29451429 18.06174174 50.64714944 18 56 C21.96 56 25.92 56 30 56 C30 56.99 30 57.98 30 59 C25.05 59 20.1 59 15 59 C14.98018066 57.70376709 14.96036133 56.40753418 14.93994141 55.07202148 C14.86362165 50.24305454 14.77494531 45.41437857 14.68261719 40.58569336 C14.64443617 38.49948896 14.60956467 36.41322118 14.578125 34.3269043 C14.53223773 31.320571 14.47428267 28.31467001 14.4140625 25.30859375 C14.40251129 24.38227646 14.39096008 23.45595917 14.37905884 22.50157166 C14.30032368 13.63103053 14.30032368 13.63103053 10.203125 6.10546875 C7.62660478 4.81264034 5.61991411 4.50131014 2.75 4.3125 C1.85796875 4.24675781 0.9659375 4.18101562 0.046875 4.11328125 C-0.62859375 4.07589844 -1.3040625 4.03851563 -2 4 C-1.34 2.68 -0.68 1.36 0 0 Z " fill="#123175" transform="translate(370,155)"/>
<path d="M0 0 C1.11138822 3.33416465 0.83218833 3.77736466 0 7 C-0.81752349 18.27110259 -0.09650259 28.20727685 7.125 37.375 C12.62343449 43.15845053 20.19971876 46.799003 28.171875 47.1328125 C34.53998498 47.11890833 40.70731921 47.00682893 47 46 C40.69813819 51.26356879 31.94485816 51.64569519 24 51 C16.01681882 50.12551726 8.52347091 47.00461715 3.140625 40.88671875 C1.58200842 38.65295886 0.2589482 36.41402279 -1 34 C-1.33902344 33.38511719 -1.67804688 32.77023438 -2.02734375 32.13671875 C-6.07806727 23.41926307 -4.77781529 12.71401176 -1.75390625 3.890625 C-1 2 -1 2 0 0 Z " fill="#123175" transform="translate(222,164)"/>
<path d="M0 0 C1.2452606 2.4905212 0.96761907 3.98301117 0.8125 6.75 C0.76993294 11.67359006 1.67002233 14.22002534 5 18 C11.67107118 24.67107118 21.43502451 26.56939406 30.37817383 28.4296875 C34.8107708 29.42403713 37.83637116 30.6953567 41 34 C40.9375 37.6875 40.9375 37.6875 40 41 C39.01 41.495 39.01 41.495 38 42 C37.505 40.3603125 37.505 40.3603125 37 38.6875 C35.57802047 35.48322033 35.11032333 35.05840647 31.8125 33.3125 C28.99133877 32.44685718 26.14760166 31.80542111 23.26953125 31.1484375 C4.91065385 26.93438523 4.91065385 26.93438523 -0.4921875 20.1171875 C-3.1735848 15.40162673 -3.60315613 11.34223999 -3 6 C-1.5 2.5 -1.5 2.5 0 0 Z " fill="#123175" transform="translate(160,157)"/>
<path d="M0 0 C3.0625 2.0625 3.0625 2.0625 5 5 C5.1506132 9.29247606 4.66257079 11.22050496 1.875 14.5 C-1.97148295 16.50686067 -3.88546541 16.27176524 -8 15 C-10.5 12.875 -10.5 12.875 -12 10 C-11.94021398 6.53241058 -11.60965977 4.11173251 -9.9375 1.0625 C-6.70668894 -0.7092351 -3.5202266 -0.7177161 0 0 Z " fill="#F2F4F7" transform="translate(329,124)"/>
<path d="M0 0 C0.66 0 1.32 0 2 0 C2.33 27.39 2.66 54.78 3 83 C6.63 83.33 10.26 83.66 14 84 C14 84.66 14 85.32 14 86 C9.38 86 4.76 86 0 86 C0 57.62 0 29.24 0 0 Z " fill="#0D2C72" transform="translate(289,127)"/>
<path d="M0 0 C2.5625 1.5625 2.5625 1.5625 4 4 C4 7.78814147 3.8367392 10.03929943 1.3125 12.9375 C-1.73602877 14.33817538 -3.67926952 14.4842732 -7 14 C-9.375 12.4375 -9.375 12.4375 -11 10 C-11.42213381 6.56262469 -11.60856522 4.17909511 -10 1.0625 C-6.75462393 -0.66160604 -3.53203487 -0.62413468 0 0 Z " fill="#B6C1D5" transform="translate(487,198)"/>
<path d="M0 0 C0.99 0 1.98 0 3 0 C3.45439453 0.90492188 3.45439453 0.90492188 3.91796875 1.828125 C7.80089697 9.23555729 11.84584033 13.13538763 19.6875 16.18359375 C26.94587315 17.97250883 34.55691095 17.8471645 42 18 C42 18.66 42 19.32 42 20 C30.69239491 22.67074863 18.80257824 21.77921014 8.625 16.125 C4.39897505 12.70393218 1.60869178 9.22824827 0 4 C0 2.68 0 1.36 0 0 Z " fill="#102E74" transform="translate(155,194)"/>
<path d="M0 0 C3.86135074 0.56027442 7.19622282 1.84794886 10.77270508 3.37402344 C21.24560747 7.83057765 31.96118815 11.3562533 42.8125 14.75 C43.55058899 14.98193054 44.28867798 15.21386108 45.0491333 15.45281982 C54.96967852 18.56181711 64.93268005 21.40352204 75 24 C75 24.99 75 25.98 75 27 C65.66715402 25.44298101 56.87641637 22.51300163 47.9375 19.5 C47.14907715 19.23599396 46.3606543 18.97198792 45.54833984 18.69998169 C35.09850744 15.19400368 24.74113107 11.51884774 14.5 7.4375 C13.48156006 7.03273438 12.46312012 6.62796875 11.41381836 6.2109375 C7.18107228 4.48134166 3.5903361 2.87441817 0 0 Z " fill="#324478" transform="translate(7,286)"/>
<path d="M0 0 C0.66 0 1.32 0 2 0 C2.33 19.8 2.66 39.6 3 60 C6.96 60.33 10.92 60.66 15 61 C15 61.66 15 62.32 15 63 C10.05 63 5.1 63 0 63 C0 42.21 0 21.42 0 0 Z " fill="#0D2C72" transform="translate(341,150)"/>
<path d="M0 0 C0.66 0 1.32 0 2 0 C2.33 19.8 2.66 39.6 3 60 C6.96 60.33 10.92 60.66 15 61 C15 61.66 15 62.32 15 63 C10.05 63 5.1 63 0 63 C0 42.21 0 21.42 0 0 Z " fill="#0D2C72" transform="translate(315,150)"/>
<path d="M0 0 C1.8145108 2.7217662 2.43476859 4.31265637 3.25 7.375 C4.78960678 12.09339691 6.74976431 14.27343371 11 17 C17.81263522 20.34655765 24.48176858 20.66763916 32 21 C32 21.66 32 22.32 32 23 C23.38376235 25.2235452 14.52789643 24.52517301 6.75 20.1875 C3.01812793 17.2189654 0.51681014 14.55043042 -1 10 C-1.09182942 8.46050671 -1.13002352 6.91722145 -1.125 5.375 C-1.12757812 4.57835937 -1.13015625 3.78171875 -1.1328125 2.9609375 C-1 1 -1 1 0 0 Z " fill="#0F2E73" transform="translate(89,191)"/>
<path d="M0 0 C14.85 0 29.7 0 45 0 C45 0.99 45 1.98 45 3 C30.48 3 15.96 3 1 3 C0.67 2.01 0.34 1.02 0 0 Z " fill="#0D2C72" transform="translate(238,182)"/>
<path d="M0 0 C4.88279754 0.26222431 8.80186472 2.17443054 12.3125 5.5625 C13.3125 8.875 13.3125 8.875 13.3125 11.5625 C17.2725 11.5625 21.2325 11.5625 25.3125 11.5625 C25.3125 12.5525 25.3125 13.5425 25.3125 14.5625 C20.599136 14.90276959 16.01494773 15.1025723 11.3125 14.5625 C8.6875 11.75 8.6875 11.75 7.3125 8.5625 C4.34323819 5.76479554 2.0882714 5.13985338 -1.9375 4.875 C-2.82953125 4.80925781 -3.7215625 4.74351562 -4.640625 4.67578125 C-5.31609375 4.63839844 -5.9915625 4.60101563 -6.6875 4.5625 C-4.1484375 0.6328125 -4.1484375 0.6328125 0 0 Z " fill="#173578" transform="translate(186.6875,153.4375)"/>
<path d="M0 0 C4.62721811 1.77212608 6.643191 4.70724074 9 9 C9.75 12.375 9.75 12.375 10 15 C8.68 15 7.36 15 6 15 C5.78085937 14.45730469 5.56171875 13.91460937 5.3359375 13.35546875 C3.75751958 9.79440392 2.54742069 7.42725518 -0.5625 5 C-5.4012947 3.59235063 -9.99735559 3.75965943 -15 4 C-11.38067436 -1.51516288 -5.91038556 -0.71241254 0 0 Z " fill="#123276" transform="translate(259,156)"/>
<path d="M0 0 C3.1875 1.6875 3.1875 1.6875 5.1875 4.6875 C5.3828125 6.94921875 5.3828125 6.94921875 5.3125 9.375 C5.29445312 10.18324219 5.27640625 10.99148437 5.2578125 11.82421875 C5.23460937 12.43910156 5.21140625 13.05398437 5.1875 13.6875 C4.1975 14.0175 3.2075 14.3475 2.1875 14.6875 C1.796875 12.70182292 1.40625 10.71614583 1.015625 8.73046875 C-0.09302503 5.99545003 -1.24842673 5.12759594 -3.8125 3.6875 C-6.62133637 3.11520132 -6.62133637 3.11520132 -9.5625 3 C-11.03976563 2.90138672 -11.03976563 2.90138672 -12.546875 2.80078125 C-13.66835937 2.74470703 -13.66835937 2.74470703 -14.8125 2.6875 C-14.4825 1.6975 -14.1525 0.7075 -13.8125 -0.3125 C-9.00409815 -1.91530062 -4.70547345 -1.87629526 0 0 Z " fill="#143377" transform="translate(129.8125,155.3125)"/>
<path d="M0 0 C0.05429959 1.74965358 0.09292823 3.49979787 0.125 5.25 C0.14820313 6.22453125 0.17140625 7.1990625 0.1953125 8.203125 C-0.00137219 11.0196498 -0.55431084 12.60949036 -2 15 C-2.33 15 -2.66 15 -3 15 C-3 11.04 -3 7.08 -3 3 C-12.9 4.485 -12.9 4.485 -23 6 C-22.67 5.01 -22.34 4.02 -22 3 C-15.00012366 -0.07311644 -7.5068186 -0.13405033 0 0 Z " fill="#102F74" transform="translate(135,180)"/>
<path d="M0 0 C0.33 0 0.66 0 1 0 C1.2475 1.093125 1.495 2.18625 1.75 3.3125 C3.04244598 7.12521564 3.51259934 8.20647966 7 10 C9.64934822 10.71433121 9.64934822 10.71433121 12 11 C11.01 12.485 11.01 12.485 10 14 C6.46485766 14.39279359 3.92243314 14.3883929 0.625 13 C-1.78242359 10.03701711 -2.22872102 6.78152089 -2 3 C-1.34 2.01 -0.68 1.02 0 0 Z " fill="#103075" transform="translate(316,129)"/>
<path d="M0 0 C2.22694714 1.07223381 4.25980644 2.17554489 6.3125 3.5625 C9.54177723 5.28978782 12.37956857 5.64505574 16 6 C16 6.99 16 7.98 16 9 C10.18506473 9.34889612 6.08418446 9.22411698 1 6 C0.34 5.34 -0.32 4.68 -1 4 C-0.625 1.875 -0.625 1.875 0 0 Z " fill="#0F2F74" transform="translate(135,205)"/>
<path d="M0 0 C1 2 1 2 0 7 C4.29 7 8.58 7 13 7 C12.67 7.99 12.34 8.98 12 10 C7.05 10 2.1 10 -3 10 C-2 3 -2 3 0 0 Z " fill="#0E2E73" transform="translate(94,159)"/>
<path d="M0 0 C0.33 0 0.66 0 1 0 C1 2.97 1 5.94 1 9 C1.66 9 2.32 9 3 9 C3.33 8.01 3.66 7.02 4 6 C5.32 7.32 6.64 8.64 8 10 C5.25 10.75 5.25 10.75 2 11 C-0.375 9.375 -0.375 9.375 -2 7 C-2.375 4.375 -2.375 4.375 -2 2 C-1.34 1.34 -0.68 0.68 0 0 Z " fill="#173578" transform="translate(479,200)"/>
<path d="M0 0 C5.4 -0.36 5.4 -0.36 7.875 1.125 C9.4682099 3.78034983 9.20214032 5.96789518 9 9 C8.01 9 7.02 9 6 9 C5 6 5 6 5 2 C3.35 1.67 1.7 1.34 0 1 C0 0.67 0 0.34 0 0 Z " fill="#193779" transform="translate(480,199)"/>
<path d="M0 0 C0 0.33 0 0.66 0 1 C-5.28 1.66 -10.56 2.32 -16 3 C-15 0 -15 0 -12.5 -1.3125 C-7.91900798 -2.21233772 -4.42412291 -1.27807995 0 0 Z " fill="#193B7C" transform="translate(128,183)"/>
<path d="M0 0 C3.48670834 1.1094072 6.77484237 2.26337666 10 4 C10 4.66 10 5.32 10 6 C8.5164999 5.57742724 7.03823576 5.13643678 5.5625 4.6875 C4.73878906 4.44386719 3.91507812 4.20023437 3.06640625 3.94921875 C2.04353516 3.47935547 2.04353516 3.47935547 1 3 C0.67 2.01 0.34 1.02 0 0 Z " fill="#6F7990" transform="translate(3,285)"/>
<path d="M0 0 C1.65 0 3.3 0 5 0 C5 1.32 5 2.64 5 4 C3.68 4 2.36 4 1 4 C0.67 2.68 0.34 1.36 0 0 Z " fill="#7184AD" transform="translate(480,200)"/>
</svg>
